<?xml version="1.0" standalone="no"?>
<!DOCTYPE svg PUBLIC "-//W3C//DTD SVG 1.1//EN" "http://www.w3.org/Graphics/SVG/1.1/DTD/svg11.dtd" >
<svg>
<metadata>
Created by FontForge 20120731 at Mon Aug 26 09:11:25 2019
 By www-data
Copyright (URW)++,Copyright 2014 by (URW)++ Design &#38; Development
</metadata>
<defs>
<font id="Copperplate-Bol" horiz-adv-x="500" >
  <font-face 
    font-family="Copperplate"
    font-weight="700"
    font-stretch="normal"
    units-per-em="1000"
    panose-1="0 0 8 0 0 0 0 0 0 0"
    ascent="667"
    descent="-333"
    x-height="547"
    cap-height="667"
    bbox="-133 -256 1785 893"
    underline-thickness="85"
    underline-position="-17"
    stemh="101"
    stemv="131"
    unicode-range="U+0020-FB04"
  />
<missing-glyph horiz-adv-x="250" 
 />
    <glyph glyph-name="fi" unicode="fi" horiz-adv-x="899" 
d="M210 233v-183c2 -23 8 -30 31 -37v-13h-193v14c23 6 29 13 31 36v447c-2 23 -8 29 -31 37v13h490c22 1 30 8 37 31h13v-162h-13c-7 24 -14 30 -37 32h-328v-120h206c23 2 30 8 37 31h13v-158h-13c-7 24 -14 30 -37 32h-206zM657 547h193v-14c-23 -6 -29 -13 -31 -36v-447
c2 -23 8 -30 31 -37v-13h-193v13c23 7 29 14 31 37v447c-2 23 -8 30 -31 36v14z" />
    <glyph glyph-name="fl" unicode="fl" horiz-adv-x="1184" 
d="M210 233v-183c2 -23 8 -30 31 -37v-13h-193v14c23 6 29 13 31 36v447c-2 23 -8 29 -31 37v13h490c22 1 30 8 37 31h13v-162h-13c-7 24 -14 30 -37 32h-328v-120h206c23 2 30 8 37 31h13v-158h-13c-7 24 -14 30 -37 32h-206zM819 99h307c23 2 30 8 37 31h13v-161h-13
c-7 23 -14 29 -37 31h-469v13c23 7 29 14 31 37v447c-2 23 -8 30 -31 36v14h193v-14c-23 -6 -29 -13 -31 -36v-398z" />
    <glyph glyph-name="ff" unicode="ff" horiz-adv-x="1219" 
d="M210 233v-183c2 -23 8 -30 31 -37v-13h-193v14c23 6 29 13 31 36v447c-2 23 -8 29 -31 37v13h490c22 1 30 8 37 31h13v-162h-13c-7 24 -14 30 -37 32h-328v-120h206c23 2 30 8 37 31h13v-158h-13c-7 24 -14 30 -37 32h-206zM819 233v-183c2 -23 8 -30 31 -37v-13h-193v14
c23 6 29 13 31 36v447c-2 23 -8 30 -31 37v13h490c22 1 30 8 37 31h13v-162h-13c-7 24 -14 30 -37 32h-328v-120h206c23 2 30 8 37 31h13v-158h-13c-7 24 -14 30 -37 32h-206z" />
    <glyph glyph-name="ffi" unicode="ffi" horiz-adv-x="1508" 
d="M210 233v-183c2 -23 8 -30 31 -37v-13h-193v14c23 6 29 13 31 36v447c-2 23 -8 29 -31 37v13h490c22 1 30 8 37 31h13v-162h-13c-7 24 -14 30 -37 32h-328v-120h206c23 2 30 8 37 31h13v-158h-13c-7 24 -14 30 -37 32h-206zM820 233v-183c2 -23 8 -30 31 -37v-13h-193v14
c23 6 29 13 31 36v447c-2 23 -8 30 -31 37v13h489c22 1 30 8 37 31h13v-162h-13c-7 24 -14 30 -37 32h-327v-120h205c23 2 30 8 37 31h13v-158h-13c-7 24 -14 30 -37 32h-205zM1267 547h193v-14c-23 -6 -29 -13 -31 -36v-447c2 -23 8 -30 31 -37v-13h-193v13
c23 7 29 14 31 37v447c-2 23 -8 30 -31 36v14z" />
    <glyph glyph-name=".notdef" horiz-adv-x="250" 
 />
    <glyph glyph-name="space" unicode=" " horiz-adv-x="250" 
 />
    <glyph glyph-name="exclam" unicode="!" horiz-adv-x="378" 
d="M253 235h-128v16c27 7 31 12 31 35c0 8 0 15 -1 22l-36 301c-3 33 -7 38 -32 42v16h205v-16c-25 -4 -29 -9 -32 -42l-36 -301c-1 -7 -1 -11 -1 -22c0 -23 4 -28 30 -35v-16zM189 148c45 0 80 -35 80 -81c0 -43 -36 -79 -80 -79s-80 36 -80 80s36 80 80 80z" />
    <glyph glyph-name="quotedbl" unicode="&#x22;" horiz-adv-x="555" 
d="M47 667h184v-14c-22 -4 -25 -8 -29 -39l-32 -170c-1 -5 -1 -11 -1 -16c0 -25 3 -29 28 -36v-14h-115v14c24 7 27 11 27 36c0 8 0 12 -1 16l-32 170c-4 31 -6 35 -29 39v14zM325 667h184v-14c-23 -4 -25 -8 -29 -39l-32 -170c-1 -5 -1 -5 -1 -16c0 -25 4 -29 27 -36v-14
h-115v14c25 7 28 11 28 36l-1 16l-32 170c-4 31 -7 35 -29 39v14z" />
    <glyph glyph-name="numbersign" unicode="#" horiz-adv-x="767" 
d="M602 515h82c22 2 31 8 41 31h16l-31 -166h-17c-2 24 -8 30 -29 32h-82l-31 -161h82c22 2 31 8 41 32h16l-32 -166h-16c-2 23 -8 29 -30 31h-81l-19 -98v-8c0 -16 5 -21 25 -27l-4 -17h-166l3 17c25 6 32 13 39 35l19 98h-160l-19 -98c-1 -2 -1 -5 -1 -8
c0 -16 5 -21 25 -27l-3 -17h-166l3 17c25 6 32 13 38 35l19 98h-81c-22 -2 -30 -8 -41 -31h-17l32 166h17c2 -24 8 -30 29 -32h82l31 161h-82c-22 -2 -30 -8 -41 -32h-17l32 166h17c2 -23 8 -29 29 -31h82l19 98v8c0 16 -6 22 -25 28l3 15l167 1l-4 -16
c-24 -7 -31 -14 -38 -36l-19 -98h160l19 98c1 3 1 6 1 8c0 16 -6 22 -25 28l3 15l166 1l-3 -16c-25 -7 -32 -14 -39 -36zM448 251l31 161h-160l-31 -161h160z" />
    <glyph glyph-name="dollar" unicode="$" horiz-adv-x="713" 
d="M401 409l17 -2c84 -7 143 -24 186 -54c44 -31 72 -86 72 -145c0 -52 -21 -103 -59 -140c-43 -43 -129 -74 -216 -78v-32c1 -22 8 -29 31 -35v-16h-135v16c23 6 29 13 31 35v32c-84 5 -152 25 -240 70c-7 3 -13 5 -17 5c-5 0 -9 -2 -20 -11l-14 7l72 164l14 -7v-7
c0 -17 10 -33 31 -47c42 -30 115 -55 174 -60v167c-95 9 -132 17 -174 38c-58 29 -93 87 -93 157c0 126 102 207 267 212v24c-2 22 -8 29 -31 35v16h135v-16c-23 -6 -29 -13 -31 -35v-26c65 -6 115 -21 218 -64c8 -3 15 -5 20 -5c7 0 15 3 24 11l14 -8l-80 -156l-14 7
c4 25 -14 41 -80 73c-29 13 -78 26 -102 28v-153zM328 417v147c-84 -6 -132 -36 -132 -83c0 -19 10 -35 30 -45c18 -10 42 -14 102 -19zM401 263v-159c84 9 134 44 134 94c0 21 -15 41 -36 48c-25 9 -31 10 -98 17z" />
    <glyph glyph-name="percent" unicode="%" horiz-adv-x="884" 
d="M203 673c103 0 171 -70 171 -175c0 -99 -71 -170 -171 -170s-170 71 -170 173c0 101 70 172 170 172zM203 603c-51 0 -86 -42 -86 -102c0 -61 35 -103 87 -103c50 0 86 42 86 101c0 62 -35 104 -87 104zM679 339c103 0 171 -70 171 -175c0 -99 -71 -170 -171 -170
s-170 71 -170 173c0 101 70 172 170 172zM679 269c-51 0 -86 -42 -86 -102c0 -61 35 -103 87 -103c50 0 86 42 86 101c0 62 -35 104 -87 104zM756 667v-16c-33 -5 -39 -9 -82 -69l-393 -508c-14 -19 -18 -25 -18 -33c0 -13 10 -21 30 -25v-16h-174v16c34 5 44 14 87 70
l385 496c17 21 22 31 22 40c0 13 -11 25 -30 29v16h173z" />
    <glyph glyph-name="ampersand" unicode="&#x26;" horiz-adv-x="774" 
d="M747 459v-185h-16c-2 18 -5 24 -14 24c-14 0 -48 -22 -70 -46c-21 -23 -32 -42 -40 -69c41 -42 67 -57 98 -57c15 0 23 7 26 24h16v-154c-8 2 -14 3 -16 3l-70 4c-43 7 -106 43 -140 82c-66 -64 -145 -97 -236 -97c-150 0 -256 84 -256 202c0 84 49 149 149 198
c-45 40 -66 79 -66 126c0 94 94 165 218 165c130 0 223 -70 223 -167c0 -58 -22 -93 -88 -140c37 -23 58 -49 79 -93c55 103 116 157 203 180zM334 579c-59 0 -101 -35 -101 -84s42 -84 101 -84c58 0 101 35 101 83c0 50 -41 85 -101 85zM298 328c-75 0 -134 -49 -134 -111
c0 -67 57 -115 138 -115c83 0 151 47 151 104c0 27 -20 63 -47 85c-30 24 -68 37 -108 37z" />
    <glyph glyph-name="quoteright" unicode="&#x2019;" horiz-adv-x="307" 
d="M120 377l-24 31c52 33 74 65 83 116c-19 -4 -26 -5 -35 -5c-43 0 -71 32 -71 81c0 48 29 79 72 79c53 0 88 -46 88 -114c0 -72 -38 -135 -113 -188z" />
    <glyph glyph-name="parenleft" unicode="(" horiz-adv-x="333" 
d="M272 747l54 -45c-93 -108 -129 -210 -129 -369s35 -260 129 -369l-54 -44c-127 91 -206 250 -206 413c0 164 80 324 206 414z" />
    <glyph glyph-name="parenright" unicode=")" horiz-adv-x="333" 
d="M8 702l54 45c126 -90 206 -250 206 -414c0 -163 -79 -322 -206 -413l-54 44c94 109 129 210 129 369s-36 261 -129 369z" />
    <glyph glyph-name="asterisk" unicode="*" horiz-adv-x="504" 
d="M178 733h148v-18c-31 -6 -39 -31 -41 -129c89 31 110 45 110 72v7l17 6l46 -140l-18 -6c-10 16 -18 21 -36 21c-21 0 -50 -6 -99 -21c50 -66 70 -85 91 -85c4 0 9 1 18 5l11 -15l-120 -87l-10 15c9 11 12 18 12 25c0 20 -14 45 -54 104c-41 -58 -54 -84 -54 -104
c0 -8 3 -14 12 -25l-11 -15l-120 87l11 15c9 -4 14 -5 19 -5c19 0 45 25 90 85c-54 16 -79 21 -100 21c-16 0 -25 -5 -35 -21l-18 5l46 141l17 -6v-8c0 -26 29 -44 110 -71c-2 99 -10 122 -42 129v18z" />
    <glyph glyph-name="plus" unicode="+" horiz-adv-x="767" 
d="M335 285h-174c-20 -2 -27 -8 -33 -31h-14v158h14c6 -23 13 -29 33 -31h174v174c-2 20 -8 27 -31 33v14h158v-14c-23 -6 -29 -13 -31 -33v-174h174c20 2 27 8 33 31h14v-158h-14c-6 23 -13 29 -33 31h-174v-174c2 -20 8 -27 31 -33v-14h-158v14c23 6 29 13 31 33v174z" />
    <glyph glyph-name="comma" unicode="," horiz-adv-x="307" 
d="M120 -153l-24 31c52 33 74 65 83 116c-18 -5 -26 -6 -35 -6c-43 0 -71 32 -71 81c0 48 29 79 72 79c53 0 88 -46 88 -114c0 -71 -38 -134 -113 -187z" />
    <glyph glyph-name="hyphen" unicode="-" horiz-adv-x="222" 
d="M222 357v-168h-16c-6 23 -13 29 -35 31h-120c-22 -2 -29 -8 -35 -31h-16v168h16c6 -23 13 -29 35 -31h120c22 2 29 8 35 31h16z" />
    <glyph glyph-name="period" unicode="." horiz-adv-x="307" 
d="M153 148c45 0 80 -35 80 -81c0 -43 -36 -79 -80 -79s-80 36 -80 80s36 80 80 80z" />
    <glyph glyph-name="slash" unicode="/" horiz-adv-x="759" 
d="M726 667v-16c-34 -5 -39 -9 -83 -69l-393 -508c-14 -19 -18 -25 -18 -33c0 -13 10 -21 30 -25v-16h-229v16c34 5 44 14 87 70l385 496c16 21 22 31 22 40c0 13 -11 25 -30 29v16h229z" />
    <glyph glyph-name="zero" unicode="0" horiz-adv-x="713" 
d="M356 679c189 0 316 -140 316 -350c0 -200 -131 -341 -316 -341c-186 0 -315 141 -315 346c0 203 129 345 315 345zM356 565c-98 0 -166 -93 -166 -228c0 -134 68 -227 166 -227s167 93 167 225c0 137 -67 230 -167 230z" />
    <glyph glyph-name="one" unicode="1" horiz-adv-x="713" 
d="M216 426v177h16c7 -24 11 -29 25 -29c2 0 2 0 13 3l42 10v29c-2 22 -8 29 -31 35v16h203v-16c-23 -6 -30 -14 -31 -35v-565c1 -21 8 -29 31 -35v-16h-203v16c23 6 29 13 31 35v422l-45 -11c-24 -7 -30 -13 -35 -36h-16z" />
    <glyph glyph-name="two" unicode="2" horiz-adv-x="713" 
d="M214 120h408c22 2 29 8 35 31h16v-182h-16c-6 23 -13 29 -35 31h-519c-32 1 -41 -5 -47 -31h-16v31c0 74 12 118 47 167c43 60 90 93 206 146l83 38c78 36 110 72 110 124c0 59 -42 91 -119 91c-91 0 -191 -54 -191 -104c0 -6 2 -13 7 -31l-11 -11l-130 140l12 11
c15 -7 21 -9 28 -9c10 0 13 2 38 23c69 62 161 94 265 94c152 0 250 -81 250 -207c0 -100 -55 -169 -183 -226l-75 -34c-8 -3 -30 -12 -54 -22c-70 -29 -87 -40 -109 -70z" />
    <glyph glyph-name="three" unicode="3" horiz-adv-x="713" 
d="M40 583l12 10c14 -6 20 -8 26 -8c8 0 14 3 27 11c84 57 171 83 274 83c162 0 267 -75 267 -192c0 -59 -28 -104 -85 -137c76 -29 111 -76 111 -148c0 -132 -117 -214 -304 -214c-92 0 -165 16 -241 53c-37 17 -49 22 -59 22c-11 0 -16 -3 -33 -19l-14 8l77 180l15 -6
c-2 -5 -2 -7 -2 -11c0 -17 9 -33 27 -48c46 -38 142 -65 228 -65c100 0 161 38 161 100c0 63 -53 95 -158 95c-61 0 -78 -7 -85 -34h-16v163h16c8 -29 22 -35 84 -35c92 0 145 32 145 87c0 56 -52 87 -145 87c-104 0 -210 -45 -210 -88c0 -8 1 -12 6 -22l-12 -10z" />
    <glyph glyph-name="four" unicode="4" horiz-adv-x="713" 
d="M461 112h-352c-35 1 -44 -4 -50 -31h-15v141l331 373c16 18 22 27 22 35c0 12 -8 19 -25 21v16h261v-16c-23 -6 -29 -13 -31 -35v-394h37c22 1 29 8 35 31h16v-172h-16c-6 23 -13 29 -35 31h-37v-61c2 -22 8 -29 31 -35v-16h-203v16c23 6 29 13 31 35v61zM461 222v293
l-258 -293h258z" />
    <glyph glyph-name="five" unicode="5" horiz-adv-x="713" 
d="M28 79l118 156l13 -9c-3 -10 -4 -15 -4 -22c0 -17 12 -32 40 -49c56 -36 113 -53 180 -53c101 0 162 47 162 123c0 72 -63 118 -162 118c-73 0 -152 -28 -152 -55c0 -5 1 -9 7 -19l-12 -11l-172 174l10 11c3 -1 5 -1 7 -1c16 0 23 10 23 31v141c-1 23 -9 32 -31 37v16
h528c22 2 29 8 35 31h16v-176h-16c-6 23 -13 29 -35 31h-380v-144c53 26 117 40 187 40c178 0 292 -87 292 -224c0 -69 -31 -134 -85 -176c-53 -41 -124 -61 -218 -61c-110 0 -163 16 -273 81c-15 9 -24 12 -36 12c-9 0 -12 -1 -30 -12z" />
    <glyph glyph-name="six" unicode="6" horiz-adv-x="713" 
d="M677 629l-86 -160l-14 7c2 9 3 14 3 19c0 37 -91 76 -177 76c-77 0 -145 -32 -181 -87c-23 -35 -32 -66 -36 -126c66 59 128 83 216 83c161 0 273 -91 273 -223c0 -137 -123 -230 -303 -230c-93 0 -169 25 -221 71c-66 59 -104 158 -104 268c0 210 143 352 355 352
c74 0 126 -12 204 -47c16 -7 23 -9 32 -9s15 3 26 14zM376 329c-94 0 -160 -48 -160 -115c0 -69 66 -116 160 -116s161 48 161 114c0 70 -65 117 -161 117z" />
    <glyph glyph-name="seven" unicode="7" horiz-adv-x="713" 
d="M509 557h-416c-22 -2 -29 -8 -35 -31h-16v172h16c6 -23 13 -29 35 -31h528c22 2 29 8 35 31h16v-127l-300 -494c-18 -29 -18 -30 -18 -37c0 -11 7 -17 28 -24v-16h-239v16c28 7 43 21 68 61z" />
    <glyph glyph-name="eight" unicode="8" horiz-adv-x="713" 
d="M528 357c98 -25 149 -79 149 -157c0 -73 -48 -145 -118 -176c-54 -24 -120 -36 -202 -36s-148 12 -202 36c-70 31 -118 103 -118 175c0 79 50 132 148 158c-83 32 -120 76 -120 142c0 112 110 180 291 180c182 0 292 -68 292 -180c0 -66 -37 -109 -120 -142zM355 575
c-92 0 -149 -31 -149 -81c0 -49 58 -80 150 -80s151 31 151 79c0 52 -56 82 -152 82zM356 303c-105 0 -170 -38 -170 -100c0 -63 65 -101 171 -101c105 0 171 38 171 99c0 64 -64 102 -172 102z" />
    <glyph glyph-name="nine" unicode="9" horiz-adv-x="713" 
d="M37 39l86 160l14 -8c-2 -9 -3 -14 -3 -19c0 -37 91 -76 177 -76c77 0 145 33 181 87c23 35 32 66 36 126c-66 -59 -128 -83 -216 -83c-161 0 -273 91 -273 223c0 137 123 230 302 230c93 0 170 -25 222 -71c66 -59 104 -157 104 -268c0 -210 -143 -352 -355 -352
c-74 0 -124 11 -204 47c-16 7 -23 9 -32 9c-7 0 -10 -1 -16 -6c-5 -4 -8 -6 -10 -8zM337 569c-94 0 -160 -48 -160 -116c0 -67 66 -115 160 -115s161 48 161 114c0 70 -65 117 -161 117z" />
    <glyph glyph-name="colon" unicode=":" horiz-adv-x="307" 
d="M153 148c45 0 80 -35 80 -81c0 -43 -36 -79 -80 -79s-80 36 -80 80s36 80 80 80zM153 559c45 0 80 -35 80 -81c0 -43 -36 -79 -80 -79s-80 36 -80 80s36 80 80 80z" />
    <glyph glyph-name="semicolon" unicode=";" horiz-adv-x="307" 
d="M120 -153l-24 31c52 33 74 65 83 116c-18 -5 -26 -6 -35 -6c-43 0 -71 32 -71 81c0 48 29 79 72 79c53 0 88 -46 88 -114c0 -71 -38 -134 -113 -187zM153 559c45 0 80 -35 80 -81c0 -43 -36 -79 -80 -79s-80 36 -80 80s36 80 80 80z" />
    <glyph glyph-name="less" unicode="&#x3c;" 
d="M466 618v-141l-283 -144l283 -143v-141l-433 225v119z" />
    <glyph glyph-name="equal" unicode="=" horiz-adv-x="767" 
d="M114 368v158h14c6 -23 13 -29 33 -31h444c20 2 27 8 33 31h14v-158h-14c-6 23 -13 29 -33 31h-444c-20 -2 -27 -8 -33 -31h-14zM114 141v158h14c6 -23 13 -29 33 -31h444c20 2 27 8 33 31h14v-158h-14c-6 23 -13 29 -33 31h-444c-20 -2 -27 -8 -33 -31h-14z" />
    <glyph glyph-name="greater" unicode="&#x3e;" 
d="M34 618l433 -225v-119l-433 -225v141l283 143l-283 144v141z" />
    <glyph glyph-name="question" unicode="?" horiz-adv-x="488" 
d="M104 479l-84 123l13 9l4 -2c8 -5 12 -6 16 -6c9 0 18 4 42 20c62 41 104 56 159 56c103 0 174 -61 174 -148c0 -51 -23 -94 -87 -156c-44 -43 -53 -61 -53 -100c0 -17 6 -24 28 -29v-16h-160v16c26 8 31 17 37 61c8 43 15 56 55 106c36 46 46 65 46 92
c0 43 -30 71 -76 71c-48 0 -105 -38 -105 -71c0 -5 1 -8 4 -17zM244 148c45 0 80 -35 80 -81c0 -43 -36 -79 -80 -79s-80 36 -80 80s36 80 80 80z" />
    <glyph glyph-name="at" unicode="@" horiz-adv-x="821" 
d="M622 473l-56 -224c-1 -3 -1 -7 -1 -10c1 -15 11 -22 30 -22c16 0 39 10 57 24c26 20 43 72 43 129c0 62 -21 113 -64 154c-54 51 -130 81 -205 81c-74 0 -153 -31 -214 -84c-58 -51 -87 -113 -87 -185c0 -71 29 -141 78 -191c54 -57 123 -82 219 -82c47 0 118 11 154 24
c9 3 12 6 12 15v7l11 4l33 -115l-11 -3c-10 19 -16 24 -27 24c-6 0 -6 0 -63 -15c-30 -8 -84 -14 -121 -14c-205 0 -357 143 -357 337c0 202 159 350 378 350c193 0 337 -124 337 -290c0 -73 -24 -132 -70 -174c-32 -29 -62 -43 -94 -43c-49 0 -75 15 -102 58
c-38 -29 -98 -47 -156 -47c-83 0 -138 47 -138 119c0 103 98 186 218 186c49 0 82 -13 118 -48l11 35h67zM411 424c-69 0 -127 -50 -127 -109c0 -46 30 -72 82 -72c79 0 143 45 143 100c0 51 -36 81 -98 81z" />
    <glyph glyph-name="A" unicode="A" horiz-adv-x="813" 
d="M548 170h-303l-45 -94c-5 -12 -9 -24 -9 -31c0 -14 11 -24 32 -29v-16h-220v16c25 4 33 12 53 51l245 513c8 16 12 29 12 39c0 15 -9 26 -28 32v16h236v-16c-17 -5 -29 -15 -29 -26c0 -10 6 -29 17 -50l247 -499c24 -46 34 -56 60 -60v-16h-245v16c21 3 32 13 32 30
c0 8 -3 17 -9 30zM506 261l-108 238l-110 -238h218z" />
    <glyph glyph-name="B" unicode="B" horiz-adv-x="806" 
d="M60 667h450c87 0 135 -12 174 -43c37 -29 59 -79 59 -134c0 -66 -29 -111 -90 -140c76 -29 112 -80 112 -158c0 -59 -23 -109 -65 -143c-44 -34 -99 -49 -185 -49h-455v16c23 6 29 13 31 35v565c-2 22 -8 29 -31 35v16zM236 402h255c77 0 107 22 107 78s-29 77 -107 77
h-255v-155zM236 110h247c49 0 77 5 99 19c21 14 34 41 34 72s-13 58 -34 72c-22 14 -49 19 -99 19h-247v-182z" />
    <glyph glyph-name="C" unicode="C" horiz-adv-x="839" 
d="M707 229l92 -139l-12 -9c-10 9 -16 12 -24 12c-7 0 -26 -9 -48 -23c-85 -55 -178 -82 -278 -82c-105 0 -192 25 -259 75c-85 62 -133 160 -133 271c0 110 48 208 133 270c68 50 154 75 260 75c100 0 179 -23 271 -79c33 -20 47 -26 57 -26c6 0 10 3 21 12l12 -9l-92 -139
l-13 9v13c0 12 -3 19 -14 28c-57 49 -142 78 -231 78c-150 0 -255 -95 -255 -233c0 -68 29 -132 80 -175c46 -39 104 -57 182 -57c67 0 122 15 182 49c41 23 56 38 56 56v14z" />
    <glyph glyph-name="D" unicode="D" horiz-adv-x="838" 
d="M60 667h371c124 0 196 -20 256 -71c70 -59 106 -149 106 -262c0 -114 -36 -204 -106 -263c-59 -51 -133 -71 -256 -71h-371v16c23 6 29 13 31 35v565c-2 22 -8 29 -31 35v16zM236 110h183c88 0 137 17 174 59c35 39 51 90 51 165c0 74 -16 125 -51 164
c-37 43 -86 59 -174 59h-183v-447z" />
    <glyph glyph-name="E" unicode="E" horiz-adv-x="760" 
d="M236 292v-182h430c21 2 29 8 35 31h15v-172h-15c-6 23 -13 29 -35 31h-606v16c23 6 29 13 31 35v565c-2 22 -8 29 -31 35v16h594c22 2 29 8 35 31h16v-172h-16c-6 23 -13 29 -35 31h-418v-159h271c22 1 29 8 35 32h16v-169h-16c-6 23 -13 29 -35 31h-271z" />
    <glyph glyph-name="F" unicode="F" horiz-adv-x="727" 
d="M236 292v-241c1 -22 8 -29 31 -35v-16h-207v16c23 6 29 13 31 35v565c-2 22 -8 29 -31 35v16h590c22 2 29 8 35 31h16v-172h-16c-6 23 -13 29 -35 31h-414v-159h271c22 2 29 8 35 31h16v-168h-16c-6 23 -13 29 -35 31h-271z" />
    <glyph glyph-name="G" unicode="G" horiz-adv-x="858" 
d="M654 240h-165c-22 -2 -29 -8 -35 -31h-16v155h16c6 -23 14 -30 35 -31h316v-16c-21 -5 -30 -15 -31 -35v-137c1 -21 9 -30 31 -36v-12c-126 -74 -246 -109 -368 -109c-238 0 -392 136 -392 346s158 345 402 345c81 0 134 -12 241 -53c12 -5 22 -7 30 -7s14 3 24 12l13 -7
l-78 -160l-14 7c0 20 -4 28 -24 42c-41 30 -128 53 -195 53c-147 0 -250 -96 -250 -234c0 -139 102 -231 258 -231c74 0 151 18 202 48v91z" />
    <glyph glyph-name="H" unicode="H" horiz-adv-x="858" 
d="M622 291h-386v-240c1 -22 8 -29 31 -35v-16h-207v16c23 6 29 13 31 35v565c-2 22 -8 29 -31 35v16h207v-16c-23 -6 -29 -13 -31 -35v-215h386v215c-2 22 -8 29 -31 35v16h207v-16c-23 -6 -30 -13 -31 -35v-565c1 -22 8 -29 31 -35v-16h-207v16c23 6 29 13 31 35v240z" />
    <glyph glyph-name="I" unicode="I" horiz-adv-x="328" 
d="M267 16v-16h-207v16c23 6 29 13 31 35v565c-2 22 -8 29 -31 35v16h207v-16c-23 -6 -29 -13 -31 -35v-565c1 -22 8 -29 31 -35z" />
    <glyph glyph-name="J" unicode="J" horiz-adv-x="604" 
d="M3 25l62 169l15 -5v-10c0 -14 7 -25 25 -37c35 -23 101 -41 155 -41c43 0 75 10 95 30s26 43 26 99v386c-2 22 -8 29 -31 35v16h207v-16c-23 -6 -30 -13 -31 -35v-393c0 -97 -17 -144 -65 -182c-44 -36 -102 -53 -175 -53c-57 0 -82 5 -176 32c-30 9 -50 13 -63 13
c-12 0 -19 -3 -29 -13z" />
    <glyph glyph-name="K" unicode="K" horiz-adv-x="802" 
d="M336 312l-100 -82v-179c2 -22 8 -29 31 -35v-16h-207v16c23 6 29 13 31 35v565c-2 22 -8 29 -31 35v16h207v-16c-23 -6 -29 -13 -31 -35v-233l265 216c23 18 29 26 29 33c0 9 -10 16 -29 19v16h273v-16c-15 -2 -21 -5 -30 -11c-4 -3 -9 -6 -14 -11
c-20 -16 -41 -33 -61 -50l-226 -182l257 -309c56 -65 60 -68 91 -72v-16h-260v16c17 3 25 9 25 18c0 7 -4 12 -23 36z" />
    <glyph glyph-name="L" unicode="L" horiz-adv-x="708" 
d="M236 110h411c21 1 29 8 35 31h16v-172h-16c-6 23 -13 29 -35 31h-587v16c23 6 29 13 31 35v565c-2 22 -8 29 -31 35v16h207v-16c-23 -6 -29 -13 -31 -35v-506z" />
    <glyph glyph-name="M" unicode="M" horiz-adv-x="966" 
d="M470 9l-246 452v-410c1 -22 8 -29 31 -35v-16h-195v16c23 6 29 13 31 35v565c-2 22 -8 29 -31 35v16h256v-16c-15 -3 -23 -13 -23 -26c0 -7 2 -14 7 -23l182 -335l185 329c8 15 12 25 12 33c0 13 -8 21 -24 22v16h251v-16c-23 -6 -30 -13 -31 -35v-565
c1 -22 8 -29 31 -35v-16h-207v16c23 6 29 13 31 35v410z" />
    <glyph glyph-name="N" unicode="N" horiz-adv-x="871" 
d="M224 457v-406c1 -22 8 -29 31 -35v-16h-195v16c23 6 29 13 31 35v565c-2 22 -8 29 -31 35v16h226v-16c-14 -3 -21 -11 -21 -22c0 -9 4 -15 14 -26l368 -383v396c-2 22 -8 29 -31 35v16h195v-16c-23 -6 -30 -13 -31 -35v-565c1 -22 8 -29 31 -35v-16h-209v16
c14 3 20 9 20 21c0 8 -4 14 -24 34z" />
    <glyph glyph-name="O" unicode="O" horiz-adv-x="856" 
d="M427 679c120 0 206 -29 276 -94s108 -154 108 -256c0 -92 -40 -184 -108 -246c-69 -65 -157 -95 -275 -95c-117 0 -206 30 -275 95c-69 63 -108 154 -108 251c0 96 40 189 108 251c71 64 158 94 274 94zM427 566c-136 0 -233 -97 -233 -232c0 -136 97 -233 234 -233
c135 0 234 97 234 229c0 140 -96 236 -235 236z" />
    <glyph glyph-name="P" unicode="P" horiz-adv-x="765" 
d="M236 270v-219c2 -22 8 -29 31 -35v-16h-207v16c23 7 29 13 31 35v565c-2 22 -8 29 -31 35v16h415c97 0 148 -11 191 -43c45 -34 72 -92 72 -155c0 -64 -27 -122 -72 -155c-43 -32 -95 -44 -191 -44h-239zM236 380h222c51 0 73 3 93 14c23 13 38 42 38 75
c0 32 -15 61 -38 74c-20 11 -41 14 -93 14h-222v-177z" />
    <glyph glyph-name="Q" unicode="Q" horiz-adv-x="856" 
d="M707 86l52 -54c24 -25 27 -27 38 -27c6 0 10 1 22 7l11 -12l-143 -130l-11 12c8 13 10 18 10 24c0 8 -2 10 -27 41l-58 71c-46 -19 -110 -30 -176 -30c-114 0 -203 31 -272 95c-69 63 -108 154 -108 251c0 96 39 187 108 251s157 94 275 94s206 -30 275 -94
s108 -155 108 -251s-38 -186 -104 -248zM387 212v14c23 17 51 27 80 27c43 0 81 -19 144 -70c33 41 51 95 51 151c0 136 -97 232 -234 232s-234 -96 -234 -232c0 -137 97 -233 235 -233c34 0 59 5 90 16c-41 54 -82 83 -132 95z" />
    <glyph glyph-name="R" unicode="R" horiz-adv-x="809" 
d="M236 272v-221c2 -22 8 -29 31 -35v-16h-207v16c23 6 29 13 31 35v565c-2 22 -8 29 -31 35v16h416c102 0 155 -11 199 -40c48 -31 76 -89 76 -158c0 -109 -60 -173 -181 -192l129 -184c48 -67 58 -75 89 -77v-16h-241v16c16 2 25 9 25 17c0 7 -4 15 -24 43l-134 196h-178z
M236 382h225c66 0 85 3 108 15c23 13 37 40 37 73c0 32 -14 59 -37 72s-40 15 -108 15h-225v-175z" />
    <glyph glyph-name="S" unicode="S" horiz-adv-x="720" 
d="M680 611l-79 -157l-14 8v8c0 11 -8 22 -28 35c-55 39 -130 61 -204 61c-95 0 -156 -33 -156 -85c0 -19 10 -34 30 -45c21 -11 29 -12 116 -21l77 -8c90 -9 142 -25 185 -55c45 -32 72 -88 72 -147c0 -66 -34 -129 -88 -163c-56 -34 -136 -54 -223 -54
c-90 0 -174 21 -261 64c-28 13 -28 13 -33 13s-9 -3 -20 -11l-14 7l72 164l15 -7c-1 -3 -1 -6 -1 -6c0 -15 7 -28 21 -41c42 -38 145 -70 224 -70c98 0 167 40 167 97c0 21 -13 39 -36 48c-21 8 -35 11 -100 18l-75 8c-101 10 -129 16 -170 37c-59 29 -93 88 -93 157
c0 132 110 213 287 213c85 0 149 -15 257 -61c27 -10 29 -11 34 -11c8 0 15 4 24 11z" />
    <glyph glyph-name="T" unicode="T" horiz-adv-x="674" 
d="M410 557v-506c2 -22 8 -29 31 -35v-16h-207v16c23 6 29 13 31 35v506h-207c-22 -2 -29 -8 -35 -31h-16v172h16c6 -23 13 -29 35 -31h559c22 2 29 8 35 31h16v-172h-16c-6 23 -13 29 -35 31h-207z" />
    <glyph glyph-name="U" unicode="U" horiz-adv-x="816" 
d="M769 667v-16c-23 -6 -29 -13 -31 -35v-374c0 -103 -27 -166 -87 -202c-57 -35 -137 -52 -243 -52s-187 17 -243 52c-60 36 -87 99 -87 202v374c-2 22 -8 29 -31 35v16h208v-16c-24 -6 -30 -13 -32 -35v-333c0 -77 7 -107 30 -132c30 -32 88 -50 161 -50s130 18 160 50
c23 25 30 55 30 132v333c-2 22 -8 29 -31 35v16h196z" />
    <glyph glyph-name="V" unicode="V" horiz-adv-x="770" 
d="M773 667v-16c-28 -4 -31 -7 -58 -66l-231 -498c-15 -33 -15 -33 -15 -42c0 -16 11 -26 31 -29v-16h-229v16c19 3 30 13 30 29c0 9 -2 15 -14 42l-231 498c-27 59 -30 62 -59 66v16h237v-16c-23 -4 -32 -12 -32 -27c0 -9 4 -23 11 -39l177 -391l176 391c7 15 11 30 11 39
c0 15 -9 23 -32 27v16h228z" />
    <glyph glyph-name="W" unicode="W" horiz-adv-x="1128" 
d="M565 470l-153 -386c-13 -29 -13 -29 -13 -37c0 -14 12 -25 36 -31v-16h-214v16c21 4 32 15 32 33c0 7 -3 17 -13 43l-191 492c-20 51 -31 63 -59 67v16h231v-16c-23 -5 -31 -12 -31 -28c0 -8 2 -17 8 -33l132 -353l143 355c10 24 10 24 10 30c0 16 -10 25 -33 29v16h242
v-16c-23 -6 -33 -15 -33 -31c0 -7 2 -15 8 -30l135 -354l132 348c7 19 10 30 10 39c0 16 -10 24 -36 28v16h230v-16c-32 -8 -36 -13 -58 -67l-191 -492c-10 -26 -14 -39 -14 -47c0 -15 13 -26 35 -29v-16h-217v16c21 3 33 15 33 32c0 10 0 10 -14 44z" />
    <glyph glyph-name="X" unicode="X" horiz-adv-x="753" 
d="M460 347l202 -261c42 -56 53 -65 87 -70v-16h-264v16c19 4 29 12 29 25c0 8 -5 17 -18 33l-128 166l-122 -160c-16 -21 -20 -28 -20 -37c0 -16 12 -26 33 -27v-16h-256v16c30 3 37 9 85 70l201 254l-185 242c-45 61 -50 65 -86 69l-1 16h268v-16c-19 -4 -30 -16 -30 -30
c0 -8 6 -19 22 -39l104 -134l106 134c14 18 23 35 23 43c0 13 -12 23 -33 26v16h260v-16c-32 -3 -37 -7 -85 -69z" />
    <glyph glyph-name="Y" unicode="Y" horiz-adv-x="713" 
d="M429 279v-228c2 -22 8 -29 32 -35v-16h-209v16c24 6 30 13 32 35v228l-216 303c-35 51 -54 67 -81 69v16h263v-16c-20 -3 -33 -14 -33 -30c0 -8 1 -9 20 -39l121 -179l123 179c18 26 20 31 20 40c0 14 -13 26 -33 29v16h258v-16c-28 -2 -46 -17 -82 -69z" />
    <glyph glyph-name="Z" unicode="Z" horiz-adv-x="714" 
d="M277 110h346c22 2 29 8 35 31h16v-172h-16c-6 23 -13 29 -35 31h-583v34l388 523h-334c-22 -2 -29 -8 -35 -31h-16v172h16c6 -23 13 -29 35 -31h575v-28z" />
    <glyph glyph-name="bracketleft" unicode="[" horiz-adv-x="333" 
d="M66 720h210c23 1 30 8 37 31h13v-130h-13c-7 23 -14 29 -37 31h-72v-637h66c27 0 36 7 43 31h13v-130h-13c-6 23 -15 30 -37 31h-210v12c23 7 29 13 31 34v680c-2 21 -8 28 -31 35v12z" />
    <glyph glyph-name="backslash" unicode="\" horiz-adv-x="759" 
d="M33 667h228v-16c-18 -4 -29 -16 -29 -30c0 -8 7 -20 21 -39l385 -496c43 -56 54 -65 88 -70v-16h-229v16c19 4 29 12 29 25c0 8 -5 16 -18 33l-392 508c-44 60 -49 64 -83 69v16z" />
    <glyph glyph-name="bracketright" unicode="]" horiz-adv-x="333" 
d="M268 720v-12c-23 -6 -29 -14 -31 -35v-680c2 -21 8 -28 31 -34v-12h-210c-22 -1 -31 -8 -37 -31h-13v130h13c7 -24 16 -31 43 -31h66v637h-72c-23 -2 -30 -8 -37 -31h-13v130h13c7 -23 14 -30 37 -31h210z" />
    <glyph glyph-name="asciicircum" unicode="^" 
d="M143 353h-126l154 317h158l154 -317h-126l-107 222z" />
    <glyph glyph-name="underscore" unicode="_" 
d="M0 -58h500v-85h-500v85z" />
    <glyph glyph-name="quoteleft" unicode="&#x2018;" horiz-adv-x="307" 
d="M186 679l24 -32c-51 -32 -75 -65 -83 -116c18 5 26 6 35 6c43 0 71 -32 71 -81c0 -48 -29 -79 -72 -79c-53 0 -88 46 -88 114c0 71 38 134 113 188z" />
    <glyph glyph-name="a" unicode="a" horiz-adv-x="694" 
d="M463 137h-251l-29 -59c-7 -15 -10 -26 -10 -34c0 -15 11 -26 31 -31v-13h-201v13c24 4 34 13 49 45l200 404c7 15 11 29 11 40c0 15 -7 23 -28 31v14h213v-14c-18 -6 -27 -18 -27 -33c0 -10 4 -24 12 -39l207 -393c23 -43 30 -49 57 -55v-13h-223v13c20 4 31 14 31 30
c0 9 -6 26 -12 38zM423 214l-89 175l-85 -175h174z" />
    <glyph glyph-name="b" unicode="b" horiz-adv-x="677" 
d="M48 547h383c71 0 114 -11 147 -36c31 -24 50 -63 50 -105c0 -51 -21 -81 -78 -112c69 -31 95 -67 95 -132c0 -102 -77 -162 -208 -162h-389v13c23 7 29 14 31 37v447c-2 23 -8 29 -31 37v13zM210 342h199c63 0 86 14 86 53s-23 53 -86 53h-199v-106zM210 99h204
c65 0 98 24 98 72s-32 72 -98 72h-204v-144z" />
    <glyph glyph-name="c" unicode="c" horiz-adv-x="697" 
d="M583 196l82 -120l-11 -9c-8 6 -14 9 -19 9c-6 0 -13 -3 -38 -18c-90 -53 -147 -70 -236 -70c-195 0 -325 114 -325 285s130 286 324 286c90 0 147 -17 237 -70c25 -15 32 -18 39 -18c4 0 10 2 18 8l11 -8l-82 -120l-11 8c1 5 2 10 2 13c0 17 -20 34 -66 55
c-42 20 -83 29 -126 29c-123 0 -213 -77 -213 -182c0 -106 90 -183 213 -183c47 0 92 11 138 35c39 20 54 33 54 49c0 3 -1 8 -2 13z" />
    <glyph glyph-name="d" unicode="d" horiz-adv-x="704" 
d="M48 547h320c102 0 167 -18 216 -61c55 -47 84 -120 84 -212c0 -93 -28 -164 -84 -213c-49 -43 -113 -61 -216 -61h-320v13c23 7 29 14 31 37v447c-2 23 -8 29 -31 37v13zM210 99h140c67 0 109 13 140 44c30 31 45 74 45 131c0 56 -15 99 -45 130c-31 31 -73 44 -140 44
h-140v-349z" />
    <glyph glyph-name="e" unicode="e" horiz-adv-x="642" 
d="M210 233v-134h347c23 2 30 8 37 32h13v-162h-13c-7 23 -14 29 -37 31h-509v13c23 7 29 14 31 37v447c-2 23 -8 29 -31 37v13h494c22 1 30 8 37 31h13v-162h-13c-7 24 -14 30 -37 32h-332v-120h206c23 2 30 8 37 31h13v-158h-13c-7 24 -14 30 -37 32h-206z" />
    <glyph glyph-name="f" unicode="f" horiz-adv-x="609" 
d="M210 233v-183c2 -23 8 -30 31 -37v-13h-193v14c23 6 29 13 31 36v447c-2 23 -8 29 -31 37v13h490c22 1 30 8 37 31h13v-162h-13c-7 24 -14 30 -37 32h-328v-120h206c23 2 30 8 37 31h13v-158h-13c-7 24 -14 30 -37 32h-206z" />
    <glyph glyph-name="g" unicode="g" horiz-adv-x="720" 
d="M541 211h-124c-23 -2 -30 -8 -37 -31h-13v144h13c6 -23 16 -31 37 -31h260v-14c-23 -7 -29 -15 -31 -40v-115c2 -23 8 -31 31 -37v-11c-103 -57 -213 -88 -315 -88c-91 0 -164 21 -220 64c-66 51 -106 132 -106 218c0 89 42 172 115 225c57 43 131 64 219 64
c61 0 104 -8 181 -36c41 -13 41 -13 48 -13c6 0 11 2 19 8l12 -6l-65 -139l-12 6v3c0 12 -5 18 -18 27c-45 29 -103 46 -161 46c-124 0 -205 -74 -205 -186c0 -111 79 -178 210 -178c67 0 117 11 162 36v84z" />
    <glyph glyph-name="h" unicode="h" horiz-adv-x="725" 
d="M515 238h-305v-188c2 -23 8 -30 31 -37v-13h-193v13c23 7 29 14 31 37v447c-2 23 -8 29 -31 36v14h193v-14c-23 -6 -29 -13 -31 -36v-160h305v160c-2 23 -8 30 -31 36v14h193v-14c-23 -6 -29 -13 -31 -36v-447c2 -23 8 -30 31 -37v-13h-193v13c23 7 29 14 31 37v188z" />
    <glyph glyph-name="i" unicode="i" horiz-adv-x="289" 
d="M48 547h193v-14c-23 -6 -29 -13 -31 -36v-447c2 -23 8 -30 31 -37v-13h-193v13c23 7 29 14 31 37v447c-2 23 -7 29 -31 36v14z" />
    <glyph glyph-name="j" unicode="j" horiz-adv-x="505" 
d="M3 15l48 149l13 -5c0 -13 2 -19 11 -27c21 -21 82 -40 128 -40c70 0 103 31 103 95v310c-2 23 -8 30 -31 36v14h193v-14c-23 -6 -29 -13 -31 -36v-312c0 -80 -16 -123 -55 -153c-36 -27 -96 -44 -160 -44c-52 0 -90 8 -169 33c-6 2 -11 3 -15 3c-8 0 -14 -4 -22 -13z" />
    <glyph glyph-name="k" unicode="k" horiz-adv-x="685" 
d="M288 250l-78 -64v-136c2 -23 8 -30 31 -37v-13h-193v13c23 7 29 14 31 37v447c-2 23 -7 29 -31 36v14h193v-14c-23 -6 -29 -13 -31 -36v-179l206 164c16 13 23 23 23 32c0 10 -8 16 -29 20v13h246v-13c-25 -4 -31 -8 -92 -63l-185 -147l203 -233l40 -42
c22 -25 31 -31 55 -36v-13h-239v13c19 5 27 10 27 20c0 6 0 6 -27 36z" />
    <glyph glyph-name="l" unicode="l" horiz-adv-x="574" 
d="M210 99h306c23 2 30 8 37 31h13v-161h-13c-7 23 -14 29 -37 31h-468v13c23 7 29 14 31 37v447c-2 23 -8 29 -31 36v14h193v-14c-23 -6 -29 -13 -31 -36v-398z" />
    <glyph glyph-name="m" unicode="m" horiz-adv-x="819" 
d="M397 17l-199 343v-310c2 -23 8 -30 31 -37v-13h-181v13c23 7 29 15 31 37v447c-2 23 -8 29 -31 36v14h231v-14c-15 -4 -24 -14 -24 -27s6 -31 17 -49l136 -230l137 226c18 30 24 43 24 55c0 14 -7 22 -24 25v14h225v-14c-23 -6 -29 -13 -31 -36v-447c2 -23 8 -30 31 -37
v-13h-193v13c23 7 29 14 31 37v309z" />
    <glyph glyph-name="n" unicode="n" horiz-adv-x="744" 
d="M198 360v-310c2 -23 8 -30 31 -37v-13h-181v13c23 7 29 14 31 37v447c-2 23 -7 29 -31 36v14h210v-14c-15 -3 -22 -9 -22 -19c0 -8 5 -16 16 -27l293 -291v301c-2 23 -8 30 -31 36v14h181v-14c-23 -6 -29 -13 -31 -36v-447c2 -23 8 -30 31 -37v-13h-196v13
c15 3 22 9 22 18s-5 15 -33 43z" />
    <glyph glyph-name="o" unicode="o" horiz-adv-x="713" 
d="M356 559c194 0 321 -115 321 -290c0 -165 -132 -281 -320 -281c-191 0 -321 116 -321 286c0 169 130 285 320 285zM356 456c-108 0 -187 -77 -187 -182c0 -106 79 -183 188 -183c107 0 187 77 187 180c0 109 -77 185 -188 185z" />
    <glyph glyph-name="p" unicode="p" horiz-adv-x="652" 
d="M210 225v-175c2 -23 8 -30 31 -37v-13h-193v14c23 6 29 13 31 36v447c-2 23 -8 29 -31 37v13h356c73 0 123 -10 160 -32c42 -24 66 -72 66 -129c0 -109 -73 -161 -226 -161h-194zM210 324h187c40 0 55 2 71 10c18 9 29 28 29 52s-11 43 -29 52c-16 8 -30 10 -71 10h-187
v-124z" />
    <glyph glyph-name="q" unicode="q" horiz-adv-x="723" 
d="M593 72l49 -53c12 -12 24 -19 33 -19c5 0 10 2 18 8l9 -9l-118 -109l-9 10c7 8 9 12 9 18c0 7 -5 14 -23 35l-55 63c-44 -19 -94 -28 -150 -28c-190 0 -320 116 -320 286c0 169 130 285 321 285c190 0 320 -116 320 -285c0 -82 -28 -151 -84 -202zM324 185v9
c23 16 40 22 64 22c37 0 74 -17 119 -55c24 31 37 71 37 114c0 105 -79 181 -187 181c-109 0 -188 -76 -188 -182s79 -183 187 -183c25 0 49 4 75 14c-39 49 -69 71 -107 80z" />
    <glyph glyph-name="r" unicode="r" horiz-adv-x="686" 
d="M210 225v-175c2 -23 8 -30 31 -37v-13h-193v14c23 6 29 13 31 36v447c-2 23 -8 29 -31 37v13h358c93 0 134 -8 172 -33c37 -24 59 -70 59 -125c0 -89 -46 -137 -154 -158l104 -145c42 -57 56 -70 83 -73v-13h-229v13c18 5 25 12 25 22c0 8 -5 18 -15 33l-110 157h-131z
M210 324h197c71 0 97 17 97 62c0 46 -24 62 -97 62h-197v-124z" />
    <glyph glyph-name="s" unicode="s" horiz-adv-x="616" 
d="M574 498l-66 -128l-12 7v5c0 36 -108 78 -202 78c-80 0 -137 -29 -137 -68c0 -33 27 -44 124 -51l77 -6c73 -6 115 -16 154 -39c45 -27 72 -76 72 -129c0 -111 -103 -179 -269 -179c-88 0 -159 16 -239 52c-5 3 -10 4 -14 4c-7 0 -12 -3 -18 -12l-12 5l56 134l13 -5
c-1 -2 -1 -3 -1 -4c0 -8 4 -16 10 -21c32 -29 125 -54 203 -54c87 0 144 26 144 66c0 20 -13 36 -35 43c-19 7 -36 9 -85 13l-77 7c-83 7 -119 15 -152 36c-41 26 -66 73 -66 127c0 109 99 180 251 180c75 0 131 -14 221 -57c15 -7 22 -9 28 -9s10 2 20 11z" />
    <glyph glyph-name="t" unicode="t" horiz-adv-x="569" 
d="M350 448v-398c2 -23 8 -30 31 -37v-13h-193v13c23 7 29 14 31 37v398h-161c-23 -2 -30 -8 -37 -32h-13v162h13c6 -23 15 -30 37 -31h453c22 1 31 8 37 31h13v-162h-13c-7 24 -14 30 -37 32h-161z" />
    <glyph glyph-name="u" unicode="u" horiz-adv-x="690" 
d="M652 547v-14c-23 -6 -29 -13 -31 -36v-290c0 -87 -21 -139 -70 -172c-43 -30 -120 -47 -206 -47c-94 0 -174 20 -217 53c-42 34 -60 84 -60 166v290c-2 23 -8 29 -31 36v14h194v-14c-24 -6 -30 -13 -32 -36v-263c0 -61 9 -90 36 -111c26 -21 66 -32 115 -32
c50 0 90 11 116 32s35 49 35 111v263c-2 23 -8 30 -31 36v14h182z" />
    <glyph glyph-name="v" unicode="v" horiz-adv-x="650" 
d="M652 547v-14c-26 -8 -30 -12 -51 -53l-191 -403c-6 -13 -10 -26 -10 -33c0 -16 12 -27 32 -31v-13h-215v13c21 4 33 15 33 31c0 7 -3 17 -11 33l-191 403c-20 40 -25 45 -51 53v14h219v-14c-22 -7 -31 -16 -31 -33c0 -9 3 -17 12 -38l132 -289l132 289c8 17 11 28 11 38
c0 17 -9 26 -31 33v14h211z" />
    <glyph glyph-name="w" unicode="w" horiz-adv-x="959" 
d="M478 380l-119 -297c-6 -16 -9 -27 -9 -37c0 -18 10 -29 32 -33v-13h-204v13c20 5 30 16 30 33c0 9 -3 20 -9 37l-145 373c-21 56 -31 69 -62 77v14h208v-14c-21 -6 -30 -15 -30 -31c0 -8 2 -16 10 -34l102 -259l102 257c5 13 9 27 9 34c0 17 -11 28 -32 33v14h243v-14
c-22 -7 -32 -17 -32 -34c0 -7 3 -17 8 -31l100 -259l99 261c5 11 7 21 7 29c0 19 -8 27 -32 34v14h213v-14c-32 -11 -40 -22 -62 -77l-147 -373c-5 -13 -8 -26 -8 -36c0 -18 12 -30 33 -34v-13h-212v13c23 6 32 16 32 36c0 7 0 7 -11 34z" />
    <glyph glyph-name="x" unicode="x" horiz-adv-x="635" 
d="M391 283l161 -214c32 -40 52 -54 81 -56v-13h-252v13c21 5 31 13 31 26c0 8 -3 14 -17 32l-88 116l-89 -116c-8 -11 -14 -23 -14 -30c0 -12 11 -21 32 -28v-13h-233v13c30 6 42 15 73 56l162 208l-142 190c-32 43 -56 62 -80 66v14h250v-14c-22 -6 -32 -15 -32 -29
c0 -8 5 -19 15 -33l74 -99l69 93c16 22 20 30 20 40c0 14 -11 24 -32 29v13h238v-13c-35 -7 -44 -14 -83 -67z" />
    <glyph glyph-name="y" unicode="y" horiz-adv-x="599" 
d="M365 240v-190c2 -23 8 -30 31 -37v-13h-194v13c23 7 30 14 32 37v190l-162 223c-40 53 -54 64 -83 71v13h246v-14c-22 -6 -31 -14 -31 -29c0 -9 4 -17 23 -43l79 -111l78 111c19 27 23 34 23 43c0 15 -9 23 -32 29v14h234v-13c-29 -7 -42 -18 -82 -71z" />
    <glyph glyph-name="z" unicode="z" horiz-adv-x="609" 
d="M249 99h277c23 2 30 8 37 31h13v-161h-14c-6 23 -13 29 -36 31h-489v29l318 419h-264c-23 -2 -30 -8 -37 -32h-13v162h13c6 -23 15 -30 37 -31h480v-24z" />
    <glyph glyph-name="braceleft" unicode="{" horiz-adv-x="333" 
d="M327 -84h-13c-6 25 -15 31 -42 31h-113c-45 0 -89 38 -89 75v182c0 69 -4 83 -30 84h-30c-16 -1 -21 -7 -26 -31h-12v153h12c5 -24 10 -30 26 -31h30c26 1 30 14 30 84v182c-1 36 44 75 89 75h113c27 0 36 6 42 31h13v-135h-13c-6 25 -15 31 -42 31h-40
c-36 -3 -54 -27 -53 -70v-173c-1 -31 -10 -46 -40 -70c30 -24 39 -40 40 -71v-173c-1 -43 17 -67 53 -70h40c27 0 36 6 42 31h13v-135z" />
    <glyph glyph-name="bar" unicode="|" 
d="M179 667h142v-834h-142v834z" />
    <glyph glyph-name="braceright" unicode="}" horiz-adv-x="333" 
d="M7 -84v135h13c6 -25 15 -31 42 -31h40c36 3 54 27 53 70v173c1 31 10 47 40 71c-30 24 -39 39 -40 70v173c1 43 -17 67 -53 70h-40c-27 0 -36 -6 -42 -31h-13v135h13c6 -25 15 -31 42 -31h113c45 0 90 -39 89 -75v-182c0 -69 4 -83 30 -84h30c16 1 21 7 26 31h12v-153
h-12c-5 24 -10 30 -26 31h-30c-26 -1 -30 -14 -30 -84v-182c0 -37 -44 -75 -89 -75h-113c-27 0 -36 -6 -42 -31h-13z" />
    <glyph glyph-name="asciitilde" unicode="~" horiz-adv-x="667" 
d="M163 556l-70 57c38 92 84 134 146 134c27 0 54 -8 111 -33c55 -25 64 -28 83 -28c28 0 48 18 73 63l70 -57c-18 -40 -29 -61 -45 -81c-28 -35 -64 -54 -103 -54c-25 0 -29 1 -136 47c-24 10 -42 15 -57 15c-28 0 -47 -17 -72 -63z" />
    <glyph glyph-name="exclamdown" unicode="&#xa1;" horiz-adv-x="378" 
d="M253 432v-16c-26 -7 -30 -12 -30 -35c0 -11 0 -15 1 -22l36 -301c3 -33 7 -38 32 -42v-16h-205v16c25 4 29 9 32 42l36 301c1 7 1 14 1 22c0 23 -4 28 -31 35v16h128zM189 679c45 0 80 -36 80 -81c0 -43 -36 -79 -80 -79s-80 36 -80 80s36 80 80 80z" />
    <glyph glyph-name="cent" unicode="&#xa2;" horiz-adv-x="713" 
d="M344 23v29c-175 14 -287 124 -287 283c0 116 64 213 169 256c38 16 71 24 118 27v26c-2 23 -8 30 -31 37v13h133v-13c-23 -7 -29 -14 -31 -37v-26c76 -3 124 -20 226 -80c5 -3 11 -5 16 -5s10 2 19 8l10 -8l-82 -120l-11 8c1 5 1 7 1 10c0 16 -8 26 -30 38
c-56 33 -90 43 -149 48v-363c52 3 82 12 126 34c39 20 54 33 54 48c0 4 -1 8 -2 13l11 8l82 -119l-11 -9c-8 7 -13 9 -19 9c-7 0 -7 0 -58 -30c-66 -37 -112 -51 -183 -57v-28c2 -23 8 -30 31 -37v-13h-133v13c23 7 29 14 31 37zM344 159v352c-96 -25 -152 -89 -152 -176
s55 -151 152 -176z" />
    <glyph glyph-name="sterling" unicode="&#xa3;" horiz-adv-x="713" 
d="M123 393h28c-6 44 -8 64 -8 86c0 121 103 200 262 200c58 0 112 -11 156 -33c26 -13 30 -16 74 -49c15 -11 32 -19 41 -19c5 0 8 1 14 5l10 -12l-143 -103l-9 13c7 4 9 8 9 15c0 34 -70 69 -139 69c-84 0 -132 -36 -132 -99c0 -15 1 -25 6 -73h111c22 2 29 8 35 31h16
v-157h-16c-6 23 -13 29 -35 31h-101c3 -25 4 -38 4 -52c0 -61 -11 -86 -54 -128c41 12 61 15 90 15c27 0 47 -3 86 -13c27 -6 49 -10 59 -10c31 0 62 21 62 42c0 9 -2 14 -10 20l11 12l140 -108l-9 -12c-8 5 -12 6 -18 6c-10 0 -22 -6 -54 -28c-47 -32 -80 -43 -125 -43
c-27 0 -27 0 -127 17c-17 3 -40 5 -67 5c-66 0 -122 -13 -174 -39l-47 106c73 38 97 77 97 157c0 16 -1 28 -3 53h-40c-22 -2 -29 -8 -35 -31h-16v157h16c6 -23 13 -29 35 -31z" />
    <glyph glyph-name="fraction" unicode="&#x2044;" horiz-adv-x="287" 
d="M421 667v-16c-33 -5 -34 -6 -72 -69l-302 -508c-9 -14 -12 -23 -12 -30c0 -15 14 -26 37 -28v-16h-205v16c33 5 42 14 75 70l298 496c9 16 14 28 14 36c0 16 -16 30 -38 33v16h205z" />
    <glyph glyph-name="yen" unicode="&#xa5;" horiz-adv-x="713" 
d="M252 0v16c24 6 30 13 32 35v146h-142c-22 -2 -29 -10 -36 -38h-15v166h15c7 -24 14 -30 36 -32h132l-58 116h-114c-22 -2 -29 -10 -36 -39h-15v166h15c7 -23 14 -29 36 -31h68l-48 77c-34 50 -55 68 -82 69v16h263v-16c-19 -3 -32 -14 -32 -29c0 -8 0 -8 17 -41l70 -177
l72 177c18 32 18 32 18 40c0 15 -13 27 -34 30v16h259v-16c-27 -1 -48 -19 -82 -69l-48 -77h68c22 2 29 8 35 31h16v-166h-16c-6 29 -13 37 -35 39h-115l-58 -116h133c22 2 29 8 35 32h16v-166h-16c-6 28 -13 36 -35 38h-142v-146c2 -22 8 -29 32 -35v-16h-209z" />
    <glyph glyph-name="florin" unicode="&#x192;" horiz-adv-x="713" 
d="M3 -26l75 125l11 -5c-2 -5 -3 -8 -3 -11c0 -19 33 -40 63 -40c29 0 57 13 72 33c11 15 18 36 24 76l29 182h-43c-23 -2 -31 -8 -41 -31h-15l26 168h16c2 -23 9 -29 30 -31h44l14 89c8 49 31 103 58 134c35 40 98 63 175 63c60 0 83 -7 126 -36c4 -3 6 -4 9 -4
c7 0 14 4 23 13l15 -7l-74 -126l-16 8l3 8c3 7 4 12 4 15c0 12 -44 27 -76 27c-33 0 -67 -15 -83 -36c-11 -14 -22 -45 -26 -73l-12 -75h90c22 2 30 8 40 31h16l-27 -168h-15c-3 23 -9 29 -31 31h-90l-31 -196c-13 -79 -22 -102 -52 -134c-40 -42 -97 -63 -169 -63
c-45 0 -77 9 -107 30c-11 8 -14 9 -18 9c-7 0 -14 -4 -23 -12z" />
    <glyph glyph-name="section" unicode="&#xa7;" horiz-adv-x="671" 
d="M289 532l93 -10c174 -18 243 -67 243 -169c0 -59 -25 -106 -69 -130c55 -39 69 -63 69 -120c0 -66 -37 -124 -98 -152c-44 -21 -98 -31 -170 -31c-102 0 -165 18 -261 72c-8 5 -13 7 -17 7c-5 0 -10 -3 -22 -11l-10 6l85 130l11 -7c-4 -8 -5 -13 -5 -17
c0 -13 11 -25 37 -42c45 -28 105 -42 182 -42c97 0 162 34 162 84c0 36 -36 51 -143 63l-96 10c-134 14 -198 62 -198 148c0 40 14 76 38 100c8 8 23 19 43 31c-58 29 -81 63 -81 120c0 109 90 175 241 175c69 0 123 -10 212 -41c10 -3 20 -5 26 -5s12 4 20 12l11 -5
l-67 -136l-11 6c2 8 3 12 3 15c0 10 -11 19 -37 31c-48 20 -85 27 -152 27c-89 0 -145 -27 -145 -68c0 -30 27 -42 106 -51zM289 282l141 -20c67 26 88 46 88 84c0 37 -28 53 -115 63l-128 15c-62 -24 -92 -52 -92 -87c0 -33 18 -43 106 -55z" />
    <glyph glyph-name="currency" unicode="&#xa4;" horiz-adv-x="767" 
d="M637 149l50 -49c7 -7 17 -12 23 -12c7 0 14 2 24 9l11 -11l-114 -115l-11 11c6 11 8 18 8 24c0 7 -5 18 -11 23l-59 59c-54 -28 -108 -40 -174 -40c-67 0 -123 13 -176 40l-58 -59c-7 -6 -12 -16 -12 -23c0 -6 3 -14 9 -24l-11 -11l-115 115l11 11c11 -6 18 -9 24 -9
c7 0 17 5 23 12l50 50c-36 52 -53 110 -53 183s17 131 53 184l-50 50c-5 6 -17 11 -23 11s-14 -3 -24 -8l-11 11l115 115l11 -12c-6 -10 -9 -17 -9 -24c0 -6 5 -16 12 -23l58 -58c50 26 110 39 176 39s124 -13 174 -40l59 59c6 6 11 17 11 23c0 7 -2 13 -8 24l11 12
l114 -115l-11 -11c-10 6 -17 8 -24 8c-6 0 -17 -5 -23 -11l-49 -50c35 -50 53 -111 53 -184s-17 -132 -54 -184zM383 515c-101 0 -174 -76 -174 -182s73 -182 175 -182c100 0 174 76 174 180c0 109 -72 184 -175 184z" />
    <glyph glyph-name="quotesingle" unicode="'" horiz-adv-x="278" 
d="M47 667h184v-14c-22 -4 -25 -8 -29 -39l-32 -170c-1 -5 -1 -11 -1 -16c0 -25 3 -29 28 -36v-14h-115v14c24 7 27 11 27 36c0 8 0 12 -1 16l-32 170c-4 31 -6 35 -29 39v14z" />
    <glyph glyph-name="quotedblleft" unicode="&#x201c;" horiz-adv-x="540" 
d="M186 679l24 -32c-51 -32 -75 -65 -83 -116c18 5 26 6 35 6c43 0 71 -32 71 -81c0 -48 -29 -79 -72 -79c-53 0 -88 46 -88 114c0 71 38 134 113 188zM420 679l23 -32c-51 -32 -74 -65 -82 -116c18 5 25 6 34 6c43 0 71 -32 71 -81c0 -48 -29 -79 -72 -79
c-53 0 -88 46 -88 114c0 71 38 134 114 188z" />
    <glyph glyph-name="guillemotleft" unicode="&#xab;" horiz-adv-x="487" 
d="M413 480l-95 -196l95 -197h-84l-95 197l95 196h84zM239 480l-96 -196l96 -197h-84l-95 197l95 196h84z" />
    <glyph glyph-name="guilsinglleft" unicode="&#x2039;" horiz-adv-x="312" 
d="M239 480l-96 -196l96 -197h-84l-95 197l95 196h84z" />
    <glyph glyph-name="guilsinglright" unicode="&#x203a;" horiz-adv-x="312" 
d="M73 480h84l95 -196l-95 -197h-84l96 197z" />
    <glyph glyph-name="endash" unicode="&#x2013;" horiz-adv-x="770" 
d="M728 356v-165h-16c-6 23 -13 29 -35 31h-583c-22 -2 -29 -8 -35 -31h-16v165h16c6 -23 13 -29 35 -31h583c22 2 29 8 35 31h16z" />
    <glyph glyph-name="dagger" unicode="&#x2020;" horiz-adv-x="539" 
d="M313 524h129c22 2 29 8 35 31h16v-154h-16c-6 23 -13 29 -35 31h-129l20 -448c1 -22 7 -29 31 -35v-16h-188v16c24 7 29 13 31 35l20 448h-129c-22 -2 -29 -8 -35 -31h-16v154h16c7 -26 15 -32 48 -31h116l-20 158c-2 22 -8 29 -31 35v16h188v-16c-11 -2 -19 -6 -24 -12
c-6 0 -13 -45 -27 -181z" />
    <glyph glyph-name="daggerdbl" unicode="&#x2021;" horiz-adv-x="539" 
d="M313 524h129c22 2 29 8 35 31h16v-154h-16c-6 23 -13 29 -35 31h-129l4 -198h125c22 2 29 8 35 31h16v-154h-16c-6 23 -13 29 -35 31h-125c8 -117 16 -182 23 -181c5 -6 13 -10 24 -12v-16h-188v16c23 6 29 13 31 35l16 158h-112c-33 1 -41 -5 -48 -31h-16v154h16
c6 -23 13 -29 35 -31h125l4 198h-129c-22 -2 -29 -8 -35 -31h-16v154h16c7 -26 15 -32 48 -31h116l-20 158c-2 22 -8 29 -31 35v16h188v-16c-11 -2 -19 -6 -24 -12c-6 0 -13 -45 -27 -181z" />
    <glyph glyph-name="periodcentered" unicode="&#xb7;" horiz-adv-x="307" 
d="M153 327c45 0 80 -35 80 -81c0 -43 -36 -79 -80 -79s-80 36 -80 80s36 80 80 80z" />
    <glyph glyph-name="paragraph" unicode="&#xb6;" horiz-adv-x="638" 
d="M313 310h-88c-40 0 -96 16 -125 36c-51 36 -80 89 -80 148c0 62 35 116 95 147c19 11 33 14 85 22c20 3 28 4 33 4h378v-16c-25 -6 -31 -14 -31 -42v-631c0 -28 6 -36 31 -42v-16h-124v687h-81v-687h-124v16c25 6 31 14 31 42v332z" />
    <glyph glyph-name="bullet" unicode="&#x2022;" horiz-adv-x="667" 
d="M335 479c75 0 136 -63 136 -139c0 -78 -61 -140 -137 -140s-138 62 -138 139c0 79 61 140 139 140z" />
    <glyph glyph-name="quotesinglbase" unicode="&#x201a;" horiz-adv-x="307" 
d="M120 -153l-24 31c52 33 74 65 83 116c-18 -5 -26 -6 -35 -6c-43 0 -71 32 -71 81c0 48 29 79 72 79c53 0 88 -46 88 -114c0 -71 -38 -134 -113 -187z" />
    <glyph glyph-name="quotedblbase" unicode="&#x201e;" horiz-adv-x="540" 
d="M120 -153l-24 31c52 33 74 65 83 116c-18 -5 -26 -6 -35 -6c-43 0 -71 32 -71 81c0 48 29 79 72 79c53 0 88 -46 88 -114c0 -71 -38 -134 -113 -187zM353 -153l-24 31c52 33 75 65 83 116c-18 -5 -26 -6 -35 -6c-42 0 -71 32 -71 81c0 48 29 79 72 79
c53 0 88 -46 88 -114c0 -71 -38 -134 -113 -187z" />
    <glyph glyph-name="quotedblright" unicode="&#x201d;" horiz-adv-x="540" 
d="M120 377l-24 31c52 33 74 65 83 116c-19 -4 -26 -5 -35 -5c-43 0 -71 32 -71 81c0 48 29 79 72 79c53 0 88 -46 88 -114c0 -72 -38 -135 -113 -188zM353 377l-24 31c52 33 75 65 83 116c-18 -4 -26 -5 -35 -5c-42 0 -71 32 -71 81c0 48 29 79 72 79c53 0 88 -46 88 -114
c0 -71 -38 -135 -113 -188z" />
    <glyph glyph-name="guillemotright" unicode="&#xbb;" horiz-adv-x="487" 
d="M73 480h84l95 -196l-95 -197h-84l96 197zM247 480h84l95 -196l-95 -197h-84l96 197z" />
    <glyph glyph-name="ellipsis" unicode="&#x2026;" horiz-adv-x="920" 
d="M153 148c45 0 80 -35 80 -81c0 -43 -36 -79 -80 -79s-80 36 -80 80s36 80 80 80zM460 148c45 0 80 -35 80 -81c0 -43 -36 -79 -80 -79s-80 36 -80 80s36 80 80 80zM766 148c45 0 80 -35 80 -81c0 -43 -36 -79 -80 -79s-80 36 -80 80s36 80 80 80z" />
    <glyph glyph-name="perthousand" unicode="&#x2030;" horiz-adv-x="1291" 
d="M203 673c103 0 171 -70 171 -175c0 -99 -71 -170 -171 -170s-170 71 -170 173c0 101 70 172 170 172zM203 603c-51 0 -86 -42 -86 -102c0 -61 35 -103 87 -103c50 0 86 42 86 101c0 62 -35 104 -87 104zM679 339c103 0 171 -70 171 -175c0 -99 -71 -170 -171 -170
s-170 71 -170 173c0 101 70 172 170 172zM679 269c-51 0 -86 -42 -86 -102c0 -61 35 -103 87 -103c50 0 86 42 86 101c0 62 -35 104 -87 104zM756 667v-16c-33 -5 -39 -9 -82 -69l-393 -508c-14 -19 -18 -25 -18 -33c0 -13 10 -21 30 -25v-16h-174v16c34 5 44 14 87 70
l385 496c17 21 22 31 22 40c0 13 -11 25 -30 29v16h173zM1087 339c102 0 170 -70 170 -175c0 -100 -70 -170 -170 -170c-101 0 -170 70 -170 173c0 101 69 172 170 172zM1087 269c-51 0 -86 -42 -86 -102c0 -61 35 -103 86 -103c50 0 86 42 86 101c0 62 -35 104 -86 104z
" />
    <glyph glyph-name="questiondown" unicode="&#xbf;" horiz-adv-x="488" 
d="M384 188l84 -123l-13 -9l-4 2c-8 5 -12 6 -16 6c-9 0 -18 -4 -42 -20c-62 -41 -104 -56 -159 -56c-103 0 -174 61 -174 148c0 51 23 94 87 156c44 43 53 61 53 100c0 17 -6 24 -28 29v16h160v-16c-26 -8 -31 -17 -37 -61c-8 -43 -14 -55 -55 -106
c-36 -46 -46 -65 -46 -92c0 -43 30 -71 76 -71c48 0 105 38 105 71c0 5 -1 8 -4 17zM244 679c44 0 80 -36 80 -80s-36 -80 -80 -80c-45 0 -80 36 -80 81c0 43 36 79 80 79z" />
    <glyph glyph-name="grave" unicode="`" 
d="M120 748h148v-13c-8 -1 -13 -4 -13 -10c0 -1 1 -5 2 -7l32 -78c7 -16 11 -18 26 -18v-13h-106v13h2c7 0 10 3 10 8c0 2 -1 5 -3 8l-69 84c-8 10 -13 12 -29 13v13z" />
    <glyph glyph-name="acute" unicode="&#xb4;" 
d="M380 748v-13c-16 -1 -21 -3 -29 -13l-69 -84c-2 -2 -3 -6 -3 -8c0 -5 4 -8 10 -8h2v-13h-106v13c15 0 19 2 26 18l32 78c1 3 2 6 2 7c0 6 -5 9 -14 10v13h149z" />
    <glyph glyph-name="circumflex" unicode="&#x2c6;" 
d="M206 608h-122v13c9 1 13 2 17 4c1 0 4 3 7 6c3 4 6 7 10 10l65 73c4 5 6 9 6 13c0 5 -5 8 -17 8v13h155v-13c-11 -1 -15 -4 -15 -9c0 -3 3 -8 8 -14l73 -81c7 -8 11 -9 22 -10v-13h-140v13c10 1 15 3 15 7c0 3 0 3 -7 12l-42 50l-45 -52c-2 -2 -4 -6 -4 -8
c0 -6 4 -8 14 -9v-13z" />
    <glyph glyph-name="tilde" unicode="&#x2dc;" 
d="M352 741l71 -65l-8 -10c-13 4 -14 4 -18 4c-5 0 -8 -2 -13 -8c-22 -31 -44 -45 -69 -45c-14 0 -25 2 -42 9l-72 28c-5 1 -15 3 -21 3c-14 0 -29 -13 -29 -24c0 -5 2 -8 8 -15l-9 -7l-73 68l7 8c8 -3 13 -4 17 -4c8 0 12 2 18 11c19 24 47 39 74 39c12 0 20 -2 32 -6
l73 -29c8 -3 17 -5 25 -5c13 0 27 13 27 24c0 5 -2 10 -8 17z" />
    <glyph glyph-name="macron" unicode="&#xaf;" 
d="M400 733v-127h-13c-9 22 -14 26 -36 27h-202c-22 -2 -26 -5 -36 -27h-13v127h13c9 -21 14 -25 36 -27h202c22 2 27 6 36 27h13z" />
    <glyph glyph-name="breve" unicode="&#x2d8;" 
d="M95 735v12h103v-12c-13 0 -15 -2 -15 -8c0 -28 30 -51 67 -51s67 23 67 51c0 6 -2 8 -14 8v12h103v-12c-11 -1 -14 -3 -14 -11c-3 -69 -61 -117 -142 -117s-138 48 -141 117c-1 8 -4 10 -14 11z" />
    <glyph glyph-name="dotaccent" unicode="&#x2d9;" 
d="M249 737c36 0 64 -28 64 -65c0 -34 -29 -62 -64 -62s-63 28 -63 63s28 64 63 64z" />
    <glyph glyph-name="dieresis" unicode="&#xa8;" 
d="M152 737c36 0 64 -28 64 -65c0 -34 -29 -62 -64 -62s-63 28 -63 63s28 64 63 64zM346 737c36 0 64 -28 64 -63c0 -36 -28 -64 -65 -64c-34 0 -62 29 -62 64s28 63 63 63z" />
    <glyph glyph-name="ring" unicode="&#x2da;" 
d="M249 772c64 0 112 -40 112 -92c0 -51 -50 -92 -112 -92c-61 0 -111 42 -111 93s49 91 111 91zM249 721c-28 0 -49 -17 -49 -41c0 -23 22 -41 50 -41c27 0 49 18 49 41c0 24 -21 41 -50 41z" />
    <glyph glyph-name="cedilla" unicode="&#xb8;" 
d="M185 -109l26 48c8 14 8 14 19 14c82 0 129 -28 129 -77s-46 -81 -118 -81c-37 0 -73 5 -99 14l11 23c21 -6 33 -8 50 -8c42 0 69 16 69 41c0 19 -16 34 -35 34c-14 0 -27 -6 -38 -17z" />
    <glyph glyph-name="hungarumlaut" unicode="&#x2dd;" 
d="M303 748v-13c-15 -1 -21 -3 -29 -13l-69 -84c-2 -3 -3 -6 -3 -8c0 -5 4 -8 11 -8h2v-13h-102v13c15 0 19 2 26 18l32 78c1 3 2 6 2 7c0 6 -5 9 -14 10v13h144zM487 748v-13c-16 -1 -21 -3 -29 -13l-69 -84c-2 -2 -3 -6 -3 -8c0 -5 4 -8 10 -8h2v-13h-102v13
c15 0 19 2 26 18l33 78c2 5 2 6 2 7c0 6 -5 9 -14 10v13h144z" />
    <glyph glyph-name="ogonek" unicode="&#x2db;" 
d="M453 0h62c-35 -27 -55 -57 -55 -84c0 -31 24 -50 64 -50c8 0 19 2 36 5l7 -21c-34 -10 -48 -12 -80 -12c-73 0 -114 27 -114 74c0 23 11 44 31 59c11 8 18 13 49 29z" />
    <glyph glyph-name="caron" unicode="&#x2c7;" 
d="M293 748h122v-13c-9 -1 -13 -2 -16 -4c-2 0 -5 -3 -8 -6c-3 -4 -6 -7 -9 -10l-66 -73c-3 -4 -5 -9 -5 -13c0 -5 5 -8 16 -8v-13h-154v13c11 1 15 4 15 9c0 3 -2 7 -8 14l-74 81c-7 8 -10 9 -22 10v13h140v-13c-10 -1 -15 -3 -15 -7c0 -2 3 -6 8 -12l41 -50l45 52
c4 3 5 6 5 8c0 6 -4 8 -15 9v13z" />
    <glyph glyph-name="emdash" unicode="&#x2014;" horiz-adv-x="665" 
d="M665 356v-165h-16c-6 23 -13 29 -35 31h-563c-22 -2 -29 -8 -35 -31h-16v165h16c6 -23 13 -29 35 -31h563c22 2 29 8 35 31h16z" />
    <glyph glyph-name="AE" unicode="&#xc6;" horiz-adv-x="1163" 
d="M495 170h-239l-55 -94c-7 -12 -12 -26 -12 -33c0 -13 9 -22 29 -27v-16h-231v16c27 5 38 14 59 51l295 513c11 19 16 32 16 42c0 14 -9 22 -29 29v16h728c23 2 30 8 36 31h16v-172h-16c-7 23 -13 29 -36 31h-416v-159h270c21 1 29 8 35 32h16v-169h-16
c-6 23 -13 29 -35 31h-270v-182h428c22 2 30 8 36 31h16v-172h-16c-7 23 -14 29 -36 31h-605v16c23 6 30 13 32 35v119zM495 261v296h-22l-164 -296h186z" />
    <glyph glyph-name="ordfeminine" unicode="&#xaa;" horiz-adv-x="511" 
d="M94 653l14 9c4 -3 7 -5 9 -5c1 0 3 1 6 2c25 12 70 20 112 20c96 0 157 -41 157 -105v-147c0 -12 5 -15 24 -18v-13h-83v31c-28 -30 -50 -39 -91 -39c-81 0 -144 44 -144 100s63 99 145 99c41 0 62 -8 90 -35v26c0 35 -39 58 -97 58c-42 0 -93 -12 -93 -21
c0 -1 1 -4 4 -11l-13 -8zM250 540c-56 0 -94 -22 -94 -55c0 -28 41 -50 92 -50c48 0 85 22 85 50c0 32 -34 55 -83 55zM414 376v-125h-12c-5 23 -10 29 -26 31h-245c-16 -2 -21 -8 -26 -31h-11v125h11c5 -23 10 -29 26 -31h245c16 2 21 8 26 31h12z" />
    <glyph glyph-name="Lslash" unicode="&#x141;" horiz-adv-x="708" 
d="M85 219l-38 -26l-6 -5c-15 -10 -19 -17 -22 -43h-17v173h16c2 -14 7 -21 14 -21c5 0 13 4 26 14c7 5 10 8 10 8l17 12v283c-2 22 -8 29 -31 35v16h207v-16c-23 -6 -30 -13 -31 -35v-215l145 98l6 5c17 11 20 18 23 43h17v-174h-17c-2 14 -6 23 -12 23
c-2 0 -14 -8 -38 -24l-124 -82v-179h411c21 1 29 8 35 31h16v-172h-16c-6 23 -13 29 -35 31h-587v16c23 6 29 13 31 35v169z" />
    <glyph glyph-name="Oslash" unicode="&#xd8;" horiz-adv-x="856" 
d="M608 733h195v-19c-34 -6 -43 -15 -93 -82l-24 -32c82 -70 125 -160 125 -267c0 -96 -39 -187 -108 -250c-69 -65 -158 -95 -275 -95c-72 0 -116 8 -180 33l-17 -22c-9 -12 -12 -19 -12 -26c0 -13 10 -20 29 -21v-19h-195v19c34 7 50 21 98 85l22 29
c-85 70 -128 160 -128 268c0 96 39 187 108 251s157 94 276 94c74 0 117 -8 182 -33l16 21c5 7 9 16 9 22c0 14 -9 23 -28 25v19zM604 492l-279 -370c37 -16 63 -21 102 -21c138 0 235 96 235 232c0 62 -19 114 -58 159zM254 173l280 371c-27 14 -67 22 -108 22
c-134 0 -232 -97 -232 -232c0 -63 19 -113 60 -161z" />
    <glyph glyph-name="OE" unicode="&#x152;" horiz-adv-x="1189" 
d="M666 292v-182h429c21 1 29 8 35 31h16v-172h-16c-6 23 -13 29 -35 31h-574c-2 0 -14 0 -26 -1c-36 -2 -65 -3 -76 -3c-217 0 -374 141 -374 337c0 198 157 338 377 338l99 -4h562c22 2 29 8 35 31h16v-172h-16c-6 23 -13 30 -35 31h-417v-159h271c22 1 29 8 35 32h16
v-169h-16c-6 23 -13 29 -35 31h-271zM521 110v447c-31 4 -54 6 -81 6c-80 0 -138 -20 -181 -62c-42 -41 -65 -100 -65 -168c0 -141 93 -228 244 -228c26 0 48 1 83 5z" />
    <glyph glyph-name="ordmasculine" unicode="&#xba;" horiz-adv-x="511" 
d="M255 679c94 0 156 -56 156 -141c0 -81 -64 -137 -156 -137c-93 0 -156 56 -156 139c0 82 63 139 156 139zM255 624c-51 0 -87 -35 -87 -84s37 -84 87 -84s87 35 87 83c0 50 -36 85 -87 85zM415 376v-125h-12c-5 23 -10 29 -26 31h-245c-16 -2 -21 -8 -26 -31h-11v125h11
c5 -23 10 -29 26 -31h245c16 2 21 8 26 31h12z" />
    <glyph glyph-name="ae" unicode="&#xe6;" horiz-adv-x="1020" 
d="M465 137h-198l-38 -63c-9 -15 -14 -26 -14 -33c0 -14 10 -24 28 -28v-13h-215v13c26 5 35 12 55 44l244 404c11 18 18 35 18 44c0 13 -7 20 -28 28v14h611c22 1 31 8 37 31h13v-162h-13c-7 24 -14 30 -37 32h-332v-120h206c23 2 30 8 37 31h13v-158h-13
c-7 24 -14 30 -37 32h-206v-134h347c23 2 30 8 37 32h13v-162h-13c-7 23 -14 29 -37 31h-509v13c21 5 30 16 31 37v87zM465 214v234h-16l-135 -234h151z" />
    <glyph glyph-name="dotlessi" unicode="&#x131;" horiz-adv-x="289" 
d="M48 547h193v-14c-23 -6 -29 -13 -31 -36v-447c2 -23 8 -30 31 -37v-13h-193v13c23 7 29 14 31 37v447c-2 23 -7 29 -31 36v14z" />
    <glyph glyph-name="lslash" unicode="&#x142;" horiz-adv-x="578" 
d="M84 178l-40 -28c-19 -13 -20 -16 -24 -38h-13v145h13c2 -11 5 -16 11 -16c5 0 5 0 26 14l27 20v222c-2 23 -8 30 -31 36l-1 14h194v-14c-23 -6 -29 -13 -31 -36v-157l117 78c17 12 20 18 23 38h13v-147h-13c-2 11 -5 17 -11 17c-4 0 -17 -7 -37 -21l-92 -62v-144h305
c23 2 30 8 37 31h13v-161h-13c-7 23 -14 29 -37 31h-468v13c24 7 30 14 32 37v128z" />
    <glyph glyph-name="oslash" unicode="&#xf8;" horiz-adv-x="713" 
d="M489 607h180v-12c-31 0 -37 -4 -82 -65l-23 -31c75 -53 113 -129 113 -226c0 -170 -130 -285 -321 -285c-54 0 -89 6 -142 25l-8 -10c-8 -12 -11 -18 -11 -25c0 -14 10 -23 29 -26v-12h-180v12c32 8 41 15 83 69l20 28c-79 66 -111 130 -111 224c0 171 130 286 322 286
c54 0 90 -7 144 -26c12 15 17 25 17 33c0 13 -12 25 -30 29v12zM494 401l-213 -295c28 -11 46 -15 74 -15c111 0 189 76 189 182c0 51 -16 92 -50 128zM219 146l216 295c-27 11 -44 15 -74 15c-113 0 -192 -75 -192 -182c0 -50 16 -91 50 -128z" />
    <glyph glyph-name="oe" unicode="&#x153;" horiz-adv-x="980" 
d="M556 233v-134h347c22 2 29 8 36 32h13v-162h-13c-7 23 -14 29 -36 31h-479c-4 0 -13 0 -22 -1l-23 -2c-12 -1 -26 -1 -37 -1c-82 0 -153 21 -207 62c-67 51 -107 132 -107 216c0 161 132 277 314 277l82 -4h465c22 1 30 8 37 31h13v-162h-13c-7 24 -14 30 -37 32h-333
v-120h205c23 2 30 8 37 31h13v-158h-13c-7 24 -14 30 -37 32h-205zM425 99v349c-24 4 -43 5 -69 5c-60 0 -102 -14 -137 -45c-37 -34 -58 -82 -58 -134c0 -53 21 -101 58 -135c34 -31 77 -45 137 -45c24 0 43 1 69 5z" />
    <glyph glyph-name="germandbls" unicode="&#xdf;" horiz-adv-x="1232" 
d="M574 498l-66 -128l-12 7v5c0 36 -108 78 -202 78c-80 0 -137 -29 -137 -68c0 -33 27 -44 124 -51l77 -6c73 -6 115 -16 154 -39c45 -27 72 -76 72 -129c0 -111 -103 -179 -269 -179c-88 0 -159 16 -239 52c-5 3 -10 4 -14 4c-7 0 -12 -3 -18 -12l-12 5l56 134l13 -5
c-1 -2 -1 -3 -1 -4c0 -8 4 -16 10 -21c32 -29 125 -54 203 -54c87 0 144 26 144 66c0 20 -13 36 -35 43c-19 7 -36 9 -85 13l-77 7c-83 7 -119 15 -152 36c-41 26 -66 73 -66 127c0 109 99 180 251 180c75 0 131 -14 221 -57c15 -7 22 -9 28 -9s10 2 20 11zM1190 498
l-66 -128l-12 7v5c0 36 -108 78 -202 78c-80 0 -137 -29 -137 -68c0 -33 27 -44 124 -51l76 -6c74 -6 116 -16 155 -39c45 -27 72 -76 72 -129c0 -111 -103 -179 -270 -179c-87 0 -158 16 -239 52c-4 3 -10 4 -13 4c-7 0 -12 -3 -18 -12l-12 5l56 134l12 -5v-4
c0 -8 4 -16 10 -21c32 -29 125 -54 203 -54c87 0 144 26 144 66c0 20 -13 36 -35 43c-19 7 -36 9 -85 13l-77 7c-83 7 -119 15 -152 36c-41 26 -66 73 -66 127c0 109 99 180 251 180c75 0 131 -14 221 -57c14 -7 22 -9 28 -9s10 2 19 11z" />
    <glyph glyph-name="onesuperior" unicode="&#xb9;" horiz-adv-x="473" 
d="M143 518v112h16c3 -13 6 -18 13 -18c2 0 2 0 9 2l24 5v15c-1 11 -4 14 -20 18v15h137v-15c-16 -4 -19 -7 -20 -18v-334c1 -11 4 -14 20 -18v-15h-137v15c16 4 19 7 20 18v245l-25 -5c-15 -5 -17 -7 -21 -22h-16z" />
    <glyph glyph-name="logicalnot" unicode="&#xac;" 
d="M328 0v165h-295v124h433v-289h-138z" />
    <glyph glyph-name="mu" unicode="&#xb5;" horiz-adv-x="480" 
d="M504 54v-20l-128 -45c-2 -1 -4 -1 -6 -1c-12 0 -27 8 -35 18s-10 15 -22 52c-55 -59 -79 -73 -127 -73c-55 0 -82 21 -108 83v-15c0 -41 3 -55 31 -141c7 -23 11 -41 11 -51c0 -33 -26 -57 -62 -57c-39 0 -65 23 -65 58c0 13 4 40 9 65c19 89 30 209 31 316v214h131v-287
c0 -52 5 -81 15 -100c8 -14 27 -24 45 -24c27 0 49 15 80 54v357h131v-325c0 -67 8 -83 41 -83c9 0 17 1 28 5z" />
    <glyph glyph-name="trademark" unicode="&#x2122;" horiz-adv-x="1017" 
d="M258 599v-280c1 -11 4 -14 19 -17v-15h-135v15c15 3 18 6 19 17v280h-125c-13 -1 -15 -3 -19 -17h-16v103h15c5 -15 7 -17 20 -18h347c13 1 15 4 19 18h16v-103h-16c-4 13 -6 16 -19 17h-125zM710 289l-149 247v-217c1 -11 4 -14 19 -17v-15h-127v15c15 3 18 6 19 17v316
c-1 11 -4 14 -19 17v15h165v-15c-10 -2 -14 -6 -14 -12c0 -3 1 -7 4 -11l109 -183l111 180c7 10 8 13 8 16c0 7 -5 10 -16 10v15h163v-15c-15 -3 -18 -6 -19 -17v-316c1 -11 4 -14 19 -17v-15h-135v15c15 3 18 6 19 17v218z" />
    <glyph glyph-name="Eth" unicode="&#xd0;" horiz-adv-x="838" 
d="M60 0v16c23 6 29 13 31 35v245h-32c-22 -2 -29 -8 -35 -31h-16v160h16c6 -24 13 -30 35 -32h32v223c-2 22 -8 29 -31 35v16h372c124 0 197 -20 256 -71c70 -59 106 -149 106 -263c0 -113 -36 -203 -106 -262c-60 -51 -133 -71 -256 -71h-372zM236 393h150
c22 2 29 8 35 32h16v-160h-16c-6 23 -13 29 -35 31h-150v-186h184c88 0 137 16 174 58c35 40 51 91 51 165s-16 126 -51 165c-37 42 -86 59 -174 59h-184v-164z" />
    <glyph glyph-name="onehalf" unicode="&#xbd;" horiz-adv-x="1234" 
d="M143 518v112h16l2 -7c3 -8 5 -11 11 -11c2 0 2 0 9 2l24 5v15c-1 11 -4 14 -20 18v15h137v-15c-16 -4 -19 -7 -20 -18v-334c1 -11 4 -14 20 -18v-15h-137v15c16 4 19 7 20 18v245l-25 -5c-15 -5 -17 -7 -21 -22h-16zM894 667v-16c-33 -5 -34 -6 -72 -69l-302 -508
c-8 -14 -12 -23 -12 -30c0 -15 14 -25 37 -28v-16h-205v16c33 5 42 14 75 70l297 496c10 16 15 28 15 36c0 16 -16 30 -38 33v16h205zM913 78h254c13 1 16 4 20 18h16v-114h-16c-4 14 -7 17 -20 18h-332c-20 1 -24 -2 -28 -18h-16v21c0 46 8 72 31 101c28 36 57 56 133 88
l53 22c49 20 68 40 68 69c0 32 -25 50 -72 50c-57 0 -119 -30 -119 -57c0 -3 1 -6 5 -19l-11 -10l-88 87l12 10c12 -4 14 -5 18 -5c6 0 7 1 22 13c45 36 105 55 172 55c99 0 163 -49 163 -125c0 -61 -36 -102 -119 -136l-48 -20c-3 -2 -18 -7 -34 -13
c-41 -16 -53 -22 -64 -35z" />
    <glyph glyph-name="plusminus" unicode="&#xb1;" horiz-adv-x="767" 
d="M335 285h-174c-20 -2 -27 -8 -33 -31h-14v158h14c6 -23 13 -29 33 -31h174v174c-2 20 -8 27 -31 33v14h158v-14c-23 -6 -29 -13 -31 -33v-174h174c20 2 27 8 33 31h14v-158h-14c-6 23 -13 29 -33 31h-174v-140c2 -20 8 -27 31 -33v-14h-158v14c23 6 29 13 31 33v140z
M114 -92v158h14c6 -23 13 -29 33 -31h444c20 2 27 8 33 31h14v-158h-14c-6 23 -13 29 -33 31h-444c-20 -2 -27 -8 -33 -31h-14z" />
    <glyph glyph-name="Thorn" unicode="&#xde;" horiz-adv-x="715" 
d="M236 567h189c97 0 148 -11 191 -43c45 -34 72 -92 72 -155c0 -64 -27 -122 -72 -155c-43 -32 -95 -44 -191 -44h-189v-119c1 -22 8 -29 31 -35v-16h-207v16c23 6 29 13 31 35v565c-2 22 -8 29 -31 35v16h207v-16c-23 -6 -29 -13 -31 -35v-49zM236 280h176
c50 0 72 3 93 14c23 13 38 42 38 75c0 32 -15 61 -38 74c-21 11 -42 14 -93 14h-176v-177z" />
    <glyph glyph-name="onequarter" unicode="&#xbc;" horiz-adv-x="1234" 
d="M143 518v112h16l2 -7c3 -8 5 -11 11 -11c2 0 2 0 9 2l24 5v15c-1 11 -4 14 -20 18v15h137v-15c-16 -4 -19 -7 -20 -18v-334c1 -11 4 -14 20 -18v-15h-137v15c16 4 19 7 20 18v245l-25 -5c-15 -5 -17 -7 -21 -22h-16zM894 667v-16c-33 -5 -34 -6 -72 -69l-302 -508
c-8 -14 -12 -23 -12 -30c0 -15 14 -25 37 -28v-16h-205v16c33 5 42 14 75 70l297 496c10 16 15 28 15 36c0 16 -16 30 -38 33v16h205zM1060 66h-221c-22 1 -26 -2 -29 -18h-16v87l212 221c9 10 13 15 13 19c0 5 -4 8 -16 9v16h174v-15c-16 -4 -19 -7 -20 -19v-229h20
c13 1 16 4 20 19h16v-108h-16c-4 14 -7 17 -20 18h-20v-33c1 -11 4 -14 20 -18v-15h-137v15c16 4 19 6 20 18v33zM1060 137v161l-153 -161h153z" />
    <glyph glyph-name="divide" unicode="&#xf7;" horiz-adv-x="767" 
d="M114 254v158h14c6 -23 13 -29 33 -31h444c20 2 27 8 33 31h14v-158h-14c-6 23 -13 29 -33 31h-444c-20 -2 -27 -8 -33 -31h-14zM383 208c45 0 80 -35 80 -81c0 -43 -36 -79 -80 -79s-80 36 -80 80s36 80 80 80zM383 618c45 0 80 -35 80 -81c0 -43 -36 -79 -80 -79
s-80 36 -80 80s36 80 80 80z" />
    <glyph glyph-name="brokenbar" unicode="&#xa6;" 
d="M179 667h142v-350h-142v350zM179 153h142v-320h-142v320z" />
    <glyph glyph-name="degree" unicode="&#xb0;" horiz-adv-x="461" 
d="M231 686c88 0 157 -70 157 -159c0 -86 -71 -156 -157 -156c-87 0 -158 70 -158 157s70 158 158 158zM229 629c-52 0 -97 -46 -97 -100c0 -55 44 -101 98 -101c53 0 99 45 99 98c0 57 -44 103 -100 103z" />
    <glyph glyph-name="thorn" unicode="&#xfe;" horiz-adv-x="605" 
d="M210 460h144c73 0 123 -10 160 -32c42 -24 66 -72 66 -129c0 -109 -73 -161 -226 -161h-144v-88c2 -23 8 -30 31 -37v-13h-193v13c23 8 29 14 31 37v447c-2 23 -7 29 -31 36v14h193v-14c-23 -6 -29 -13 -31 -36v-37zM210 237h140c40 0 55 2 71 10c18 9 29 28 29 52
s-11 43 -29 52c-16 8 -29 10 -71 10h-140v-124z" />
    <glyph glyph-name="threequarters" unicode="&#xbe;" horiz-adv-x="1234" 
d="M28 615l12 9c11 -4 14 -5 18 -5s8 1 15 6c53 33 111 49 177 49c106 0 174 -46 174 -117c0 -33 -18 -62 -49 -80c43 -16 66 -46 66 -87c0 -80 -76 -130 -198 -130c-59 0 -106 9 -156 31c-22 10 -30 13 -36 13s-9 -2 -21 -11l-13 6l52 112l15 -6c-1 -3 -2 -5 -2 -8
c0 -32 79 -63 160 -63c61 0 99 21 99 55c0 35 -32 53 -96 53c-40 0 -49 -4 -53 -20h-16v103h16c5 -18 11 -21 53 -21c54 0 87 18 87 48c0 31 -32 48 -90 48c-62 0 -130 -25 -130 -49c0 -4 1 -7 5 -13l-13 -10zM894 667v-16c-34 -5 -34 -6 -73 -69l-301 -508
c-10 -16 -13 -23 -13 -30c0 -15 14 -26 38 -28v-16h-206v16c33 5 42 14 75 70l298 496c10 18 15 29 15 36c0 16 -16 30 -38 33v16h205zM1060 66h-222c-22 1 -26 -2 -29 -18h-16v87l213 221c10 10 13 15 13 19c0 5 -4 8 -16 9v16h174v-15c-16 -4 -19 -7 -20 -19v-229h20
c13 1 16 4 20 19h16v-108h-16c-4 14 -7 17 -20 18h-20v-33c1 -11 4 -14 20 -18v-15h-137v15c16 4 19 6 20 18v33zM1060 137v161l-154 -161h154z" />
    <glyph glyph-name="twosuperior" unicode="&#xb2;" horiz-adv-x="473" 
d="M153 344h254c13 1 16 4 20 18h16v-114h-16c-4 14 -7 17 -20 18h-332c-20 1 -24 -2 -28 -18h-16v21c0 46 8 72 31 101c28 36 58 56 133 88l53 22c48 20 68 41 68 70c0 32 -25 50 -72 50c-57 0 -119 -30 -119 -58c0 -3 1 -6 5 -19l-11 -10l-88 88l12 10c11 -5 14 -6 18 -6
c6 0 7 1 22 13c46 37 105 56 172 56c99 0 163 -49 163 -126c0 -60 -36 -102 -119 -136l-48 -20c-2 -1 -18 -7 -34 -13c-41 -16 -53 -22 -64 -35z" />
    <glyph glyph-name="registered" unicode="&#xae;" horiz-adv-x="888" 
d="M346 293v-127c1 -11 4 -14 18 -18v-15h-129v15c15 4 18 6 19 18v333c-1 13 -4 15 -19 19v15h249c61 0 93 -6 120 -24c29 -19 46 -55 46 -97c0 -63 -37 -104 -105 -115l74 -104c28 -40 33 -44 53 -44v-16h-149v15c9 2 14 4 14 8s-3 9 -13 23l-78 114h-100zM346 365h129
c39 0 50 1 63 8c12 7 20 22 20 40s-8 33 -20 40c-13 7 -24 8 -63 8h-129v-96zM442 679c118 0 212 -31 284 -92c75 -64 116 -155 116 -258c0 -93 -44 -187 -116 -249c-71 -61 -167 -92 -283 -92c-115 0 -211 31 -282 92c-74 64 -116 156 -116 254c0 97 43 192 116 253
s168 92 281 92zM442 622c-197 0 -328 -115 -328 -288c0 -80 28 -148 83 -201c60 -59 141 -87 246 -87c106 0 187 28 247 87c54 52 83 121 83 197c0 178 -129 292 -331 292z" />
    <glyph glyph-name="minus" unicode="&#x2212;" horiz-adv-x="767" 
d="M114 254v158h14c6 -23 13 -29 33 -31h444c20 2 27 8 33 31h14v-158h-14c-6 23 -13 29 -33 31h-444c-20 -2 -27 -8 -33 -31h-14z" />
    <glyph glyph-name="eth" unicode="&#xf0;" horiz-adv-x="714" 
d="M58 0v13c24 7 30 14 32 37v196h-26c-22 -2 -29 -8 -35 -32h-16v146h16c6 -23 13 -29 35 -31h26v168c-2 23 -8 30 -31 37l-1 13h321c102 0 166 -18 216 -61c55 -47 84 -120 84 -212s-28 -164 -84 -213c-49 -43 -113 -61 -216 -61h-321zM221 329h102c22 2 29 8 35 31h16
v-146h-16c-6 24 -13 30 -35 32h-102v-147h139c68 0 110 13 141 44c30 31 45 75 45 131s-15 99 -45 130c-31 31 -73 44 -141 44h-139v-119z" />
    <glyph glyph-name="multiply" unicode="&#xd7;" horiz-adv-x="767" 
d="M383 266l-135 -135c-6 -6 -10 -15 -10 -21s3 -13 9 -24l-10 -11l-112 112l10 11c11 -7 18 -10 25 -10c5 0 15 5 20 10l135 135l-135 135c-5 5 -15 10 -20 10c-7 0 -13 -2 -25 -9l-10 10l112 112l10 -10c-6 -11 -9 -18 -9 -24s4 -16 10 -21l135 -135l135 135
c5 5 10 15 10 21s-2 13 -9 24l10 10l112 -112l-10 -10c-12 7 -18 9 -25 9c-6 0 -15 -5 -20 -10l-135 -135l135 -135c6 -6 14 -10 20 -10c7 0 13 2 25 10l10 -11l-112 -112l-10 11c6 10 9 17 9 24c0 6 -5 15 -10 21z" />
    <glyph glyph-name="threesuperior" unicode="&#xb3;" horiz-adv-x="473" 
d="M28 615l12 9c11 -4 14 -5 18 -5s8 1 15 6c53 33 111 49 177 49c106 0 174 -46 174 -117c0 -33 -18 -62 -49 -80c43 -16 66 -46 66 -87c0 -80 -76 -130 -198 -130c-59 0 -106 9 -156 31c-22 10 -30 13 -36 13s-9 -2 -21 -11l-13 6l52 112l15 -6c-1 -3 -2 -5 -2 -8
c0 -32 79 -63 160 -63c61 0 99 21 99 55c0 35 -32 53 -96 53c-40 0 -49 -4 -53 -20h-16v103h16c5 -18 11 -21 53 -21c54 0 87 18 87 48c0 31 -32 48 -90 48c-62 0 -130 -25 -130 -49c0 -4 1 -7 5 -13l-13 -10z" />
    <glyph glyph-name="copyright" unicode="&#xa9;" horiz-adv-x="883" 
d="M605 277l58 -88l-12 -9c-6 7 -9 9 -13 9s-5 -1 -27 -13c-64 -37 -104 -49 -165 -49c-141 0 -235 83 -235 207s94 207 235 207c59 0 98 -11 155 -44l10 -6c22 -12 23 -13 27 -13s6 2 13 9l12 -9l-58 -87l-12 8c1 4 1 8 1 10c0 9 -8 17 -31 30c-35 19 -67 28 -106 28
c-92 0 -152 -53 -152 -133s60 -133 152 -133c39 0 70 8 106 28c23 13 31 21 31 30c0 2 0 6 -1 9zM442 679c118 0 212 -31 284 -92c75 -64 116 -155 116 -258c0 -93 -44 -187 -116 -249c-71 -61 -167 -92 -283 -92c-115 0 -211 31 -282 92c-74 64 -116 156 -116 254
c0 97 43 192 116 253s168 92 281 92zM442 622c-197 0 -328 -115 -328 -288c0 -80 28 -148 83 -201c60 -59 141 -87 246 -87c106 0 187 28 247 87c54 52 83 121 83 197c0 178 -129 292 -331 292z" />
    <glyph glyph-name="Aacute" unicode="&#xc1;" horiz-adv-x="813" 
d="M540 862v-13c-15 -1 -20 -3 -28 -14l-69 -84c-3 -3 -4 -6 -4 -8c0 -5 4 -8 11 -8h2v-13h-106v13c15 0 18 2 25 18l33 79c1 4 2 6 2 7c0 5 -5 9 -14 10v13h148zM548 170h-303l-45 -94c-5 -12 -9 -24 -9 -31c0 -14 11 -24 32 -29v-16h-220v16c25 4 33 12 53 51l245 513
c8 16 12 29 12 39c0 15 -9 26 -28 32v16h236v-16c-17 -5 -29 -15 -29 -26c0 -10 6 -29 17 -50l247 -499c24 -46 34 -56 60 -60v-16h-245v16c21 3 32 13 32 30c0 8 -3 17 -9 30zM506 261l-108 238l-110 -238h218z" />
    <glyph glyph-name="Acircumflex" unicode="&#xc2;" horiz-adv-x="813" 
d="M359 722h-122v13c10 1 14 2 17 4c1 0 4 3 7 6c3 4 7 7 10 10l66 73c3 4 5 9 5 13c0 5 -5 8 -16 8v13h154v-13c-11 -1 -15 -4 -15 -9c0 -4 2 -7 8 -14l73 -81c7 -8 11 -9 23 -10v-13h-140v13c10 1 15 3 15 7c0 2 -3 5 -8 12l-41 50l-46 -52c-3 -3 -4 -6 -4 -8
c0 -6 4 -8 14 -9v-13zM548 170h-303l-45 -94c-5 -12 -9 -24 -9 -31c0 -14 11 -24 32 -29v-16h-220v16c25 4 33 12 53 51l245 513c8 16 12 29 12 39c0 15 -9 26 -28 32v16h236v-16c-17 -5 -29 -15 -29 -26c0 -10 6 -29 17 -50l247 -499c24 -46 34 -56 60 -60v-16h-245v16
c21 3 32 13 32 30c0 8 -3 17 -9 30zM506 261l-108 238l-110 -238h218z" />
    <glyph glyph-name="Adieresis" unicode="&#xc4;" horiz-adv-x="813" 
d="M305 850c36 0 64 -28 64 -65c0 -34 -29 -62 -64 -62s-63 28 -63 63s28 64 63 64zM499 850c36 0 64 -28 64 -63c0 -36 -28 -64 -65 -64c-34 0 -62 29 -62 64s28 63 63 63zM548 170h-303l-45 -94c-5 -12 -9 -24 -9 -31c0 -14 11 -24 32 -29v-16h-220v16c25 4 33 12 53 51
l245 513c8 16 12 29 12 39c0 15 -9 26 -28 32v16h236v-16c-17 -5 -29 -15 -29 -26c0 -10 6 -29 17 -50l247 -499c24 -46 34 -56 60 -60v-16h-245v16c21 3 32 13 32 30c0 8 -3 17 -9 30zM506 261l-108 238l-110 -238h218z" />
    <glyph glyph-name="Agrave" unicode="&#xc0;" horiz-adv-x="813" 
d="M265 862h148v-13c-9 -1 -14 -4 -14 -10c0 -1 0 -1 2 -7l33 -79c7 -16 11 -18 26 -18v-13h-106v13h2c7 0 10 3 10 8c0 2 -1 5 -3 8l-69 84c-8 11 -14 13 -29 14v13zM548 170h-303l-45 -94c-5 -12 -9 -24 -9 -31c0 -14 11 -24 32 -29v-16h-220v16c25 4 33 12 53 51l245 513
c8 16 12 29 12 39c0 15 -9 26 -28 32v16h236v-16c-17 -5 -29 -15 -29 -26c0 -10 6 -29 17 -50l247 -499c24 -46 34 -56 60 -60v-16h-245v16c21 3 32 13 32 30c0 8 -3 17 -9 30zM506 261l-108 238l-110 -238h218z" />
    <glyph glyph-name="Aring" unicode="&#xc5;" horiz-adv-x="813" 
d="M403 885c64 0 112 -40 112 -92c0 -50 -50 -91 -112 -91c-61 0 -112 42 -112 92c0 51 49 91 112 91zM403 834c-29 0 -50 -17 -50 -40s22 -41 50 -41c27 0 50 18 50 40c0 24 -21 41 -50 41zM548 170h-303l-45 -94c-5 -12 -9 -24 -9 -31c0 -14 11 -24 32 -29v-16h-220v16
c25 4 33 12 53 51l245 513c8 16 12 29 12 39c0 15 -9 26 -28 32v16h236v-16c-17 -5 -29 -15 -29 -26c0 -10 6 -29 17 -50l247 -499c24 -46 34 -56 60 -60v-16h-245v16c21 3 32 13 32 30c0 8 -3 17 -9 30zM506 261l-108 238l-110 -238h218z" />
    <glyph glyph-name="Atilde" unicode="&#xc3;" horiz-adv-x="813" 
d="M508 854l71 -65l-7 -10c-14 4 -15 4 -18 4c-5 0 -9 -2 -13 -8c-23 -31 -44 -45 -70 -45c-13 0 -24 2 -41 9l-73 28c-5 1 -14 3 -21 3c-13 0 -28 -13 -28 -24c0 -5 2 -8 7 -15l-9 -7l-72 68l6 8c8 -3 13 -4 17 -4c8 0 12 2 19 11c18 24 46 39 74 39c11 0 20 -2 32 -6
l72 -29c8 -3 18 -5 26 -5c13 0 27 13 27 24c0 5 -2 10 -9 17zM548 170h-303l-45 -94c-5 -12 -9 -24 -9 -31c0 -14 11 -24 32 -29v-16h-220v16c25 4 33 12 53 51l245 513c8 16 12 29 12 39c0 15 -9 26 -28 32v16h236v-16c-17 -5 -29 -15 -29 -26c0 -10 6 -29 17 -50l247 -499
c24 -46 34 -56 60 -60v-16h-245v16c21 3 32 13 32 30c0 8 -3 17 -9 30zM506 261l-108 238l-110 -238h218z" />
    <glyph glyph-name="Ccedilla" unicode="&#xc7;" horiz-adv-x="839" 
d="M348 -120l28 54c8 16 8 16 20 16c89 0 140 -32 140 -86c0 -56 -50 -92 -127 -92c-40 0 -80 6 -107 16l12 25c23 -6 36 -8 54 -8c45 0 74 18 74 46c0 21 -17 38 -38 38c-15 0 -29 -7 -40 -19zM707 229l92 -139l-12 -9c-10 9 -16 12 -24 12c-7 0 -26 -9 -48 -23
c-85 -55 -178 -82 -278 -82c-105 0 -192 25 -259 75c-85 62 -133 160 -133 271c0 110 48 208 133 270c68 50 154 75 260 75c100 0 179 -23 271 -79c33 -20 47 -26 57 -26c6 0 10 3 21 12l12 -9l-92 -139l-13 9v13c0 12 -3 19 -14 28c-57 49 -142 78 -231 78
c-150 0 -255 -95 -255 -233c0 -68 29 -132 80 -175c46 -39 104 -57 182 -57c67 0 122 15 182 49c41 23 56 38 56 56v14z" />
    <glyph glyph-name="Eacute" unicode="&#xc9;" horiz-adv-x="760" 
d="M236 292v-182h430c21 2 29 8 35 31h15v-172h-15c-6 23 -13 29 -35 31h-606v16c23 6 29 13 31 35v565c-2 22 -8 29 -31 35v16h594c22 2 29 8 35 31h16v-172h-16c-6 23 -13 29 -35 31h-418v-159h271c22 1 29 8 35 32h16v-169h-16c-6 23 -13 29 -35 31h-271zM522 862v-13
c-15 -1 -20 -3 -28 -14l-69 -84c-3 -3 -4 -6 -4 -8c0 -5 4 -8 11 -8h2v-13h-107v13c16 0 19 2 26 18l33 79c1 4 2 6 2 7c0 5 -5 9 -14 10v13h148z" />
    <glyph glyph-name="Ecircumflex" unicode="&#xca;" horiz-adv-x="760" 
d="M236 292v-182h430c21 2 29 8 35 31h15v-172h-15c-6 23 -13 29 -35 31h-606v16c23 6 29 13 31 35v565c-2 22 -8 29 -31 35v16h594c22 2 29 8 35 31h16v-172h-16c-6 23 -13 29 -35 31h-418v-159h271c22 1 29 8 35 32h16v-169h-16c-6 23 -13 29 -35 31h-271zM348 722h-122
v13c9 1 13 2 17 4c1 0 4 3 7 6c3 4 6 7 10 10l65 73c4 5 6 9 6 13c0 5 -5 8 -17 8v13h155v-13c-11 -1 -15 -4 -15 -9c0 -3 3 -8 8 -14l73 -81c7 -8 11 -9 22 -10v-13h-140v13c10 1 15 3 15 7c0 3 0 3 -7 12l-42 50l-45 -52c-2 -2 -4 -6 -4 -8c0 -6 4 -8 14 -9v-13z" />
    <glyph glyph-name="Edieresis" unicode="&#xcb;" horiz-adv-x="760" 
d="M236 292v-182h430c21 2 29 8 35 31h15v-172h-15c-6 23 -13 29 -35 31h-606v16c23 6 29 13 31 35v565c-2 22 -8 29 -31 35v16h594c22 2 29 8 35 31h16v-172h-16c-6 23 -13 29 -35 31h-418v-159h271c22 1 29 8 35 32h16v-169h-16c-6 23 -13 29 -35 31h-271zM294 850
c36 0 64 -28 64 -65c0 -34 -29 -62 -64 -62s-63 28 -63 63s28 64 63 64zM488 850c36 0 64 -28 64 -63c0 -36 -28 -64 -65 -64c-34 0 -62 29 -62 64s28 63 63 63z" />
    <glyph glyph-name="Egrave" unicode="&#xc8;" horiz-adv-x="760" 
d="M236 292v-182h430c21 2 29 8 35 31h15v-172h-15c-6 23 -13 29 -35 31h-606v16c23 6 29 13 31 35v565c-2 22 -8 29 -31 35v16h594c22 2 29 8 35 31h16v-172h-16c-6 23 -13 29 -35 31h-418v-159h271c22 1 29 8 35 32h16v-169h-16c-6 23 -13 29 -35 31h-271zM261 862h148
v-13c-9 -1 -14 -5 -14 -10c0 -1 0 -2 2 -7l33 -79c7 -16 11 -18 26 -18v-13h-107v13h3c7 0 10 3 10 8c0 2 -1 5 -3 8l-69 84c-9 11 -14 13 -29 14v13z" />
    <glyph glyph-name="Iacute" unicode="&#xcd;" horiz-adv-x="328" 
d="M267 16v-16h-207v16c23 6 29 13 31 35v565c-2 22 -8 29 -31 35v16h207v-16c-23 -6 -29 -13 -31 -35v-565c1 -22 8 -29 31 -35zM302 862v-13c-15 -1 -20 -3 -28 -14l-69 -84c-3 -3 -4 -6 -4 -8c0 -5 4 -8 11 -8h2v-13h-106v13c15 0 18 2 25 18l33 79c1 4 2 6 2 7
c0 5 -5 9 -14 10v13h148z" />
    <glyph glyph-name="Icircumflex" unicode="&#xce;" horiz-adv-x="328" 
d="M268 16v-16h-207v16c23 6 29 13 31 35v565c-2 22 -8 29 -31 35v16h207v-16c-23 -6 -29 -13 -31 -35v-565c1 -22 8 -29 31 -35zM124 722h-122v13c9 1 13 2 17 4l17 16l62 73c4 6 6 9 6 13c0 5 -5 8 -17 8v13h154v-13c-10 -1 -14 -4 -14 -9c0 -3 3 -8 7 -14l70 -81
c7 -8 11 -9 23 -10v-13h-140v13c10 1 15 3 15 7c0 1 -3 5 -8 12l-38 50l-42 -52c-3 -3 -4 -6 -4 -8c0 -6 4 -8 14 -9v-13z" />
    <glyph glyph-name="Idieresis" unicode="&#xcf;" horiz-adv-x="328" 
d="M267 16v-16h-207v16c23 6 29 13 31 35v565c-2 22 -8 29 -31 35v16h207v-16c-23 -6 -29 -13 -31 -35v-565c1 -22 8 -29 31 -35zM83 850c36 0 64 -28 64 -65c0 -34 -29 -62 -64 -62s-63 28 -63 63s28 64 63 64zM244 850c36 0 64 -28 64 -63c0 -36 -28 -64 -65 -64
c-34 0 -62 29 -62 64s28 63 63 63z" />
    <glyph glyph-name="Igrave" unicode="&#xcc;" horiz-adv-x="328" 
d="M268 16v-16h-207v16c23 6 29 13 31 35v565c-2 22 -8 29 -31 35v16h207v-16c-23 -6 -29 -13 -31 -35v-565c1 -22 8 -29 31 -35zM26 862h148v-13c-8 -1 -13 -5 -13 -10c0 -1 1 -5 2 -7l32 -79c7 -16 11 -18 26 -18v-13h-106v13h2c7 0 10 3 10 8c0 2 -1 5 -3 8l-69 84
c-8 11 -14 13 -29 14v13z" />
    <glyph glyph-name="Ntilde" unicode="&#xd1;" horiz-adv-x="871" 
d="M224 457v-406c1 -22 8 -29 31 -35v-16h-195v16c23 6 29 13 31 35v565c-2 22 -8 29 -31 35v16h226v-16c-14 -3 -21 -11 -21 -22c0 -9 4 -15 14 -26l368 -383v396c-2 22 -8 29 -31 35v16h195v-16c-23 -6 -30 -13 -31 -35v-565c1 -22 8 -29 31 -35v-16h-209v16
c14 3 20 9 20 21c0 8 -4 14 -24 34zM544 854l71 -65l-7 -10c-14 4 -15 4 -18 4c-5 0 -9 -2 -13 -8c-23 -31 -44 -45 -70 -45c-13 0 -24 2 -41 9l-73 28c-5 1 -14 3 -21 3c-13 0 -28 -13 -28 -24c0 -5 2 -8 7 -15l-9 -7l-72 68l6 8c8 -3 13 -4 17 -4c8 0 12 2 19 11
c18 24 46 39 74 39c11 0 20 -2 32 -6l72 -29c8 -3 18 -5 26 -5c13 0 27 13 27 24c0 5 -2 10 -9 17z" />
    <glyph glyph-name="Oacute" unicode="&#xd3;" horiz-adv-x="856" 
d="M427 679c120 0 206 -29 276 -94s108 -154 108 -256c0 -92 -40 -184 -108 -246c-69 -65 -157 -95 -275 -95c-117 0 -206 30 -275 95c-69 63 -108 154 -108 251c0 96 40 189 108 251c71 64 158 94 274 94zM427 566c-136 0 -233 -97 -233 -232c0 -136 97 -233 234 -233
c135 0 234 97 234 229c0 140 -96 236 -235 236zM562 862v-13c-15 -1 -20 -3 -29 -14l-69 -84c-2 -3 -3 -6 -3 -8c0 -5 4 -8 11 -8h2v-13h-107v13c15 0 19 2 26 18l33 79c2 5 2 6 2 7c0 5 -5 9 -14 10v13h148z" />
    <glyph glyph-name="Ocircumflex" unicode="&#xd4;" horiz-adv-x="856" 
d="M427 679c120 0 206 -29 276 -94s108 -154 108 -256c0 -92 -40 -184 -108 -246c-69 -65 -157 -95 -275 -95c-117 0 -206 30 -275 95c-69 63 -108 154 -108 251c0 96 40 189 108 251c71 64 158 94 274 94zM427 566c-136 0 -233 -97 -233 -232c0 -136 97 -233 234 -233
c135 0 234 97 234 229c0 140 -96 236 -235 236zM384 722h-121v13c9 1 13 2 16 4c1 0 4 3 7 6l10 10l66 73c3 4 5 9 5 13c0 5 -5 8 -16 8v13h154v-13c-11 -1 -15 -4 -15 -9c0 -3 2 -7 8 -14l74 -81c6 -8 10 -9 22 -10v-13h-140v13c10 1 15 3 15 7c0 2 -3 6 -8 12l-41 50
l-46 -52c-3 -3 -4 -6 -4 -8c0 -6 4 -8 14 -9v-13z" />
    <glyph glyph-name="Odieresis" unicode="&#xd6;" horiz-adv-x="856" 
d="M427 679c120 0 206 -29 276 -94s108 -154 108 -256c0 -92 -40 -184 -108 -246c-69 -65 -157 -95 -275 -95c-117 0 -206 30 -275 95c-69 63 -108 154 -108 251c0 96 40 189 108 251c71 64 158 94 274 94zM427 566c-136 0 -233 -97 -233 -232c0 -136 97 -233 234 -233
c135 0 234 97 234 229c0 140 -96 236 -235 236zM330 850c36 0 64 -28 64 -65c0 -34 -29 -62 -64 -62s-63 28 -63 63s28 64 63 64zM524 850c36 0 64 -28 64 -63c0 -36 -28 -64 -65 -64c-34 0 -62 29 -62 64s28 63 63 63z" />
    <glyph glyph-name="Ograve" unicode="&#xd2;" horiz-adv-x="856" 
d="M427 679c120 0 206 -29 276 -94s108 -154 108 -256c0 -92 -40 -184 -108 -246c-69 -65 -157 -95 -275 -95c-117 0 -206 30 -275 95c-69 63 -108 154 -108 251c0 96 40 189 108 251c71 64 158 94 274 94zM427 566c-136 0 -233 -97 -233 -232c0 -136 97 -233 234 -233
c135 0 234 97 234 229c0 140 -96 236 -235 236zM297 862h149v-13c-9 -1 -14 -5 -14 -10c0 -1 1 -4 2 -7l32 -79c7 -16 11 -18 26 -18v-13h-106v13h2c7 0 10 3 10 8c0 3 -1 6 -3 8l-69 84c-8 11 -13 13 -29 14v13z" />
    <glyph glyph-name="Otilde" unicode="&#xd5;" horiz-adv-x="856" 
d="M427 679c120 0 206 -29 276 -94s108 -154 108 -256c0 -92 -40 -184 -108 -246c-69 -65 -157 -95 -275 -95c-117 0 -206 30 -275 95c-69 63 -108 154 -108 251c0 96 40 189 108 251c71 64 158 94 274 94zM427 566c-136 0 -233 -97 -233 -232c0 -136 97 -233 234 -233
c135 0 234 97 234 229c0 140 -96 236 -235 236zM537 854l71 -65l-8 -10c-13 4 -14 4 -18 4c-5 0 -8 -2 -13 -8c-22 -31 -44 -45 -69 -45c-14 0 -25 2 -42 9l-72 28c-5 1 -15 3 -21 3c-14 0 -29 -13 -29 -24c0 -5 2 -8 8 -15l-9 -7l-73 68l7 8c8 -3 13 -4 17 -4
c8 0 12 2 18 11c19 24 47 39 74 39c12 0 21 -2 32 -6l73 -29c8 -3 17 -5 25 -5c13 0 27 13 27 24c0 5 -2 10 -8 17z" />
    <glyph glyph-name="Scaron" unicode="&#x160;" horiz-adv-x="720" 
d="M680 611l-79 -157l-14 8v8c0 11 -8 22 -28 35c-55 39 -130 61 -204 61c-95 0 -156 -33 -156 -85c0 -19 10 -34 30 -45c21 -11 29 -12 116 -21l77 -8c90 -9 142 -25 185 -55c45 -32 72 -88 72 -147c0 -66 -34 -129 -88 -163c-56 -34 -136 -54 -223 -54
c-90 0 -174 21 -261 64c-28 13 -28 13 -33 13s-9 -3 -20 -11l-14 7l72 164l15 -7c-1 -3 -1 -6 -1 -6c0 -15 7 -28 21 -41c42 -38 145 -70 224 -70c98 0 167 40 167 97c0 21 -13 39 -36 48c-21 8 -35 11 -100 18l-75 8c-101 10 -129 16 -170 37c-59 29 -93 88 -93 157
c0 132 110 213 287 213c85 0 149 -15 257 -61c27 -10 29 -11 34 -11c8 0 15 4 24 11zM424 862h122v-13c-9 -1 -13 -2 -17 -4c-1 0 -4 -3 -7 -6c-3 -4 -6 -7 -10 -10l-65 -73c-4 -4 -6 -9 -6 -13c0 -5 5 -8 17 -8v-13h-155v13c11 1 15 4 15 9c0 3 -2 8 -8 14l-73 81
c-7 8 -11 9 -22 10v13h140v-13c-11 -1 -16 -3 -16 -7c0 -1 3 -5 8 -12l41 -50l46 52c2 2 4 6 4 8c0 6 -4 8 -14 9v13z" />
    <glyph glyph-name="Uacute" unicode="&#xda;" horiz-adv-x="816" 
d="M769 667v-16c-23 -6 -29 -13 -31 -35v-374c0 -103 -27 -166 -87 -202c-57 -35 -137 -52 -243 -52s-187 17 -243 52c-60 36 -87 99 -87 202v374c-2 22 -8 29 -31 35v16h208v-16c-24 -6 -30 -13 -32 -35v-333c0 -77 7 -107 30 -132c30 -32 88 -50 161 -50s130 18 160 50
c23 25 30 55 30 132v333c-2 22 -8 29 -31 35v16h196zM542 862v-13c-15 -1 -20 -3 -28 -14l-69 -84c-3 -3 -4 -6 -4 -8c0 -5 4 -8 11 -8h2v-13h-106v13c15 0 18 2 25 18l33 79c1 4 2 6 2 7c0 5 -5 9 -14 10v13h148z" />
    <glyph glyph-name="Ucircumflex" unicode="&#xdb;" horiz-adv-x="816" 
d="M769 667v-16c-23 -6 -29 -13 -31 -35v-374c0 -103 -27 -166 -87 -202c-57 -35 -137 -52 -243 -52s-187 17 -243 52c-60 36 -87 99 -87 202v374c-2 22 -8 29 -31 35v16h208v-16c-24 -6 -30 -13 -32 -35v-333c0 -77 7 -107 30 -132c30 -32 88 -50 161 -50s130 18 160 50
c23 25 30 55 30 132v333c-2 22 -8 29 -31 35v16h196zM368 722h-122v13c9 1 13 2 17 4c1 0 4 3 7 6c3 4 6 7 10 10l65 73c4 5 6 9 6 13c0 5 -5 8 -17 8v13h155v-13c-11 -1 -15 -4 -15 -9c0 -3 3 -8 8 -14l73 -81c7 -8 11 -9 22 -10v-13h-140v13c10 1 15 3 15 7c0 3 0 3 -7 12
l-42 50l-45 -52c-2 -2 -4 -6 -4 -8c0 -6 4 -8 14 -9v-13z" />
    <glyph glyph-name="Udieresis" unicode="&#xdc;" horiz-adv-x="816" 
d="M769 667v-16c-23 -6 -29 -13 -31 -35v-374c0 -103 -27 -166 -87 -202c-57 -35 -137 -52 -243 -52s-187 17 -243 52c-60 36 -87 99 -87 202v374c-2 22 -8 29 -31 35v16h208v-16c-24 -6 -30 -13 -32 -35v-333c0 -77 7 -107 30 -132c30 -32 88 -50 161 -50s130 18 160 50
c23 25 30 55 30 132v333c-2 22 -8 29 -31 35v16h196zM314 850c36 0 64 -28 64 -65c0 -34 -29 -62 -64 -62s-63 28 -63 63s28 64 63 64zM508 850c36 0 64 -28 64 -63c0 -36 -28 -64 -65 -64c-34 0 -62 29 -62 64s28 63 63 63z" />
    <glyph glyph-name="Ugrave" unicode="&#xd9;" horiz-adv-x="816" 
d="M769 667v-16c-23 -6 -29 -13 -31 -35v-374c0 -103 -27 -166 -87 -202c-57 -35 -137 -52 -243 -52s-187 17 -243 52c-60 36 -87 99 -87 202v374c-2 22 -8 29 -31 35v16h208v-16c-24 -6 -30 -13 -32 -35v-333c0 -77 7 -107 30 -132c30 -32 88 -50 161 -50s130 18 160 50
c23 25 30 55 30 132v333c-2 22 -8 29 -31 35v16h196zM281 862h148v-13c-9 -1 -14 -5 -14 -10c0 -1 0 -2 2 -7l33 -79c7 -16 11 -18 26 -18v-13h-106v13h2c7 0 10 3 10 8c0 2 -1 5 -3 8l-69 84c-8 11 -14 13 -29 14v13z" />
    <glyph glyph-name="Yacute" unicode="&#xdd;" horiz-adv-x="713" 
d="M429 279v-228c2 -22 8 -29 32 -35v-16h-209v16c24 6 30 13 32 35v228l-216 303c-35 51 -54 67 -81 69v16h263v-16c-20 -3 -33 -14 -33 -30c0 -8 1 -9 20 -39l121 -179l123 179c18 26 20 31 20 40c0 14 -13 26 -33 29v16h258v-16c-28 -2 -46 -17 -82 -69zM488 862v-13
c-16 -1 -21 -3 -29 -14l-69 -84c-2 -2 -3 -6 -3 -8c0 -5 4 -8 10 -8h2v-13h-106v13c15 0 19 2 26 18l32 79c1 3 2 6 2 7c0 5 -5 9 -14 10v13h149z" />
    <glyph glyph-name="Ydieresis" unicode="&#x178;" horiz-adv-x="713" 
d="M429 279v-228c2 -22 8 -29 32 -35v-16h-209v16c24 6 30 13 32 35v228l-216 303c-35 51 -54 67 -81 69v16h263v-16c-20 -3 -33 -14 -33 -30c0 -8 1 -9 20 -39l121 -179l123 179c18 26 20 31 20 40c0 14 -13 26 -33 29v16h258v-16c-28 -2 -46 -17 -82 -69zM259 850
c36 0 64 -28 64 -65c0 -34 -29 -62 -64 -62s-63 28 -63 63s28 64 63 64zM453 850c36 0 64 -28 64 -63c0 -36 -28 -64 -65 -64c-34 0 -62 29 -62 64s28 63 63 63z" />
    <glyph glyph-name="Zcaron" unicode="&#x17d;" horiz-adv-x="714" 
d="M277 110h346c22 2 29 8 35 31h16v-172h-16c-6 23 -13 29 -35 31h-583v34l388 523h-334c-22 -2 -29 -8 -35 -31h-16v172h16c6 -23 13 -29 35 -31h575v-28zM391 862h121v-13c-9 -1 -13 -2 -16 -4c-1 0 -4 -3 -7 -6l-10 -10l-66 -73c-3 -4 -5 -9 -5 -13c0 -5 5 -8 16 -8v-13
h-154v13c11 1 15 4 15 9c0 3 -2 7 -8 14l-74 81c-6 8 -10 9 -22 10v13h140v-13c-10 -1 -15 -3 -15 -7c0 -2 3 -6 8 -12l41 -50l46 52c3 3 4 6 4 8c0 6 -4 8 -14 9v13z" />
    <glyph glyph-name="aacute" unicode="&#xe1;" horiz-adv-x="694" 
d="M463 137h-251l-29 -59c-7 -15 -10 -26 -10 -34c0 -15 11 -26 31 -31v-13h-201v13c24 4 34 13 49 45l200 404c7 15 11 29 11 40c0 15 -7 23 -28 31v14h213v-14c-18 -6 -27 -18 -27 -33c0 -10 4 -24 12 -39l207 -393c23 -43 30 -49 57 -55v-13h-223v13c20 4 31 14 31 30
c0 9 -6 26 -12 38zM423 214l-89 175l-85 -175h174zM479 748v-13c-16 -1 -21 -3 -29 -13l-69 -84c-2 -2 -3 -6 -3 -8c0 -5 4 -8 10 -8h2v-13h-106v13c15 0 19 2 26 18l32 78c1 3 2 6 2 7c0 6 -5 9 -14 10v13h149z" />
    <glyph glyph-name="acircumflex" unicode="&#xe2;" horiz-adv-x="694" 
d="M463 137h-251l-29 -59c-7 -15 -10 -26 -10 -34c0 -15 11 -26 31 -31v-13h-201v13c24 4 34 13 49 45l200 404c7 15 11 29 11 40c0 15 -7 23 -28 31v14h213v-14c-18 -6 -27 -18 -27 -33c0 -10 4 -24 12 -39l207 -393c23 -43 30 -49 57 -55v-13h-223v13c20 4 31 14 31 30
c0 9 -6 26 -12 38zM423 214l-89 175l-85 -175h174zM298 608h-122v13c9 1 13 2 17 4c1 0 4 3 7 6c3 4 6 7 10 10l65 73c4 5 6 9 6 13c0 5 -5 8 -17 8v13h155v-13c-11 -1 -15 -4 -15 -9c0 -3 3 -8 8 -14l73 -81c7 -8 11 -9 22 -10v-13h-140v13c10 1 15 3 15 7c0 3 0 3 -7 12
l-42 50l-45 -52c-2 -2 -4 -6 -4 -8c0 -6 4 -8 14 -9v-13z" />
    <glyph glyph-name="adieresis" unicode="&#xe4;" horiz-adv-x="694" 
d="M463 137h-251l-29 -59c-7 -15 -10 -26 -10 -34c0 -15 11 -26 31 -31v-13h-201v13c24 4 34 13 49 45l200 404c7 15 11 29 11 40c0 15 -7 23 -28 31v14h213v-14c-18 -6 -27 -18 -27 -33c0 -10 4 -24 12 -39l207 -393c23 -43 30 -49 57 -55v-13h-223v13c20 4 31 14 31 30
c0 9 -6 26 -12 38zM423 214l-89 175l-85 -175h174zM246 737c36 0 64 -28 64 -65c0 -34 -29 -62 -64 -62s-63 28 -63 63s28 64 63 64zM440 737c36 0 64 -28 64 -63c0 -36 -28 -64 -65 -64c-34 0 -62 29 -62 64s28 63 63 63z" />
    <glyph glyph-name="agrave" unicode="&#xe0;" horiz-adv-x="694" 
d="M463 137h-251l-29 -59c-7 -15 -10 -26 -10 -34c0 -15 11 -26 31 -31v-13h-201v13c24 4 34 13 49 45l200 404c7 15 11 29 11 40c0 15 -7 23 -28 31v14h213v-14c-18 -6 -27 -18 -27 -33c0 -10 4 -24 12 -39l207 -393c23 -43 30 -49 57 -55v-13h-223v13c20 4 31 14 31 30
c0 9 -6 26 -12 38zM423 214l-89 175l-85 -175h174zM202 748h149v-13c-9 -1 -14 -4 -14 -10c0 -1 1 -4 2 -7l32 -78c7 -16 11 -18 26 -18v-13h-106v13h2c7 0 10 3 10 8c0 3 -1 6 -3 8l-69 84c-8 10 -13 12 -29 13v13z" />
    <glyph glyph-name="aring" unicode="&#xe5;" horiz-adv-x="694" 
d="M463 137h-251l-29 -59c-7 -15 -10 -26 -10 -34c0 -15 11 -26 31 -31v-13h-201v13c24 4 34 13 49 45l200 404c7 15 11 29 11 40c0 15 -7 23 -28 31v14h213v-14c-18 -6 -27 -18 -27 -33c0 -10 4 -24 12 -39l207 -393c23 -43 30 -49 57 -55v-13h-223v13c20 4 31 14 31 30
c0 9 -6 26 -12 38zM423 214l-89 175l-85 -175h174zM343 772c64 0 112 -40 112 -92c0 -51 -50 -92 -112 -92c-61 0 -111 42 -111 93s49 91 111 91zM343 721c-28 0 -49 -17 -49 -41c0 -23 22 -41 50 -41c27 0 49 18 49 41c0 24 -21 41 -50 41z" />
    <glyph glyph-name="atilde" unicode="&#xe3;" horiz-adv-x="694" 
d="M463 137h-251l-29 -59c-7 -15 -10 -26 -10 -34c0 -15 11 -26 31 -31v-13h-201v13c24 4 34 13 49 45l200 404c7 15 11 29 11 40c0 15 -7 23 -28 31v14h213v-14c-18 -6 -27 -18 -27 -33c0 -10 4 -24 12 -39l207 -393c23 -43 30 -49 57 -55v-13h-223v13c20 4 31 14 31 30
c0 9 -6 26 -12 38zM423 214l-89 175l-85 -175h174zM449 741l70 -65l-7 -10c-14 4 -15 4 -18 4c-5 0 -8 -2 -13 -8c-22 -31 -44 -45 -70 -45c-13 0 -24 2 -41 9l-72 28c-5 1 -15 3 -22 3c-13 0 -28 -13 -28 -24c0 -5 2 -8 8 -15l-9 -7l-73 68l7 8c8 -3 12 -4 16 -4
c9 0 12 2 19 11c19 24 46 39 74 39c11 0 20 -2 32 -6l72 -29c9 -3 18 -5 26 -5c13 0 27 13 27 24c0 5 -2 10 -9 17z" />
    <glyph glyph-name="ccedilla" unicode="&#xe7;" horiz-adv-x="697" 
d="M278 -109l26 48c8 14 8 14 19 14c82 0 129 -28 129 -77s-46 -81 -118 -81c-36 0 -72 5 -98 14l11 23c20 -6 33 -8 50 -8c42 0 68 16 68 41c0 19 -16 34 -35 34c-14 0 -27 -6 -37 -17zM583 196l82 -120l-11 -9c-8 6 -14 9 -19 9c-6 0 -13 -3 -38 -18
c-90 -53 -147 -70 -236 -70c-195 0 -325 114 -325 285s130 286 324 286c90 0 147 -17 237 -70c25 -15 32 -18 39 -18c4 0 10 2 18 8l11 -8l-82 -120l-11 8c1 5 2 10 2 13c0 17 -20 34 -66 55c-42 20 -83 29 -126 29c-123 0 -213 -77 -213 -182c0 -106 90 -183 213 -183
c47 0 92 11 138 35c39 20 54 33 54 49c0 3 -1 8 -2 13z" />
    <glyph glyph-name="eacute" unicode="&#xe9;" horiz-adv-x="642" 
d="M210 233v-134h347c23 2 30 8 37 32h13v-162h-13c-7 23 -14 29 -37 31h-509v13c23 7 29 14 31 37v447c-2 23 -8 29 -31 37v13h494c22 1 30 8 37 31h13v-162h-13c-7 24 -14 30 -37 32h-332v-120h206c23 2 30 8 37 31h13v-158h-13c-7 24 -14 30 -37 32h-206zM462 748v-13
c-16 -1 -21 -3 -29 -13l-69 -84c-2 -2 -3 -6 -3 -8c0 -5 4 -8 10 -8h2v-13h-106v13c15 0 19 2 26 18l32 78c1 3 2 6 2 7c0 6 -5 9 -14 10v13h149z" />
    <glyph glyph-name="ecircumflex" unicode="&#xea;" horiz-adv-x="642" 
d="M210 233v-134h347c23 2 30 8 37 32h13v-162h-13c-7 23 -14 29 -37 31h-509v13c23 7 29 14 31 37v447c-2 23 -8 29 -31 37v13h494c22 1 30 8 37 31h13v-162h-13c-7 24 -14 30 -37 32h-332v-120h206c23 2 30 8 37 31h13v-158h-13c-7 24 -14 30 -37 32h-206zM287 608h-122
v13c9 1 13 2 17 4c1 0 4 3 7 6c3 4 7 7 10 10l65 73c4 5 6 9 6 13c0 5 -5 8 -16 8v13h154v-13c-11 -1 -15 -4 -15 -9c0 -3 3 -8 8 -14l73 -81c7 -8 11 -9 22 -10v-13h-140v13c11 1 16 3 16 7c0 1 -3 5 -8 12l-41 50l-46 -52c-2 -3 -4 -6 -4 -8c0 -6 4 -8 14 -9v-13z" />
    <glyph glyph-name="edieresis" unicode="&#xeb;" horiz-adv-x="642" 
d="M210 233v-134h347c23 2 30 8 37 32h13v-162h-13c-7 23 -14 29 -37 31h-509v13c23 7 29 14 31 37v447c-2 23 -8 29 -31 37v13h494c22 1 30 8 37 31h13v-162h-13c-7 24 -14 30 -37 32h-332v-120h206c23 2 30 8 37 31h13v-158h-13c-7 24 -14 30 -37 32h-206zM233 737
c36 0 64 -28 64 -65c0 -34 -29 -62 -64 -62s-63 28 -63 63s28 64 63 64zM427 737c36 0 64 -28 64 -63c0 -36 -28 -64 -65 -64c-34 0 -62 29 -62 64s28 63 63 63z" />
    <glyph glyph-name="egrave" unicode="&#xe8;" horiz-adv-x="642" 
d="M210 233v-134h347c23 2 30 8 37 32h13v-162h-13c-7 23 -14 29 -37 31h-509v13c23 7 29 14 31 37v447c-2 23 -8 29 -31 37v13h494c22 1 30 8 37 31h13v-162h-13c-7 24 -14 30 -37 32h-332v-120h206c23 2 30 8 37 31h13v-158h-13c-7 24 -14 30 -37 32h-206zM197 748h148
v-13c-9 -1 -14 -4 -14 -10c0 -1 0 -2 2 -7l33 -78c7 -16 11 -18 26 -18v-13h-107v13h3c6 0 10 3 10 8c0 2 -1 5 -3 8l-69 84c-9 10 -14 12 -29 13v13z" />
    <glyph glyph-name="iacute" unicode="&#xed;" horiz-adv-x="290" 
d="M48 547h193v-14c-23 -6 -29 -13 -31 -36v-447c2 -23 8 -30 31 -37v-13h-193v13c23 7 29 14 31 37v447c-2 23 -7 29 -31 36v14zM282 748v-13c-16 -1 -21 -3 -29 -13l-69 -84c-2 -3 -3 -6 -3 -8c0 -5 4 -8 10 -8h2v-13h-106v13c15 0 19 2 26 18l33 78c2 6 2 6 2 7
c0 6 -5 9 -14 10v13h148z" />
    <glyph glyph-name="icircumflex" unicode="&#xee;" horiz-adv-x="289" 
d="M48 547h193v-14c-23 -6 -29 -13 -31 -36v-447c2 -23 8 -30 31 -37v-13h-193v13c23 7 29 14 31 37v447c-2 23 -8 30 -31 36v14zM108 608h-119v13c9 1 13 2 17 4c2 1 9 8 17 16l55 73c4 6 6 9 6 12c0 6 -5 9 -17 9v13h155v-13c-11 -1 -15 -4 -15 -9c0 -4 1 -5 8 -14l63 -81
c6 -7 11 -10 22 -10v-13h-136v13c10 1 15 3 15 7c0 2 -1 5 -3 7c-3 2 -5 4 -5 5l-35 54l-38 -56c-5 -6 -5 -6 -5 -8c0 -6 4 -8 15 -9v-13z" />
    <glyph glyph-name="idieresis" unicode="&#xef;" horiz-adv-x="289" 
d="M49 547h193v-14c-23 -6 -29 -13 -31 -36v-447c2 -23 8 -30 31 -37v-13h-193v13c23 7 29 14 31 37v447c-2 23 -8 30 -31 36v14zM64 737c36 0 64 -28 64 -65c0 -34 -29 -62 -64 -62s-63 28 -63 63s28 64 63 64zM225 737c36 0 64 -28 64 -63c0 -36 -28 -64 -65 -64
c-34 0 -62 29 -62 64s28 63 63 63z" />
    <glyph glyph-name="igrave" unicode="&#xec;" horiz-adv-x="290" 
d="M48 547h193v-14c-23 -6 -29 -13 -31 -36v-447c2 -23 8 -30 31 -37v-13h-193v13c23 7 29 14 31 37v447c-2 23 -8 30 -31 36v14zM7 748h148v-13c-8 -1 -13 -4 -13 -10c0 -1 1 -5 2 -7l32 -78c7 -16 11 -18 26 -18v-13h-106v13h2c7 0 10 3 10 8c0 2 -1 5 -3 8l-69 84
c-8 10 -13 12 -29 13v13z" />
    <glyph glyph-name="ntilde" unicode="&#xf1;" horiz-adv-x="744" 
d="M198 360v-310c2 -23 8 -30 31 -37v-13h-181v13c23 7 29 14 31 37v447c-2 23 -7 29 -31 36v14h210v-14c-15 -3 -22 -9 -22 -19c0 -8 5 -16 16 -27l293 -291v301c-2 23 -8 30 -31 36v14h181v-14c-23 -6 -29 -13 -31 -36v-447c2 -23 8 -30 31 -37v-13h-196v13
c15 3 22 9 22 18s-5 15 -33 43zM480 741l71 -65l-7 -10c-14 4 -15 4 -18 4c-5 0 -9 -2 -13 -8c-23 -31 -44 -45 -70 -45c-13 0 -24 2 -41 9l-73 28c-4 1 -14 3 -21 3c-13 0 -28 -13 -28 -24c0 -5 2 -8 7 -15l-9 -7l-72 68l7 8c8 -3 12 -4 16 -4c8 0 12 2 19 11
c19 24 46 39 74 39c11 0 20 -2 32 -6l72 -29c8 -3 18 -5 26 -5c13 0 27 13 27 24c0 5 -2 10 -9 17z" />
    <glyph glyph-name="oacute" unicode="&#xf3;" horiz-adv-x="713" 
d="M356 559c194 0 321 -115 321 -290c0 -165 -132 -281 -320 -281c-191 0 -321 116 -321 286c0 169 130 285 320 285zM356 456c-108 0 -187 -77 -187 -182c0 -106 79 -183 188 -183c107 0 187 77 187 180c0 109 -77 185 -188 185zM497 748v-13c-15 -1 -20 -3 -28 -13
l-69 -84c-3 -3 -4 -6 -4 -8c0 -5 4 -8 11 -8h2v-13h-106v13c15 0 18 2 25 18l33 78c1 4 2 6 2 7c0 6 -5 9 -14 10v13h148z" />
    <glyph glyph-name="ocircumflex" unicode="&#xf4;" horiz-adv-x="713" 
d="M356 559c194 0 321 -115 321 -290c0 -165 -132 -281 -320 -281c-191 0 -321 116 -321 286c0 169 130 285 320 285zM356 456c-108 0 -187 -77 -187 -182c0 -106 79 -183 188 -183c107 0 187 77 187 180c0 109 -77 185 -188 185zM316 608h-122v13c10 1 14 2 17 4
c1 0 4 3 7 6c3 4 7 7 10 10l66 73c3 4 5 9 5 13c0 5 -5 8 -16 8v13h154v-13c-11 -1 -15 -4 -15 -9c0 -4 2 -7 8 -14l73 -81c7 -8 11 -9 23 -10v-13h-140v13c10 1 15 3 15 7c0 2 -3 5 -8 12l-41 50l-46 -52c-3 -3 -4 -6 -4 -8c0 -6 4 -8 14 -9v-13z" />
    <glyph glyph-name="odieresis" unicode="&#xf6;" horiz-adv-x="713" 
d="M356 559c194 0 321 -115 321 -290c0 -165 -132 -281 -320 -281c-191 0 -321 116 -321 286c0 169 130 285 320 285zM356 456c-108 0 -187 -77 -187 -182c0 -106 79 -183 188 -183c107 0 187 77 187 180c0 109 -77 185 -188 185zM262 737c36 0 64 -28 64 -65
c0 -34 -29 -62 -64 -62s-63 28 -63 63s28 64 63 64zM456 737c36 0 64 -28 64 -63c0 -36 -28 -64 -65 -64c-34 0 -62 29 -62 64s28 63 63 63z" />
    <glyph glyph-name="ograve" unicode="&#xf2;" horiz-adv-x="713" 
d="M356 559c194 0 321 -115 321 -290c0 -165 -132 -281 -320 -281c-191 0 -321 116 -321 286c0 169 130 285 320 285zM356 456c-108 0 -187 -77 -187 -182c0 -106 79 -183 188 -183c107 0 187 77 187 180c0 109 -77 185 -188 185zM223 748h148v-13c-9 -1 -14 -4 -14 -10
c0 -1 1 -3 2 -7l33 -78c7 -16 10 -18 25 -18v-13h-106v13h2c7 0 10 3 10 8c0 2 -1 6 -3 8l-69 84c-8 10 -13 12 -28 13v13z" />
    <glyph glyph-name="otilde" unicode="&#xf5;" horiz-adv-x="713" 
d="M356 559c194 0 321 -115 321 -290c0 -165 -132 -281 -320 -281c-191 0 -321 116 -321 286c0 169 130 285 320 285zM356 456c-108 0 -187 -77 -187 -182c0 -106 79 -183 188 -183c107 0 187 77 187 180c0 109 -77 185 -188 185zM465 741l71 -65l-7 -10c-14 4 -15 4 -19 4
s-8 -2 -12 -8c-23 -31 -44 -45 -70 -45c-13 0 -24 2 -41 9l-73 28c-5 1 -14 3 -21 3c-13 0 -28 -13 -28 -24c0 -4 2 -8 7 -15l-9 -7l-72 68l6 8c8 -3 13 -4 17 -4c8 0 12 2 19 11c18 24 46 39 74 39c11 0 20 -2 31 -6l73 -29c8 -3 18 -5 25 -5c13 0 27 13 27 24
c0 5 -2 10 -8 17z" />
    <glyph glyph-name="scaron" unicode="&#x161;" horiz-adv-x="616" 
d="M574 498l-66 -128l-12 7v5c0 36 -108 78 -202 78c-80 0 -137 -29 -137 -68c0 -33 27 -44 124 -51l77 -6c73 -6 115 -16 154 -39c45 -27 72 -76 72 -129c0 -111 -103 -179 -269 -179c-88 0 -159 16 -239 52c-5 3 -10 4 -14 4c-7 0 -12 -3 -18 -12l-12 5l56 134l13 -5
c-1 -2 -1 -3 -1 -4c0 -8 4 -16 10 -21c32 -29 125 -54 203 -54c87 0 144 26 144 66c0 20 -13 36 -35 43c-19 7 -36 9 -85 13l-77 7c-83 7 -119 15 -152 36c-41 26 -66 73 -66 127c0 109 99 180 251 180c75 0 131 -14 221 -57c15 -7 22 -9 28 -9s10 2 20 11zM358 748h122v-13
c-9 -1 -13 -2 -16 -4c-2 0 -5 -3 -8 -6c-3 -4 -6 -7 -9 -10l-66 -73c-3 -4 -5 -9 -5 -13c0 -5 5 -8 16 -8v-13h-154v13c11 1 15 4 15 9c0 3 -2 7 -8 14l-74 81c-7 8 -10 9 -22 10v13h140v-13c-10 -1 -15 -3 -15 -7c0 -2 3 -6 8 -12l41 -50l45 52c4 3 5 6 5 8c0 6 -4 8 -15 9
v13z" />
    <glyph glyph-name="uacute" unicode="&#xfa;" horiz-adv-x="690" 
d="M652 547v-14c-23 -6 -29 -13 -31 -36v-290c0 -87 -21 -139 -70 -172c-43 -30 -120 -47 -206 -47c-94 0 -174 20 -217 53c-42 34 -60 84 -60 166v290c-2 23 -8 29 -31 36v14h194v-14c-24 -6 -30 -13 -32 -36v-263c0 -61 9 -90 36 -111c26 -21 66 -32 115 -32
c50 0 90 11 116 32s35 49 35 111v263c-2 23 -8 30 -31 36v14h182zM479 748v-13c-16 -1 -21 -3 -29 -13l-69 -84c-2 -2 -3 -6 -3 -8c0 -5 4 -8 10 -8h2v-13h-106v13c15 0 19 2 26 18l32 78c1 3 2 6 2 7c0 6 -5 9 -14 10v13h149z" />
    <glyph glyph-name="ucircumflex" unicode="&#xfb;" horiz-adv-x="690" 
d="M652 547v-14c-23 -6 -29 -13 -31 -36v-290c0 -87 -21 -139 -70 -172c-43 -30 -120 -47 -206 -47c-94 0 -174 20 -217 53c-42 34 -60 84 -60 166v290c-2 23 -8 29 -31 36v14h194v-14c-24 -6 -30 -13 -32 -36v-263c0 -61 9 -90 36 -111c26 -21 66 -32 115 -32
c50 0 90 11 116 32s35 49 35 111v263c-2 23 -8 30 -31 36v14h182zM305 608h-122v13c9 1 13 2 16 4c1 0 4 3 7 6l10 10l66 73c3 4 5 9 5 13c0 5 -5 8 -16 8v13h154v-13c-11 -1 -15 -4 -15 -9c0 -4 2 -7 8 -14l74 -81c7 -8 10 -9 22 -10v-13h-140v13c10 1 15 3 15 7
c0 2 -3 6 -8 12l-41 50l-45 -52c-4 -3 -5 -6 -5 -8c0 -6 4 -8 15 -9v-13z" />
    <glyph glyph-name="udieresis" unicode="&#xfc;" horiz-adv-x="690" 
d="M652 547v-14c-23 -6 -29 -13 -31 -36v-290c0 -87 -21 -139 -70 -172c-43 -30 -120 -47 -206 -47c-94 0 -174 20 -217 53c-42 34 -60 84 -60 166v290c-2 23 -8 29 -31 36v14h194v-14c-24 -6 -30 -13 -32 -36v-263c0 -61 9 -90 36 -111c26 -21 66 -32 115 -32
c50 0 90 11 116 32s35 49 35 111v263c-2 23 -8 30 -31 36v14h182zM251 737c36 0 64 -28 64 -65c0 -34 -29 -62 -64 -62s-63 28 -63 63s28 64 63 64zM445 737c36 0 64 -28 64 -63c0 -36 -28 -64 -65 -64c-34 0 -62 29 -62 64s28 63 63 63z" />
    <glyph glyph-name="ugrave" unicode="&#xf9;" horiz-adv-x="690" 
d="M652 547v-14c-23 -6 -29 -13 -31 -36v-290c0 -87 -21 -139 -70 -172c-43 -30 -120 -47 -206 -47c-94 0 -174 20 -217 53c-42 34 -60 84 -60 166v290c-2 23 -8 29 -31 36v14h194v-14c-24 -6 -30 -13 -32 -36v-263c0 -61 9 -90 36 -111c26 -21 66 -32 115 -32
c50 0 90 11 116 32s35 49 35 111v263c-2 23 -8 30 -31 36v14h182zM214 748h149v-13c-9 -1 -14 -4 -14 -10c0 -1 1 -4 2 -7l32 -78c7 -16 11 -18 26 -18v-13h-106v13h2c7 0 10 3 10 8c0 2 -1 5 -3 8l-69 84c-8 10 -13 12 -29 13v13z" />
    <glyph glyph-name="yacute" unicode="&#xfd;" horiz-adv-x="599" 
d="M365 240v-190c2 -23 8 -30 31 -37v-13h-194v13c23 7 30 14 32 37v190l-162 223c-40 53 -54 64 -83 71v13h246v-14c-22 -6 -31 -14 -31 -29c0 -9 4 -17 23 -43l79 -111l78 111c19 27 23 34 23 43c0 15 -9 23 -32 29v14h234v-13c-29 -7 -42 -18 -82 -71zM436 748v-13
c-16 -1 -21 -3 -29 -13l-69 -84c-2 -3 -3 -6 -3 -8c0 -5 4 -8 10 -8h2v-13h-106v13c15 0 19 2 26 18l33 78c1 4 2 6 2 7c0 6 -5 9 -14 10v13h148z" />
    <glyph glyph-name="ydieresis" unicode="&#xff;" horiz-adv-x="599" 
d="M365 240v-190c2 -23 8 -30 31 -37v-13h-194v13c23 7 30 14 32 37v190l-162 223c-40 53 -54 64 -83 71v13h246v-14c-22 -6 -31 -14 -31 -29c0 -9 4 -17 23 -43l79 -111l78 111c19 27 23 34 23 43c0 15 -9 23 -32 29v14h234v-13c-29 -7 -42 -18 -82 -71zM201 737
c36 0 64 -28 64 -65c0 -34 -29 -62 -64 -62s-63 28 -63 63s28 64 63 64zM395 737c35 0 64 -28 64 -63c0 -36 -29 -64 -65 -64c-34 0 -62 29 -62 64s28 63 63 63z" />
    <glyph glyph-name="zcaron" unicode="&#x17e;" horiz-adv-x="609" 
d="M249 99h277c23 2 30 8 37 31h13v-161h-14c-6 23 -13 29 -36 31h-489v29l318 419h-264c-23 -2 -30 -8 -37 -32h-13v162h13c6 -23 15 -30 37 -31h480v-24zM344 748h122v-13c-10 -1 -14 -2 -17 -4c-1 0 -4 -3 -7 -6c-3 -4 -7 -7 -10 -10l-66 -73c-3 -4 -5 -9 -5 -13
c0 -5 4 -8 16 -8v-13h-154v13c11 1 15 4 15 9c0 3 -3 8 -8 14l-73 81c-7 8 -11 9 -23 10v13h140v-13c-10 -1 -15 -3 -15 -7c0 -1 3 -5 8 -12l41 -50l46 52c2 3 4 6 4 8c0 6 -4 8 -14 9v13z" />
    <glyph glyph-name="ffl" unicode="&#xfb04;" horiz-adv-x="1793" 
d="M210 233v-183c2 -23 8 -30 31 -37v-13h-193v14c23 6 29 13 31 36v447c-2 23 -8 29 -31 37v13h490c22 1 30 8 37 31h13v-162h-13c-7 24 -14 30 -37 32h-328v-120h206c23 2 30 8 37 31h13v-158h-13c-7 24 -14 30 -37 32h-206zM820 233v-183c2 -23 8 -30 31 -37v-13h-193v14
c23 6 29 13 31 36v447c-2 23 -8 30 -31 37v13h489c22 1 30 8 37 31h13v-162h-13c-7 24 -14 30 -37 32h-327v-120h205c23 2 30 8 37 31h13v-158h-13c-7 24 -14 30 -37 32h-205zM1429 99h306c23 2 30 8 37 31h13v-161h-13c-7 23 -14 29 -37 31h-468v13c23 7 29 14 31 37v447
c-2 23 -8 30 -31 36v14h193v-14c-23 -6 -29 -13 -31 -36v-398z" />
    <glyph glyph-name="figuredash" unicode="&#x2012;" horiz-adv-x="770" 
d="M728 356v-165h-16c-6 23 -13 29 -35 31h-583c-22 -2 -29 -8 -35 -31h-16v165h16c6 -23 13 -29 35 -31h583c22 2 29 8 35 31h16z" />
    <glyph glyph-name="IJ" unicode="&#x132;" horiz-adv-x="926" 
d="M267 16v-16h-207v16c23 6 29 13 31 35v565c-2 22 -8 29 -31 35v16h207v-16c-23 -6 -29 -13 -31 -35v-565c1 -22 8 -29 31 -35zM325 25l62 169l15 -5v-10c0 -14 7 -25 25 -37c35 -23 101 -41 155 -41c44 0 75 10 95 30s26 43 26 99v386c-2 22 -8 29 -31 35v16h207v-16
c-23 -6 -29 -13 -31 -35v-393c0 -97 -17 -144 -65 -182c-44 -36 -102 -53 -175 -53c-57 0 -82 5 -176 32c-30 9 -50 13 -62 13c-13 0 -20 -3 -30 -13z" />
    <glyph glyph-name="uni01CD" unicode="&#x1cd;" horiz-adv-x="813" 
d="M445 862h122v-13c-9 -1 -13 -2 -17 -4c-1 0 -4 -3 -7 -6c-3 -4 -6 -7 -10 -10l-65 -73c-4 -5 -6 -9 -6 -13c0 -5 5 -8 17 -8v-13h-155v13c11 1 15 4 15 9c0 3 -3 8 -8 14l-73 81c-7 8 -11 9 -22 10v13h140v-13c-10 -1 -15 -3 -15 -7c0 -3 0 -3 7 -12l42 -50l45 52
c2 2 4 6 4 8c0 6 -4 8 -14 9v13zM548 170h-303l-45 -94c-5 -12 -9 -24 -9 -31c0 -14 11 -24 32 -29v-16h-220v16c25 4 33 12 53 51l245 513c8 16 12 29 12 39c0 15 -9 26 -28 32v16h236v-16c-17 -5 -29 -15 -29 -26c0 -10 6 -29 17 -50l247 -499c24 -46 34 -56 60 -60v-16
h-245v16c21 3 32 13 32 30c0 8 -3 17 -9 30zM506 261l-108 238l-110 -238h218z" />
    <glyph glyph-name="Abreve" unicode="&#x102;" horiz-adv-x="813" 
d="M248 848v12h102v-12c-12 -1 -14 -2 -14 -8c0 -28 30 -51 67 -51s67 23 67 51c0 6 -2 8 -14 8v12h102v-12c-10 -1 -13 -3 -13 -11c-4 -69 -61 -117 -142 -117s-138 48 -142 117c0 8 -3 10 -13 11zM548 170h-303l-45 -94c-5 -12 -9 -24 -9 -31c0 -14 11 -24 32 -29v-16
h-220v16c25 4 33 12 53 51l245 513c8 16 12 29 12 39c0 15 -9 26 -28 32v16h236v-16c-17 -5 -29 -15 -29 -26c0 -10 6 -29 17 -50l247 -499c24 -46 34 -56 60 -60v-16h-245v16c21 3 32 13 32 30c0 8 -3 17 -9 30zM506 261l-108 238l-110 -238h218z" />
    <glyph glyph-name="Aogonek" unicode="&#x104;" horiz-adv-x="813" 
d="M816 0h-26c-43 -26 -68 -60 -68 -94s29 -58 71 -58c15 0 26 2 45 9l11 -27c-31 -12 -59 -17 -96 -17c-78 0 -128 34 -128 88c0 41 26 67 99 99h-153v16c21 3 32 13 32 30c0 8 -3 17 -9 30l-46 94h-303l-45 -94c-5 -12 -9 -24 -9 -31c0 -14 11 -24 32 -29v-16h-220v16
c25 4 33 12 53 51l245 513c8 16 12 29 12 39c0 15 -9 26 -28 32v16h236v-16c-17 -5 -29 -15 -29 -26c0 -10 6 -29 17 -50l247 -499c24 -46 34 -56 60 -60v-16zM506 261l-108 238l-110 -238h218z" />
    <glyph glyph-name="Cacute" unicode="&#x106;" horiz-adv-x="839" 
d="M583 862v-13c-16 -1 -21 -3 -29 -14l-69 -84c-2 -2 -3 -6 -3 -8c0 -5 4 -8 10 -8h2v-13h-106v13c15 0 19 2 26 18l32 79c1 2 2 6 2 7c0 5 -5 9 -14 10v13h149zM707 229l92 -139l-12 -9c-10 9 -16 12 -24 12c-7 0 -26 -9 -48 -23c-85 -55 -178 -82 -278 -82
c-105 0 -192 25 -259 75c-85 62 -133 160 -133 271c0 110 48 208 133 270c68 50 154 75 260 75c100 0 179 -23 271 -79c33 -20 47 -26 57 -26c6 0 10 3 21 12l12 -9l-92 -139l-13 9v13c0 12 -3 19 -14 28c-57 49 -142 78 -231 78c-150 0 -255 -95 -255 -233
c0 -68 29 -132 80 -175c46 -39 104 -57 182 -57c67 0 122 15 182 49c41 23 56 38 56 56v14z" />
    <glyph glyph-name="Ccaron" unicode="&#x10c;" horiz-adv-x="839" 
d="M492 862h122v-13c-9 -1 -13 -2 -16 -4c-1 0 -4 -3 -7 -6l-10 -10l-66 -73c-3 -4 -5 -9 -5 -13c0 -5 5 -8 16 -8v-13h-154v13c11 1 15 4 15 9c0 4 -2 7 -8 14l-74 81c-7 8 -10 9 -22 10v13h140v-13c-10 -1 -15 -3 -15 -7c0 -2 3 -6 8 -12l41 -50l45 52c4 3 5 6 5 8
c0 6 -4 8 -15 9v13zM707 229l92 -139l-12 -9c-10 9 -16 12 -24 12c-7 0 -26 -9 -48 -23c-85 -55 -178 -82 -278 -82c-105 0 -192 25 -259 75c-85 62 -133 160 -133 271c0 110 48 208 133 270c68 50 154 75 260 75c100 0 179 -23 271 -79c33 -20 47 -26 57 -26
c6 0 10 3 21 12l12 -9l-92 -139l-13 9v13c0 12 -3 19 -14 28c-57 49 -142 78 -231 78c-150 0 -255 -95 -255 -233c0 -68 29 -132 80 -175c46 -39 104 -57 182 -57c67 0 122 15 182 49c41 23 56 38 56 56v14z" />
    <glyph glyph-name="Cdotaccent" unicode="&#x10a;" horiz-adv-x="839" 
d="M448 850c36 0 64 -28 64 -65c0 -34 -29 -62 -64 -62s-63 28 -63 63s28 64 63 64zM707 229l92 -139l-12 -9c-10 9 -16 12 -24 12c-7 0 -26 -9 -48 -23c-85 -55 -178 -82 -278 -82c-105 0 -192 25 -259 75c-85 62 -133 160 -133 271c0 110 48 208 133 270
c68 50 154 75 260 75c100 0 179 -23 271 -79c33 -20 47 -26 57 -26c6 0 10 3 21 12l12 -9l-92 -139l-13 9v13c0 12 -3 19 -14 28c-57 49 -142 78 -231 78c-150 0 -255 -95 -255 -233c0 -68 29 -132 80 -175c46 -39 104 -57 182 -57c67 0 122 15 182 49c41 23 56 38 56 56v14
z" />
    <glyph glyph-name="Dcaron" unicode="&#x10e;" horiz-adv-x="838" 
d="M60 667h371c124 0 196 -20 256 -71c70 -59 106 -149 106 -262c0 -114 -36 -204 -106 -263c-59 -51 -133 -71 -256 -71h-371v16c23 6 29 13 31 35v565c-2 22 -8 29 -31 35v16zM236 110h183c88 0 137 17 174 59c35 39 51 90 51 165c0 74 -16 125 -51 164
c-37 43 -86 59 -174 59h-183v-447zM434 862h122v-13c-9 -1 -13 -2 -17 -4c-1 0 -4 -3 -7 -6c-3 -4 -7 -7 -10 -10l-65 -73c-4 -5 -6 -9 -6 -13c0 -5 5 -8 16 -8v-13h-154v13c11 1 15 4 15 9c0 3 -3 8 -8 14l-73 81c-7 8 -11 9 -22 10v13h140v-13c-11 -1 -16 -3 -16 -7
c0 -1 3 -5 8 -12l41 -50l46 52c2 3 4 6 4 8c0 6 -4 8 -14 9v13z" />
    <glyph glyph-name="Dcroat" unicode="&#x110;" horiz-adv-x="838" 
d="M60 0v16c23 6 29 13 31 35v245h-32c-22 -2 -29 -8 -35 -31h-16v160h16c6 -24 13 -30 35 -32h32v223c-2 22 -8 29 -31 35v16h372c124 0 197 -20 256 -71c70 -59 106 -149 106 -263c0 -113 -36 -203 -106 -262c-60 -51 -133 -71 -256 -71h-372zM236 393h150
c22 2 29 8 35 32h16v-160h-16c-6 23 -13 29 -35 31h-150v-186h184c88 0 137 16 174 58c35 40 51 91 51 165s-16 126 -51 165c-37 42 -86 59 -174 59h-184v-164z" />
    <glyph glyph-name="Ecaron" unicode="&#x11a;" horiz-adv-x="760" 
d="M236 292v-182h430c21 2 29 8 35 31h15v-172h-15c-6 23 -13 29 -35 31h-606v16c23 6 29 13 31 35v565c-2 22 -8 29 -31 35v16h594c22 2 29 8 35 31h16v-172h-16c-6 23 -13 29 -35 31h-418v-159h271c22 1 29 8 35 32h16v-169h-16c-6 23 -13 29 -35 31h-271zM435 862h122
v-13c-9 -1 -13 -2 -16 -4c-2 0 -5 -3 -8 -6c-3 -4 -6 -7 -9 -10l-66 -73c-3 -4 -5 -9 -5 -13c0 -5 5 -8 16 -8v-13h-154v13c11 1 15 4 15 9c0 3 -2 7 -8 14l-74 81c-7 8 -10 9 -22 10v13h140v-13c-10 -1 -15 -3 -15 -7c0 -2 3 -6 8 -12l41 -50l45 52c4 3 5 6 5 8
c0 6 -4 8 -15 9v13z" />
    <glyph glyph-name="Edotaccent" unicode="&#x116;" horiz-adv-x="760" 
d="M236 292v-182h430c21 2 29 8 35 31h15v-172h-15c-6 23 -13 29 -35 31h-606v16c23 6 29 13 31 35v565c-2 22 -8 29 -31 35v16h594c22 2 29 8 35 31h16v-172h-16c-6 23 -13 29 -35 31h-418v-159h271c22 1 29 8 35 32h16v-169h-16c-6 23 -13 29 -35 31h-271zM391 850
c36 0 64 -28 64 -65c0 -34 -29 -62 -64 -62s-63 28 -63 63s28 64 63 64z" />
    <glyph glyph-name="Eogonek" unicode="&#x118;" horiz-adv-x="760" 
d="M60 667h594c22 2 29 8 35 31h16v-172h-16c-6 23 -13 29 -35 31h-418v-159h271c22 1 29 8 35 32h16v-169h-16c-6 23 -13 29 -35 31h-271v-182h430c21 2 29 8 35 31h15v-172h-15c-6 23 -13 29 -33 31c-44 -26 -68 -60 -68 -94s29 -58 71 -58c16 0 26 2 44 9l11 -27
c-31 -12 -58 -17 -96 -17c-76 0 -127 34 -127 86c0 43 28 71 99 101h-542v16c23 6 29 13 31 35v565c-2 22 -8 29 -31 35v16z" />
    <glyph glyph-name="Gcaron" unicode="&#x1e6;" horiz-adv-x="858" 
d="M492 862h122v-13c-9 -1 -13 -2 -17 -4c-1 0 -4 -3 -7 -6c-3 -4 -6 -7 -10 -10l-65 -73c-4 -5 -6 -9 -6 -13c0 -5 5 -8 17 -8v-13h-155v13c11 1 15 4 15 9c0 3 -3 8 -8 14l-73 81c-7 8 -11 9 -22 10v13h140v-13c-10 -1 -15 -3 -15 -7c0 -3 0 -3 7 -12l42 -50l45 52
c2 2 4 6 4 8c0 6 -4 8 -14 9v13zM654 240h-165c-22 -2 -29 -8 -35 -31h-16v155h16c6 -23 14 -30 35 -31h316v-16c-21 -5 -30 -15 -31 -35v-137c1 -21 9 -30 31 -36v-12c-126 -74 -246 -109 -368 -109c-238 0 -392 136 -392 346s158 345 402 345c81 0 134 -12 241 -53
c12 -5 22 -7 30 -7s14 3 24 12l13 -7l-78 -160l-14 7c0 20 -4 28 -24 42c-41 30 -128 53 -195 53c-147 0 -250 -96 -250 -234c0 -139 102 -231 258 -231c74 0 151 18 202 48v91z" />
    <glyph glyph-name="Gbreve" unicode="&#x11e;" horiz-adv-x="858" 
d="M293 848v12h103v-12c-13 -1 -15 -2 -15 -8c0 -28 30 -51 67 -51s67 23 67 51c0 6 -2 8 -14 8v12h103v-12c-11 -1 -14 -3 -14 -11c-3 -69 -61 -117 -142 -117c-80 0 -138 48 -141 117c0 8 -4 10 -14 11zM654 240h-165c-22 -2 -29 -8 -35 -31h-16v155h16
c6 -23 14 -30 35 -31h316v-16c-21 -5 -30 -15 -31 -35v-137c1 -21 9 -30 31 -36v-12c-126 -74 -246 -109 -368 -109c-238 0 -392 136 -392 346s158 345 402 345c81 0 134 -12 241 -53c12 -5 22 -7 30 -7s14 3 24 12l13 -7l-78 -160l-14 7c0 20 -4 28 -24 42
c-41 30 -128 53 -195 53c-147 0 -250 -96 -250 -234c0 -139 102 -231 258 -231c74 0 151 18 202 48v91z" />
    <glyph glyph-name="Gdotaccent" unicode="&#x120;" horiz-adv-x="858" 
d="M448 850c36 0 64 -28 64 -65c0 -34 -29 -62 -64 -62s-63 28 -63 63s28 64 63 64zM654 240h-165c-22 -2 -29 -8 -35 -31h-16v155h16c6 -23 14 -30 35 -31h316v-16c-21 -5 -30 -15 -31 -35v-137c1 -21 9 -30 31 -36v-12c-126 -74 -246 -109 -368 -109
c-238 0 -392 136 -392 346s158 345 402 345c81 0 134 -12 241 -53c12 -5 22 -7 30 -7s14 3 24 12l13 -7l-78 -160l-14 7c0 20 -4 28 -24 42c-41 30 -128 53 -195 53c-147 0 -250 -96 -250 -234c0 -139 102 -231 258 -231c74 0 151 18 202 48v91z" />
    <glyph glyph-name="Idotaccent" unicode="&#x130;" horiz-adv-x="328" 
d="M267 16v-16h-207v16c23 6 29 13 31 35v565c-2 22 -8 29 -31 35v16h207v-16c-23 -6 -29 -13 -31 -35v-565c1 -22 8 -29 31 -35zM163 850c36 0 64 -28 64 -65c0 -34 -29 -62 -64 -62s-63 28 -63 63s28 64 63 64z" />
    <glyph glyph-name="Lacute" unicode="&#x139;" horiz-adv-x="708" 
d="M236 110h411c21 1 29 8 35 31h16v-172h-16c-6 23 -13 29 -35 31h-587v16c23 6 29 13 31 35v565c-2 22 -8 29 -31 35v16h207v-16c-23 -6 -29 -13 -31 -35v-506zM303 862v-13c-15 -1 -21 -3 -29 -14l-69 -84c-2 -2 -3 -6 -3 -8c0 -5 4 -8 10 -8h2v-13h-106v13
c15 0 19 2 26 18l32 79c1 2 2 6 2 7c0 5 -5 9 -14 10v13h149z" />
    <glyph glyph-name="Lcaron" unicode="&#x13d;" horiz-adv-x="708" 
d="M236 110h411c21 1 29 8 35 31h16v-172h-16c-6 23 -13 29 -35 31h-587v16c23 6 29 13 31 35v565c-2 22 -8 29 -31 35v16h207v-16c-23 -6 -29 -13 -31 -35v-506zM402 466l-16 24c42 23 63 51 66 89c-13 -8 -20 -10 -31 -10c-30 0 -53 24 -53 55c0 34 22 55 58 55
c43 0 67 -29 67 -80c0 -62 -25 -99 -91 -133z" />
    <glyph glyph-name="Nacute" unicode="&#x143;" horiz-adv-x="871" 
d="M224 457v-406c1 -22 8 -29 31 -35v-16h-195v16c23 6 29 13 31 35v565c-2 22 -8 29 -31 35v16h226v-16c-14 -3 -21 -11 -21 -22c0 -9 4 -15 14 -26l368 -383v396c-2 22 -8 29 -31 35v16h195v-16c-23 -6 -30 -13 -31 -35v-565c1 -22 8 -29 31 -35v-16h-209v16
c14 3 20 9 20 21c0 8 -4 14 -24 34zM566 862v-13c-15 -1 -20 -3 -28 -14l-69 -84c-3 -3 -4 -6 -4 -8c0 -5 4 -8 11 -8h2v-13h-106v13c15 0 18 2 25 18l33 79c1 4 2 6 2 7c0 5 -5 9 -14 10v13h148z" />
    <glyph glyph-name="Ncaron" unicode="&#x147;" horiz-adv-x="871" 
d="M224 457v-406c1 -22 8 -29 31 -35v-16h-195v16c23 6 29 13 31 35v565c-2 22 -8 29 -31 35v16h226v-16c-14 -3 -21 -11 -21 -22c0 -9 4 -15 14 -26l368 -383v396c-2 22 -8 29 -31 35v16h195v-16c-23 -6 -30 -13 -31 -35v-565c1 -22 8 -29 31 -35v-16h-209v16
c14 3 20 9 20 21c0 8 -4 14 -24 34zM479 862h122v-13c-9 -1 -13 -2 -16 -4c-1 0 -4 -3 -7 -6l-10 -10l-66 -73c-3 -4 -5 -9 -5 -13c0 -5 5 -8 16 -8v-13h-154v13c11 1 15 4 15 9c0 3 -2 7 -8 14l-74 81c-7 8 -10 9 -22 10v13h140v-13c-10 -1 -15 -3 -15 -7c0 -2 3 -6 8 -12
l41 -50l45 52c4 3 5 6 5 8c0 6 -4 8 -15 9v13z" />
    <glyph glyph-name="Ohungarumlaut" unicode="&#x150;" horiz-adv-x="856" 
d="M427 679c120 0 206 -29 276 -94s108 -154 108 -256c0 -92 -40 -184 -108 -246c-69 -65 -157 -95 -275 -95c-117 0 -206 30 -275 95c-69 63 -108 154 -108 251c0 96 40 189 108 251c71 64 158 94 274 94zM427 566c-136 0 -233 -97 -233 -232c0 -136 97 -233 234 -233
c135 0 234 97 234 229c0 140 -96 236 -235 236zM482 862v-13c-16 -1 -21 -3 -29 -14l-69 -84c-2 -2 -3 -6 -3 -8c0 -5 4 -8 10 -8h2v-13h-102v13c15 0 19 2 26 18l33 79c2 5 2 6 2 7c0 5 -5 9 -14 10v13h144zM665 862v-13c-15 -1 -21 -3 -29 -14l-69 -84c-2 -2 -3 -6 -3 -8
c0 -5 4 -8 10 -8h2v-13h-101v13c15 0 19 2 26 18l32 79c1 3 2 6 2 7c0 5 -5 9 -14 10v13h144z" />
    <glyph glyph-name="Racute" unicode="&#x154;" horiz-adv-x="809" 
d="M236 272v-221c2 -22 8 -29 31 -35v-16h-207v16c23 6 29 13 31 35v565c-2 22 -8 29 -31 35v16h416c102 0 155 -11 199 -40c48 -31 76 -89 76 -158c0 -109 -60 -173 -181 -192l129 -184c48 -67 58 -75 89 -77v-16h-241v16c16 2 25 9 25 17c0 7 -4 15 -24 43l-134 196h-178z
M236 382h225c66 0 85 3 108 15c23 13 37 40 37 73c0 32 -14 59 -37 72s-40 15 -108 15h-225v-175zM515 862v-13c-15 -1 -21 -3 -29 -14l-69 -84c-2 -3 -3 -6 -3 -8c0 -5 4 -8 10 -8h2v-13h-106v13c15 0 19 2 26 18l33 79c2 5 2 6 2 7c0 5 -5 9 -14 10v13h148z" />
    <glyph glyph-name="Rcaron" unicode="&#x158;" horiz-adv-x="809" 
d="M236 272v-221c2 -22 8 -29 31 -35v-16h-207v16c23 6 29 13 31 35v565c-2 22 -8 29 -31 35v16h416c102 0 155 -11 199 -40c48 -31 76 -89 76 -158c0 -109 -60 -173 -181 -192l129 -184c48 -67 58 -75 89 -77v-16h-241v16c16 2 25 9 25 17c0 7 -4 15 -24 43l-134 196h-178z
M236 382h225c66 0 85 3 108 15c23 13 37 40 37 73c0 32 -14 59 -37 72s-40 15 -108 15h-225v-175zM428 862h122v-13c-9 -1 -13 -2 -17 -4c-1 0 -4 -3 -7 -6c-3 -4 -6 -7 -10 -10l-65 -73c-4 -5 -6 -9 -6 -13c0 -5 5 -8 17 -8v-13h-155v13c11 1 15 4 15 9c0 3 -3 8 -8 14
l-73 81c-7 8 -11 9 -22 10v13h140v-13c-10 -1 -15 -3 -15 -7c0 -3 0 -3 7 -12l42 -50l45 52c2 2 4 6 4 8c0 6 -4 8 -14 9v13z" />
    <glyph glyph-name="Sacute" unicode="&#x15a;" horiz-adv-x="720" 
d="M680 611l-79 -157l-14 8v8c0 11 -8 22 -28 35c-55 39 -130 61 -204 61c-95 0 -156 -33 -156 -85c0 -19 10 -34 30 -45c21 -11 29 -12 116 -21l77 -8c90 -9 142 -25 185 -55c45 -32 72 -88 72 -147c0 -66 -34 -129 -88 -163c-56 -34 -136 -54 -223 -54
c-90 0 -174 21 -261 64c-28 13 -28 13 -33 13s-9 -3 -20 -11l-14 7l72 164l15 -7c-1 -3 -1 -6 -1 -6c0 -15 7 -28 21 -41c42 -38 145 -70 224 -70c98 0 167 40 167 97c0 21 -13 39 -36 48c-21 8 -35 11 -100 18l-75 8c-101 10 -129 16 -170 37c-59 29 -93 88 -93 157
c0 132 110 213 287 213c85 0 149 -15 257 -61c27 -10 29 -11 34 -11c8 0 15 4 24 11zM511 862v-13c-15 -1 -21 -3 -29 -14l-69 -84c-2 -2 -3 -6 -3 -8c0 -5 4 -8 10 -8h2v-13h-106v13c15 0 19 2 26 18l32 79c1 2 2 6 2 7c0 5 -5 9 -14 10v13h149z" />
    <glyph glyph-name="Scedilla" unicode="&#x15e;" horiz-adv-x="720" 
d="M680 611l-79 -157l-14 8v8c0 11 -8 22 -28 35c-55 39 -130 61 -204 61c-95 0 -156 -33 -156 -85c0 -19 10 -34 30 -45c21 -11 29 -12 116 -21l77 -8c90 -9 142 -25 185 -55c45 -32 72 -88 72 -147c0 -66 -34 -129 -88 -163c-56 -34 -136 -54 -223 -54
c-90 0 -174 21 -261 64c-28 13 -28 13 -33 13s-9 -3 -20 -11l-14 7l72 164l15 -7c-1 -3 -1 -6 -1 -6c0 -15 7 -28 21 -41c42 -38 145 -70 224 -70c98 0 167 40 167 97c0 21 -13 39 -36 48c-21 8 -35 11 -100 18l-75 8c-101 10 -129 16 -170 37c-59 29 -93 88 -93 157
c0 132 110 213 287 213c85 0 149 -15 257 -61c27 -10 29 -11 34 -11c8 0 15 4 24 11zM269 -120l28 54c9 16 9 16 20 16c89 0 140 -32 140 -86c0 -56 -50 -92 -127 -92c-40 0 -79 6 -107 16l12 25c23 -6 36 -8 54 -8c45 0 74 18 74 46c0 21 -17 38 -38 38
c-15 0 -28 -6 -40 -19z" />
    <glyph glyph-name="Tcaron" unicode="&#x164;" horiz-adv-x="674" 
d="M410 557v-506c2 -22 8 -29 31 -35v-16h-207v16c23 6 29 13 31 35v506h-207c-22 -2 -29 -8 -35 -31h-16v172h16c6 -23 13 -29 35 -31h559c22 2 29 8 35 31h16v-172h-16c-6 23 -13 29 -35 31h-207zM381 862h122v-13c-9 -1 -13 -2 -16 -4c-2 0 -5 -3 -8 -6
c-3 -4 -6 -7 -9 -10l-66 -73c-3 -4 -5 -9 -5 -13c0 -5 5 -8 16 -8v-13h-154v13c11 1 15 4 15 9c0 3 -2 7 -8 14l-74 81c-7 8 -10 9 -22 10v13h140v-13c-10 -1 -15 -3 -15 -7c0 -2 3 -6 8 -12l41 -50l45 52c4 3 5 6 5 8c0 6 -4 8 -15 9v13z" />
    <glyph glyph-name="Uring" unicode="&#x16e;" horiz-adv-x="816" 
d="M769 667v-16c-23 -6 -29 -13 -31 -35v-374c0 -103 -27 -166 -87 -202c-57 -35 -137 -52 -243 -52s-187 17 -243 52c-60 36 -87 99 -87 202v374c-2 22 -8 29 -31 35v16h208v-16c-24 -6 -30 -13 -32 -35v-333c0 -77 7 -107 30 -132c30 -32 88 -50 161 -50s130 18 160 50
c23 25 30 55 30 132v333c-2 22 -8 29 -31 35v16h196zM411 885c64 0 112 -40 112 -92c0 -50 -50 -91 -112 -91c-61 0 -111 42 -111 92c0 51 49 91 111 91zM411 834c-28 0 -49 -17 -49 -40s22 -41 50 -41c27 0 49 18 49 40c0 24 -21 41 -50 41z" />
    <glyph glyph-name="Uhungarumlaut" unicode="&#x170;" horiz-adv-x="816" 
d="M769 667v-16c-23 -6 -29 -13 -31 -35v-374c0 -103 -27 -166 -87 -202c-57 -35 -137 -52 -243 -52s-187 17 -243 52c-60 36 -87 99 -87 202v374c-2 22 -8 29 -31 35v16h208v-16c-24 -6 -30 -13 -32 -35v-333c0 -77 7 -107 30 -132c30 -32 88 -50 161 -50s130 18 160 50
c23 25 30 55 30 132v333c-2 22 -8 29 -31 35v16h196zM455 862v-13c-15 -1 -21 -3 -29 -14l-69 -84c-2 -3 -3 -6 -3 -8c0 -5 4 -8 10 -8h2v-13h-101v13c15 0 19 2 26 18l32 79c1 3 2 6 2 7c0 5 -5 9 -14 10v13h144zM638 862v-13c-15 -1 -20 -3 -28 -14l-69 -84
c-3 -3 -4 -6 -4 -8c0 -5 4 -8 11 -8h2v-13h-102v13c15 0 19 2 26 18l33 79c2 6 2 6 2 7c0 5 -5 9 -14 10v13h143z" />
    <glyph glyph-name="Zacute" unicode="&#x179;" horiz-adv-x="714" 
d="M277 110h346c22 2 29 8 35 31h16v-172h-16c-6 23 -13 29 -35 31h-583v34l388 523h-334c-22 -2 -29 -8 -35 -31h-16v172h16c6 -23 13 -29 35 -31h575v-28zM478 862v-13c-16 -1 -21 -3 -29 -14l-69 -84c-2 -2 -3 -6 -3 -8c0 -5 4 -8 10 -8h2v-13h-106v13c15 0 19 2 26 18
l32 79c1 3 2 6 2 7c0 5 -5 9 -14 10v13h149z" />
    <glyph glyph-name="Zdotaccent" unicode="&#x17b;" horiz-adv-x="714" 
d="M277 110h346c22 2 29 8 35 31h16v-172h-16c-6 23 -13 29 -35 31h-583v34l388 523h-334c-22 -2 -29 -8 -35 -31h-16v172h16c6 -23 13 -29 35 -31h575v-28zM346 850c36 0 64 -28 64 -65c0 -34 -29 -62 -64 -62s-63 28 -63 63s28 64 63 64z" />
    <glyph glyph-name="Amacron" unicode="&#x100;" horiz-adv-x="813" 
d="M553 847v-127h-13c-9 22 -14 26 -36 27h-202c-22 -2 -26 -5 -36 -27h-13v127h13c9 -21 14 -25 36 -27h202c22 2 27 6 36 27h13zM548 170h-303l-45 -94c-5 -12 -9 -24 -9 -31c0 -14 11 -24 32 -29v-16h-220v16c25 4 33 12 53 51l245 513c8 16 12 29 12 39
c0 15 -9 26 -28 32v16h236v-16c-17 -5 -29 -15 -29 -26c0 -10 6 -29 17 -50l247 -499c24 -46 34 -56 60 -60v-16h-245v16c21 3 32 13 32 30c0 8 -3 17 -9 30zM506 261l-108 238l-110 -238h218z" />
    <glyph glyph-name="Tcommaaccent" unicode="&#x162;" horiz-adv-x="674" 
d="M410 557v-506c2 -22 8 -29 31 -35v-16h-207v16c23 6 29 13 31 35v506h-207c-22 -2 -29 -8 -35 -31h-16v172h16c6 -23 13 -29 35 -31h559c22 2 29 8 35 31h16v-172h-16c-6 23 -13 29 -35 31h-207zM309 -256l-16 24c38 20 62 50 66 82c-13 -8 -20 -10 -31 -10
c-30 0 -53 24 -53 55c0 34 22 55 58 55c41 0 67 -29 67 -76c0 -59 -26 -97 -91 -130z" />
    <glyph glyph-name="uni021A" unicode="&#x21a;" horiz-adv-x="674" 
d="M410 557v-506c2 -22 8 -29 31 -35v-16h-207v16c23 6 29 13 31 35v506h-207c-22 -2 -29 -8 -35 -31h-16v172h16c6 -23 13 -29 35 -31h559c22 2 29 8 35 31h16v-172h-16c-6 23 -13 29 -35 31h-207zM309 -256l-16 24c38 20 62 50 66 82c-13 -8 -20 -10 -31 -10
c-30 0 -53 24 -53 55c0 34 22 55 58 55c41 0 67 -29 67 -76c0 -59 -26 -97 -91 -130z" />
    <glyph glyph-name="Ccircumflex" unicode="&#x108;" horiz-adv-x="839" 
d="M405 722h-122v13c9 1 13 2 17 4c1 0 4 3 7 6c3 4 6 7 10 10l65 73c4 4 6 9 6 13c0 5 -5 8 -17 8v13h155v-13c-11 -1 -15 -4 -15 -9c0 -3 2 -8 8 -14l73 -81c7 -8 11 -9 22 -10v-13h-140v13c11 1 16 3 16 7c0 1 -3 5 -8 12l-41 50l-46 -52c-2 -2 -4 -6 -4 -8
c0 -6 4 -8 14 -9v-13zM707 229l92 -139l-12 -9c-10 9 -16 12 -24 12c-7 0 -26 -9 -48 -23c-85 -55 -178 -82 -278 -82c-105 0 -192 25 -259 75c-85 62 -133 160 -133 271c0 110 48 208 133 270c68 50 154 75 260 75c100 0 179 -23 271 -79c33 -20 47 -26 57 -26
c6 0 10 3 21 12l12 -9l-92 -139l-13 9v13c0 12 -3 19 -14 28c-57 49 -142 78 -231 78c-150 0 -255 -95 -255 -233c0 -68 29 -132 80 -175c46 -39 104 -57 182 -57c67 0 122 15 182 49c41 23 56 38 56 56v14z" />
    <glyph glyph-name="Wcircumflex" unicode="&#x174;" horiz-adv-x="1128" 
d="M565 470l-153 -386c-13 -29 -13 -29 -13 -37c0 -14 12 -25 36 -31v-16h-214v16c21 4 32 15 32 33c0 7 -3 17 -13 43l-191 492c-20 51 -31 63 -59 67v16h231v-16c-23 -5 -31 -12 -31 -28c0 -8 2 -17 8 -33l132 -353l143 355c10 24 10 24 10 30c0 16 -10 25 -33 29v16h242
v-16c-23 -6 -33 -15 -33 -31c0 -7 2 -15 8 -30l135 -354l132 348c7 19 10 30 10 39c0 16 -10 24 -36 28v16h230v-16c-32 -8 -36 -13 -58 -67l-191 -492c-10 -26 -14 -39 -14 -47c0 -15 13 -26 35 -29v-16h-217v16c21 3 33 15 33 32c0 10 0 10 -14 44zM524 722h-122v13
c9 1 13 2 16 4c2 0 5 3 8 6c3 4 6 7 9 10l66 73c4 5 6 9 6 13c0 5 -5 8 -17 8v13h155v-13c-11 -1 -15 -4 -15 -9c0 -3 3 -9 8 -14l73 -81c7 -8 10 -9 22 -10v-13h-140v13c10 1 15 3 15 7c0 3 0 3 -8 12l-41 50l-45 -52c-3 -2 -4 -5 -4 -8c0 -6 4 -8 14 -9v-13z" />
    <glyph glyph-name="Wdieresis" unicode="&#x1e84;" horiz-adv-x="1128" 
d="M565 470l-153 -386c-13 -29 -13 -29 -13 -37c0 -14 12 -25 36 -31v-16h-214v16c21 4 32 15 32 33c0 7 -3 17 -13 43l-191 492c-20 51 -31 63 -59 67v16h231v-16c-23 -5 -31 -12 -31 -28c0 -8 2 -17 8 -33l132 -353l143 355c10 24 10 24 10 30c0 16 -10 25 -33 29v16h242
v-16c-23 -6 -33 -15 -33 -31c0 -7 2 -15 8 -30l135 -354l132 348c7 19 10 30 10 39c0 16 -10 24 -36 28v16h230v-16c-32 -8 -36 -13 -58 -67l-191 -492c-10 -26 -14 -39 -14 -47c0 -15 13 -26 35 -29v-16h-217v16c21 3 33 15 33 32c0 10 0 10 -14 44zM470 850
c36 0 64 -28 64 -65c0 -34 -29 -62 -64 -62s-63 28 -63 63s28 64 63 64zM664 850c36 0 64 -28 64 -63c0 -36 -28 -64 -65 -64c-34 0 -62 29 -62 64s28 63 63 63z" />
    <glyph glyph-name="Ycircumflex" unicode="&#x176;" horiz-adv-x="713" 
d="M429 279v-228c2 -22 8 -29 32 -35v-16h-209v16c24 6 30 13 32 35v228l-216 303c-35 51 -54 67 -81 69v16h263v-16c-20 -3 -33 -14 -33 -30c0 -8 1 -9 20 -39l121 -179l123 179c18 26 20 31 20 40c0 14 -13 26 -33 29v16h258v-16c-28 -2 -46 -17 -82 -69zM313 722h-122v13
c9 1 13 2 17 4c1 0 4 3 7 6c3 4 6 7 10 10l65 73c4 4 6 9 6 13c0 5 -5 8 -17 8v13h155v-13c-11 -1 -15 -4 -15 -9c0 -3 2 -8 8 -14l73 -81c7 -8 11 -9 22 -10v-13h-140v13c11 1 16 3 16 7c0 1 -3 5 -8 12l-41 50l-46 -52c-2 -2 -4 -6 -4 -8c0 -6 4 -8 14 -9v-13z" />
    <glyph glyph-name="Hbar" unicode="&#x126;" horiz-adv-x="858" 
d="M236 566h386v50c-2 22 -8 29 -31 35v16h207v-16c-23 -6 -30 -14 -31 -35v-45h32c22 2 29 8 35 32h16v-160h-16c-6 23 -13 29 -35 31h-32v-423c1 -22 8 -29 31 -35v-16h-207v16c23 6 29 13 31 35v239h-386v-239c1 -22 8 -29 31 -35v-16h-207v16c23 6 29 13 31 35v423h-32
c-22 -2 -29 -8 -35 -31h-16v160h16c6 -24 13 -30 35 -32h32v45c-2 22 -8 29 -31 35v16h207v-16c-23 -6 -30 -13 -31 -35v-50zM236 479v-82h386v82h-386z" />
    <glyph glyph-name="Emacron" unicode="&#x112;" horiz-adv-x="760" 
d="M236 292v-182h430c21 2 29 8 35 31h15v-172h-15c-6 23 -13 29 -35 31h-606v16c23 6 29 13 31 35v565c-2 22 -8 29 -31 35v16h594c22 2 29 8 35 31h16v-172h-16c-6 23 -13 29 -35 31h-418v-159h271c22 1 29 8 35 32h16v-169h-16c-6 23 -13 29 -35 31h-271zM542 847v-127
h-13c-9 22 -14 26 -36 27h-202c-22 -2 -26 -5 -36 -27h-13v127h13c9 -21 14 -25 36 -27h202c22 2 27 6 36 27h13z" />
    <glyph glyph-name="Gcircumflex" unicode="&#x11c;" horiz-adv-x="858" 
d="M405 722h-122v13c9 1 13 2 16 4c2 0 5 3 8 6c3 4 6 7 9 10l66 73c4 5 6 9 6 13c0 5 -5 8 -17 8v13h154v-13c-10 -1 -14 -4 -14 -9c0 -3 3 -9 7 -14l74 -81c7 -8 10 -9 22 -10v-13h-140v13c10 1 15 3 15 7c0 2 -3 6 -8 12l-41 50l-45 -52c-4 -3 -5 -6 -5 -8
c0 -6 4 -8 15 -9v-13zM654 240h-165c-22 -2 -29 -8 -35 -31h-16v155h16c6 -23 14 -30 35 -31h316v-16c-21 -5 -30 -15 -31 -35v-137c1 -21 9 -30 31 -36v-12c-126 -74 -246 -109 -368 -109c-238 0 -392 136 -392 346s158 345 402 345c81 0 134 -12 241 -53
c12 -5 22 -7 30 -7s14 3 24 12l13 -7l-78 -160l-14 7c0 20 -4 28 -24 42c-41 30 -128 53 -195 53c-147 0 -250 -96 -250 -234c0 -139 102 -231 258 -231c74 0 151 18 202 48v91z" />
    <glyph glyph-name="Hcircumflex" unicode="&#x124;" horiz-adv-x="858" 
d="M622 291h-386v-240c1 -22 8 -29 31 -35v-16h-207v16c23 6 29 13 31 35v565c-2 22 -8 29 -31 35v16h207v-16c-23 -6 -29 -13 -31 -35v-215h386v215c-2 22 -8 29 -31 35v16h207v-16c-23 -6 -30 -13 -31 -35v-565c1 -22 8 -29 31 -35v-16h-207v16c23 6 29 13 31 35v240z
M385 722h-122v13c10 1 14 2 17 4c1 0 4 3 7 6c3 4 7 7 10 10l66 73c3 4 5 9 5 13c0 5 -5 8 -16 8v13h154v-13c-11 -1 -15 -4 -15 -9c0 -3 2 -7 8 -14l73 -81c7 -8 11 -9 23 -10v-13h-140v13c10 1 15 3 15 7c0 2 -3 5 -8 12l-41 50l-46 -52c-3 -3 -4 -6 -4 -8
c0 -6 4 -8 14 -9v-13z" />
    <glyph glyph-name="Imacron" unicode="&#x12a;" horiz-adv-x="328" 
d="M267 16v-16h-207v16c23 6 29 13 31 35v565c-2 22 -8 29 -31 35v16h207v-16c-23 -6 -29 -13 -31 -35v-565c1 -22 8 -29 31 -35zM300 847v-127h-13c-9 22 -14 26 -36 27h-175c-22 -2 -26 -5 -36 -27h-13v127h13c9 -21 14 -25 36 -27h175c22 2 27 6 36 27h13z" />
    <glyph glyph-name="Iogonek" unicode="&#x12e;" horiz-adv-x="328" 
d="M267 0h-23c-44 -26 -68 -60 -68 -94s29 -58 71 -58c15 0 26 2 45 9l11 -27c-31 -12 -59 -17 -96 -17c-77 0 -127 34 -127 87c0 42 28 70 99 100h-119v16c23 6 29 13 31 35v565c-2 22 -8 29 -31 35v16h207v-16c-23 -6 -29 -13 -31 -35v-565c1 -22 8 -29 31 -35v-16z" />
    <glyph glyph-name="Kcommaaccent" unicode="&#x136;" horiz-adv-x="802" 
d="M371 -256l-17 24c39 20 63 50 67 82c-13 -8 -20 -10 -31 -10c-30 0 -53 24 -53 55c0 34 22 55 58 55c41 0 67 -29 67 -76c0 -59 -26 -97 -91 -130zM336 312l-100 -82v-179c2 -22 8 -29 31 -35v-16h-207v16c23 6 29 13 31 35v565c-2 22 -8 29 -31 35v16h207v-16
c-23 -6 -29 -13 -31 -35v-233l265 216c23 18 29 26 29 33c0 9 -10 16 -29 19v16h273v-16c-15 -2 -21 -5 -30 -11c-4 -3 -9 -6 -14 -11c-20 -16 -41 -33 -61 -50l-226 -182l257 -309c56 -65 60 -68 91 -72v-16h-260v16c17 3 25 9 25 18c0 7 -4 12 -23 36z" />
    <glyph glyph-name="Lcommaaccent" unicode="&#x13b;" horiz-adv-x="708" 
d="M236 110h411c21 1 29 8 35 31h16v-172h-16c-6 23 -13 29 -35 31h-587v16c23 6 29 13 31 35v565c-2 22 -8 29 -31 35v16h207v-16c-23 -6 -29 -13 -31 -35v-506zM350 -256l-16 24c38 20 63 50 67 82c-14 -8 -21 -10 -32 -10c-30 0 -53 24 -53 55c0 34 22 55 58 55
c42 0 68 -29 68 -76c0 -59 -26 -96 -92 -130z" />
    <glyph glyph-name="Ncommaaccent" unicode="&#x145;" horiz-adv-x="871" 
d="M224 457v-406c1 -22 8 -29 31 -35v-16h-195v16c23 6 29 13 31 35v565c-2 22 -8 29 -31 35v16h226v-16c-14 -3 -21 -11 -21 -22c0 -9 4 -15 14 -26l368 -383v396c-2 22 -8 29 -31 35v16h195v-16c-23 -6 -30 -13 -31 -35v-565c1 -22 8 -29 31 -35v-16h-209v16
c14 3 20 9 20 21c0 8 -4 14 -24 34zM400 -256l-16 24c38 20 63 50 67 82c-14 -8 -20 -10 -31 -10c-31 0 -54 24 -54 55c0 34 22 55 58 55c42 0 68 -29 68 -76c0 -59 -26 -97 -92 -130z" />
    <glyph glyph-name="Omacron" unicode="&#x14c;" horiz-adv-x="856" 
d="M427 679c120 0 206 -29 276 -94s108 -154 108 -256c0 -92 -40 -184 -108 -246c-69 -65 -157 -95 -275 -95c-117 0 -206 30 -275 95c-69 63 -108 154 -108 251c0 96 40 189 108 251c71 64 158 94 274 94zM427 566c-136 0 -233 -97 -233 -232c0 -136 97 -233 234 -233
c135 0 234 97 234 229c0 140 -96 236 -235 236zM578 847v-127h-13c-9 22 -14 26 -36 27h-202c-22 -2 -26 -5 -36 -27h-13v127h13c9 -21 14 -25 36 -27h202c22 2 27 6 36 27h13z" />
    <glyph glyph-name="Rcommaaccent" unicode="&#x156;" horiz-adv-x="809" 
d="M236 272v-221c2 -22 8 -29 31 -35v-16h-207v16c23 6 29 13 31 35v565c-2 22 -8 29 -31 35v16h416c102 0 155 -11 199 -40c48 -31 76 -89 76 -158c0 -109 -60 -173 -181 -192l129 -184c48 -67 58 -75 89 -77v-16h-241v16c16 2 25 9 25 17c0 7 -4 15 -24 43l-134 196h-178z
M236 382h225c66 0 85 3 108 15c23 13 37 40 37 73c0 32 -14 59 -37 72s-40 15 -108 15h-225v-175zM372 -256l-16 24c38 20 63 50 67 82c-14 -8 -21 -10 -31 -10c-31 0 -54 24 -54 55c0 34 22 55 58 55c42 0 68 -29 68 -76c0 -59 -26 -97 -92 -130z" />
    <glyph glyph-name="Scircumflex" unicode="&#x15c;" horiz-adv-x="720" 
d="M680 611l-79 -157l-14 8v8c0 11 -8 22 -28 35c-55 39 -130 61 -204 61c-95 0 -156 -33 -156 -85c0 -19 10 -34 30 -45c21 -11 29 -12 116 -21l77 -8c90 -9 142 -25 185 -55c45 -32 72 -88 72 -147c0 -66 -34 -129 -88 -163c-56 -34 -136 -54 -223 -54
c-90 0 -174 21 -261 64c-28 13 -28 13 -33 13s-9 -3 -20 -11l-14 7l72 164l15 -7c-1 -3 -1 -6 -1 -6c0 -15 7 -28 21 -41c42 -38 145 -70 224 -70c98 0 167 40 167 97c0 21 -13 39 -36 48c-21 8 -35 11 -100 18l-75 8c-101 10 -129 16 -170 37c-59 29 -93 88 -93 157
c0 132 110 213 287 213c85 0 149 -15 257 -61c27 -10 29 -11 34 -11c8 0 15 4 24 11zM337 722h-122v13c9 1 13 2 16 4c1 0 4 3 7 6l10 10l66 73c3 4 5 9 5 13c0 5 -5 8 -16 8v13h154v-13c-11 -1 -15 -4 -15 -9c0 -4 2 -7 8 -14l74 -81c7 -8 10 -9 22 -10v-13h-140v13
c10 1 15 3 15 7c0 2 -3 6 -8 12l-41 50l-45 -52c-4 -3 -5 -6 -5 -8c0 -6 4 -8 15 -9v-13z" />
    <glyph glyph-name="Gcommaaccent" unicode="&#x122;" horiz-adv-x="858" 
d="M654 240h-165c-22 -2 -29 -8 -35 -31h-16v155h16c6 -23 14 -30 35 -31h316v-16c-23 -6 -29 -13 -31 -35v-137c2 -23 8 -29 31 -36v-12c-126 -74 -246 -109 -368 -109c-238 0 -392 136 -392 346s158 345 402 345c77 0 139 -13 223 -47c19 -7 40 -13 48 -13s14 3 24 12
l13 -7l-78 -160l-14 7c0 21 -3 26 -22 41c-39 29 -128 54 -197 54c-147 0 -250 -96 -250 -234c0 -139 102 -231 258 -231c74 0 151 18 202 48v91zM413 -256l-16 24c38 20 62 50 67 82c-14 -8 -21 -10 -32 -10c-30 0 -53 24 -53 55c0 34 22 55 58 55c41 0 67 -29 67 -76
c0 -59 -26 -97 -91 -130z" />
    <glyph glyph-name="uni01D3" unicode="&#x1d3;" horiz-adv-x="816" 
d="M769 667v-16c-23 -6 -29 -13 -31 -35v-374c0 -103 -27 -166 -87 -202c-57 -35 -137 -52 -243 -52s-187 17 -243 52c-60 36 -87 99 -87 202v374c-2 22 -8 29 -31 35v16h208v-16c-24 -6 -30 -13 -32 -35v-333c0 -77 7 -107 30 -132c30 -32 88 -50 161 -50s130 18 160 50
c23 25 30 55 30 132v333c-2 22 -8 29 -31 35v16h196zM455 862h122v-13c-9 -1 -13 -2 -16 -4c-2 0 -5 -3 -8 -6c-3 -4 -6 -7 -9 -10l-66 -73c-3 -4 -5 -9 -5 -13c0 -5 5 -8 16 -8v-13h-154v13c11 1 15 4 15 9c0 3 -2 7 -8 14l-74 81c-7 8 -10 9 -22 10v13h140v-13
c-10 -1 -15 -3 -15 -7c0 -2 3 -6 8 -12l41 -50l45 52c4 3 5 6 5 8c0 6 -4 8 -15 9v13z" />
    <glyph glyph-name="Umacron" unicode="&#x16a;" horiz-adv-x="816" 
d="M769 667v-16c-23 -6 -29 -13 -31 -35v-374c0 -103 -27 -166 -87 -202c-57 -35 -137 -52 -243 -52s-187 17 -243 52c-60 36 -87 99 -87 202v374c-2 22 -8 29 -31 35v16h208v-16c-24 -6 -30 -13 -32 -35v-333c0 -77 7 -107 30 -132c30 -32 88 -50 161 -50s130 18 160 50
c23 25 30 55 30 132v333c-2 22 -8 29 -31 35v16h196zM562 847v-127h-13c-9 22 -14 26 -36 27h-202c-22 -2 -26 -5 -36 -27h-13v127h13c9 -21 14 -25 36 -27h202c22 2 27 6 36 27h13z" />
    <glyph glyph-name="Uogonek" unicode="&#x172;" horiz-adv-x="816" 
d="M649 -140l11 -26c-32 -13 -59 -18 -97 -18c-77 0 -127 34 -127 87c0 36 18 56 79 93c-45 -6 -68 -8 -107 -8c-106 0 -187 17 -243 52c-60 36 -87 99 -87 202v374c-2 22 -8 29 -31 35v16h208v-16c-24 -6 -30 -13 -32 -35v-333c0 -77 7 -107 30 -132c30 -32 88 -50 161 -50
s130 18 160 50c23 25 30 55 30 132v333c-2 22 -8 29 -31 35v16h196v-16c-23 -6 -29 -13 -31 -35v-374c-4 -133 -29 -175 -137 -231c-38 -22 -68 -67 -68 -102c0 -34 30 -58 71 -58c15 0 26 2 45 9z" />
    <glyph glyph-name="uni0226" unicode="&#x226;" horiz-adv-x="813" 
d="M402 850c36 0 64 -28 64 -65c0 -34 -29 -62 -64 -62s-63 28 -63 63s28 64 63 64zM548 170h-303l-45 -94c-5 -12 -9 -24 -9 -31c0 -14 11 -24 32 -29v-16h-220v16c25 4 33 12 53 51l245 513c8 16 12 29 12 39c0 15 -9 26 -28 32v16h236v-16c-17 -5 -29 -15 -29 -26
c0 -10 6 -29 17 -50l247 -499c24 -46 34 -56 60 -60v-16h-245v16c21 3 32 13 32 30c0 8 -3 17 -9 30zM506 261l-108 238l-110 -238h218z" />
    <glyph glyph-name="Ebreve" unicode="&#x114;" horiz-adv-x="760" 
d="M236 292v-182h430c21 2 29 8 35 31h15v-172h-15c-6 23 -13 29 -35 31h-606v16c23 6 29 13 31 35v565c-2 22 -8 29 -31 35v16h594c22 2 29 8 35 31h16v-172h-16c-6 23 -13 29 -35 31h-418v-159h271c22 1 29 8 35 32h16v-169h-16c-6 23 -13 29 -35 31h-271zM236 848v12h103
v-12c-12 0 -14 -2 -14 -8c0 -28 30 -51 67 -51s67 23 67 51c0 6 -2 8 -15 8v12h103v-12c-10 -1 -14 -3 -14 -11c-3 -69 -61 -117 -141 -117c-81 0 -139 48 -142 117c0 8 -3 10 -14 11z" />
    <glyph glyph-name="uni1E1E" unicode="&#x1e1e;" horiz-adv-x="727" 
d="M236 292v-241c1 -22 8 -29 31 -35v-16h-207v16c23 6 29 13 31 35v565c-2 22 -8 29 -31 35v16h590c22 2 29 8 35 31h16v-172h-16c-6 23 -13 29 -35 31h-414v-159h271c22 2 29 8 35 31h16v-168h-16c-6 23 -13 29 -35 31h-271zM386 850c36 0 64 -28 64 -65
c0 -34 -29 -62 -64 -62s-63 28 -63 63s28 64 63 64z" />
    <glyph glyph-name="uni01F4" unicode="&#x1f4;" horiz-adv-x="858" 
d="M582 862v-13c-15 -1 -20 -3 -28 -14l-69 -84c-3 -3 -4 -6 -4 -8c0 -5 4 -8 11 -8h2v-13h-106v13c15 0 18 2 25 18l33 79c1 4 2 6 2 7c0 5 -5 9 -14 10v13h148zM654 240h-165c-22 -2 -29 -8 -35 -31h-16v155h16c6 -23 14 -30 35 -31h316v-16c-21 -5 -30 -15 -31 -35v-137
c1 -21 9 -30 31 -36v-12c-126 -74 -246 -109 -368 -109c-238 0 -392 136 -392 346s158 345 402 345c81 0 134 -12 241 -53c12 -5 22 -7 30 -7s14 3 24 12l13 -7l-78 -160l-14 7c0 20 -4 28 -24 42c-41 30 -128 53 -195 53c-147 0 -250 -96 -250 -234
c0 -139 102 -231 258 -231c74 0 151 18 202 48v91z" />
    <glyph glyph-name="uni0237" unicode="&#x237;" horiz-adv-x="505" 
d="M3 15l48 149l13 -5c0 -13 2 -19 11 -27c21 -21 82 -40 128 -40c70 0 103 31 103 95v310c-2 23 -8 30 -31 36v14h193v-14c-23 -6 -29 -13 -31 -36v-312c0 -80 -16 -123 -55 -153c-36 -27 -96 -44 -160 -44c-52 0 -90 8 -169 33c-6 2 -11 3 -15 3c-8 0 -14 -4 -22 -13z" />
    <glyph glyph-name="ij" unicode="&#x133;" horiz-adv-x="791" 
d="M48 547h193v-14c-23 -6 -29 -13 -31 -36v-447c2 -23 8 -30 31 -37v-13h-193v13c23 7 29 14 31 37v447c-2 23 -7 29 -31 36v14zM289 15l48 149l13 -5c0 -13 2 -19 11 -27c21 -21 82 -40 128 -40c70 0 103 31 103 95v310c-2 23 -8 30 -31 36v14h193v-14
c-23 -6 -29 -13 -31 -36v-312c0 -80 -16 -123 -55 -153c-36 -27 -96 -44 -160 -44c-52 0 -90 8 -169 33c-6 2 -11 3 -15 3c-8 0 -14 -4 -22 -13z" />
    <glyph glyph-name="uni01CE" unicode="&#x1ce;" horiz-adv-x="694" 
d="M463 137h-251l-29 -59c-7 -15 -10 -26 -10 -34c0 -15 11 -26 31 -31v-13h-201v13c24 4 34 13 49 45l200 404c7 15 11 29 11 40c0 15 -7 23 -28 31v14h213v-14c-18 -6 -27 -18 -27 -33c0 -10 4 -24 12 -39l207 -393c23 -43 30 -49 57 -55v-13h-223v13c20 4 31 14 31 30
c0 9 -6 26 -12 38zM423 214l-89 175l-85 -175h174zM384 748h122v-13c-10 -1 -14 -2 -17 -4c-1 0 -4 -3 -7 -6c-3 -4 -7 -7 -10 -10l-66 -73c-3 -4 -5 -9 -5 -13c0 -5 5 -8 16 -8v-13h-154v13c11 1 15 4 15 9c0 4 -2 7 -8 14l-73 81c-7 8 -11 9 -23 10v13h140v-13
c-10 -1 -15 -3 -15 -7c0 -2 3 -5 8 -12l41 -50l46 52c3 3 4 6 4 8c0 6 -4 8 -14 9v13z" />
    <glyph glyph-name="abreve" unicode="&#x103;" horiz-adv-x="694" 
d="M463 137h-251l-29 -59c-7 -15 -10 -26 -10 -34c0 -15 11 -26 31 -31v-13h-201v13c24 4 34 13 49 45l200 404c7 15 11 29 11 40c0 15 -7 23 -28 31v14h213v-14c-18 -6 -27 -18 -27 -33c0 -10 4 -24 12 -39l207 -393c23 -43 30 -49 57 -55v-13h-223v13c20 4 31 14 31 30
c0 9 -6 26 -12 38zM423 214l-89 175l-85 -175h174zM186 735v12h103v-12c-12 0 -14 -2 -14 -8c0 -28 30 -51 67 -51s67 23 67 51c0 6 -2 8 -15 8v12h103v-12c-10 -1 -14 -3 -14 -11c-3 -69 -61 -117 -141 -117c-81 0 -139 48 -142 117c0 8 -3 10 -14 11z" />
    <glyph glyph-name="aogonek" unicode="&#x105;" horiz-adv-x="694" 
d="M697 0h-23c-36 -27 -56 -57 -56 -84c0 -31 24 -50 64 -50c8 0 19 2 36 5l7 -21c-33 -10 -48 -12 -80 -12c-73 0 -114 27 -114 74c0 23 11 44 31 59c11 8 19 13 49 29h-137v13c20 4 31 14 31 30c0 9 -6 26 -12 38l-30 56h-251l-29 -59c-7 -15 -10 -26 -10 -34
c0 -15 11 -26 31 -31v-13h-201v13c24 4 34 13 49 45l200 404c7 15 11 29 11 40c0 15 -7 23 -28 31v14h213v-14c-18 -6 -27 -18 -27 -33c0 -10 4 -24 12 -39l207 -393c23 -43 30 -49 57 -55v-13zM423 214l-89 175l-85 -175h174z" />
    <glyph glyph-name="cacute" unicode="&#x107;" horiz-adv-x="697" 
d="M507 748v-13c-16 -1 -21 -3 -29 -13l-69 -84c-2 -3 -3 -6 -3 -8c0 -5 4 -8 10 -8h2v-13h-106v13c15 0 19 2 26 18l32 78c1 2 2 6 2 7c0 6 -5 9 -13 10v13h148zM583 196l82 -120l-11 -9c-8 6 -14 9 -19 9c-6 0 -13 -3 -38 -18c-90 -53 -147 -70 -236 -70
c-195 0 -325 114 -325 285s130 286 324 286c90 0 147 -17 237 -70c25 -15 32 -18 39 -18c4 0 10 2 18 8l11 -8l-82 -120l-11 8c1 5 2 10 2 13c0 17 -20 34 -66 55c-42 20 -83 29 -126 29c-123 0 -213 -77 -213 -182c0 -106 90 -183 213 -183c47 0 92 11 138 35
c39 20 54 33 54 49c0 3 -1 8 -2 13z" />
    <glyph glyph-name="ccaron" unicode="&#x10d;" horiz-adv-x="697" 
d="M419 748h122v-13c-9 -1 -13 -2 -16 -4c-2 0 -5 -3 -8 -6c-3 -4 -6 -7 -9 -10l-66 -73c-3 -4 -5 -9 -5 -13c0 -5 5 -8 16 -8v-13h-154v13c11 1 15 4 15 9c0 3 -2 7 -8 14l-74 81c-7 8 -10 9 -22 10v13h140v-13c-10 -1 -15 -3 -15 -7c0 -2 3 -6 8 -12l41 -50l45 52
c4 3 5 6 5 8c0 6 -4 8 -15 9v13zM583 196l82 -120l-11 -9c-8 6 -14 9 -19 9c-6 0 -13 -3 -38 -18c-90 -53 -147 -70 -236 -70c-195 0 -325 114 -325 285s130 286 324 286c90 0 147 -17 237 -70c25 -15 32 -18 39 -18c4 0 10 2 18 8l11 -8l-82 -120l-11 8c1 5 2 10 2 13
c0 17 -20 34 -66 55c-42 20 -83 29 -126 29c-123 0 -213 -77 -213 -182c0 -106 90 -183 213 -183c47 0 92 11 138 35c39 20 54 33 54 49c0 3 -1 8 -2 13z" />
    <glyph glyph-name="cdotaccent" unicode="&#x10b;" horiz-adv-x="697" 
d="M373 737c36 0 64 -28 64 -65c0 -34 -29 -62 -64 -62s-63 28 -63 63s28 64 63 64zM583 196l82 -120l-11 -9c-8 6 -14 9 -19 9c-6 0 -13 -3 -38 -18c-90 -53 -147 -70 -236 -70c-195 0 -325 114 -325 285s130 286 324 286c90 0 147 -17 237 -70c25 -15 32 -18 39 -18
c4 0 10 2 18 8l11 -8l-82 -120l-11 8c1 5 2 10 2 13c0 17 -20 34 -66 55c-42 20 -83 29 -126 29c-123 0 -213 -77 -213 -182c0 -106 90 -183 213 -183c47 0 92 11 138 35c39 20 54 33 54 49c0 3 -1 8 -2 13z" />
    <glyph glyph-name="dcaron" unicode="&#x10f;" horiz-adv-x="704" 
d="M48 547h320c102 0 167 -18 216 -61c55 -47 84 -120 84 -212c0 -93 -28 -164 -84 -213c-49 -43 -113 -61 -216 -61h-320v13c23 7 29 14 31 37v447c-2 23 -8 29 -31 37v13zM210 99h140c67 0 109 13 140 44c30 31 45 74 45 131c0 56 -15 99 -45 130c-31 31 -73 44 -140 44
h-140v-349zM372 748h122v-13c-10 -1 -14 -2 -17 -4c-1 0 -4 -3 -7 -6c-3 -4 -7 -7 -10 -10l-65 -73c-4 -4 -6 -9 -6 -13c0 -5 5 -8 16 -8v-13h-154v13c11 1 15 4 15 9c0 3 -2 8 -8 14l-73 81c-7 8 -11 9 -23 10v13h140v-13c-10 -1 -15 -3 -15 -7c0 -1 3 -5 8 -12l41 -50
l46 52c3 3 4 6 4 8c0 6 -4 8 -14 9v13z" />
    <glyph glyph-name="dcroat" unicode="&#x111;" horiz-adv-x="714" 
d="M58 0v13c24 7 30 14 32 37v196h-26c-22 -2 -29 -8 -35 -32h-16v146h16c6 -23 13 -29 35 -31h26v168c-2 23 -8 30 -31 37l-1 13h321c102 0 166 -18 216 -61c55 -47 84 -120 84 -212s-28 -164 -84 -213c-49 -43 -113 -61 -216 -61h-321zM221 329h102c22 2 29 8 35 31h16
v-146h-16c-6 24 -13 30 -35 32h-102v-147h139c68 0 110 13 141 44c30 31 45 75 45 131s-15 99 -45 130c-31 31 -73 44 -141 44h-139v-119z" />
    <glyph glyph-name="ecaron" unicode="&#x11b;" horiz-adv-x="642" 
d="M210 233v-134h347c23 2 30 8 37 32h13v-162h-13c-7 23 -14 29 -37 31h-509v13c23 7 29 14 31 37v447c-2 23 -8 29 -31 37v13h494c22 1 30 8 37 31h13v-162h-13c-7 24 -14 30 -37 32h-332v-120h206c23 2 30 8 37 31h13v-158h-13c-7 24 -14 30 -37 32h-206zM375 748h121
v-13c-9 -1 -13 -2 -16 -4c-1 0 -4 -3 -7 -6l-10 -10l-66 -73c-3 -4 -5 -9 -5 -13c0 -5 5 -8 16 -8v-13h-154v13c11 1 15 4 15 9c0 3 -2 7 -8 14l-74 81c-6 8 -10 9 -22 10v13h140v-13c-10 -1 -15 -3 -15 -7c0 -2 3 -6 8 -12l41 -50l46 52c3 3 4 6 4 8c0 6 -4 8 -14 9v13z
" />
    <glyph glyph-name="edotaccent" unicode="&#x117;" horiz-adv-x="642" 
d="M210 233v-134h347c23 2 30 8 37 32h13v-162h-13c-7 23 -14 29 -37 31h-509v13c23 7 29 14 31 37v447c-2 23 -8 29 -31 37v13h494c22 1 30 8 37 31h13v-162h-13c-7 24 -14 30 -37 32h-332v-120h206c23 2 30 8 37 31h13v-158h-13c-7 24 -14 30 -37 32h-206zM330 737
c36 0 64 -28 64 -65c0 -34 -29 -62 -64 -62s-63 28 -63 63s28 64 63 64z" />
    <glyph glyph-name="eogonek" unicode="&#x119;" horiz-adv-x="642" 
d="M48 547h494c22 1 30 8 37 31h13v-162h-13c-7 24 -14 30 -37 32h-332v-120h206c23 2 30 8 37 31h13v-158h-13c-7 24 -14 30 -37 32h-206v-134h347c23 2 30 8 37 32h13v-162h-13c-6 21 -13 28 -31 30c-35 -28 -54 -56 -54 -83c0 -31 24 -50 63 -50c8 0 19 2 36 5l8 -21
c-34 -10 -48 -12 -81 -12c-72 0 -113 27 -113 74c0 23 11 44 31 59c11 8 18 12 49 29h-454v13c23 7 29 14 31 37v447c-2 23 -8 29 -31 37v13z" />
    <glyph glyph-name="gcaron" unicode="&#x1e7;" horiz-adv-x="720" 
d="M417 748h122v-13c-9 -1 -13 -2 -17 -4c-1 0 -4 -3 -7 -6c-3 -4 -6 -7 -10 -10l-65 -73c-4 -5 -6 -9 -6 -13c0 -5 5 -8 17 -8v-13h-155v13c11 1 15 4 15 9c0 3 -3 8 -8 14l-73 81c-7 8 -11 9 -22 10v13h140v-13c-10 -1 -15 -3 -15 -7c0 -3 0 -3 7 -12l42 -50l45 52
c2 2 4 6 4 8c0 6 -4 8 -14 9v13zM541 211h-124c-23 -2 -30 -8 -37 -31h-13v144h13c6 -23 16 -31 37 -31h260v-14c-23 -7 -29 -15 -31 -40v-115c2 -23 8 -31 31 -37v-11c-103 -57 -213 -88 -315 -88c-91 0 -164 21 -220 64c-66 51 -106 132 -106 218c0 89 42 172 115 225
c57 43 131 64 219 64c61 0 104 -8 181 -36c41 -13 41 -13 48 -13c6 0 11 2 19 8l12 -6l-65 -139l-12 6v3c0 12 -5 18 -18 27c-45 29 -103 46 -161 46c-124 0 -205 -74 -205 -186c0 -111 79 -178 210 -178c67 0 117 11 162 36v84z" />
    <glyph glyph-name="gbreve" unicode="&#x11f;" horiz-adv-x="720" 
d="M218 735v12h103v-12c-13 0 -15 -2 -15 -8c0 -28 30 -51 67 -51s67 23 67 51c0 6 -2 8 -14 8v12h103v-12c-11 -1 -14 -3 -14 -11c-3 -69 -61 -117 -142 -117s-138 48 -141 117c-1 8 -4 10 -14 11zM541 211h-124c-23 -2 -30 -8 -37 -31h-13v144h13c6 -23 16 -31 37 -31h260
v-14c-23 -7 -29 -15 -31 -40v-115c2 -23 8 -31 31 -37v-11c-103 -57 -213 -88 -315 -88c-91 0 -164 21 -220 64c-66 51 -106 132 -106 218c0 89 42 172 115 225c57 43 131 64 219 64c61 0 104 -8 181 -36c41 -13 41 -13 48 -13c6 0 11 2 19 8l12 -6l-65 -139l-12 6v3
c0 12 -5 18 -18 27c-45 29 -103 46 -161 46c-124 0 -205 -74 -205 -186c0 -111 79 -178 210 -178c67 0 117 11 162 36v84z" />
    <glyph glyph-name="gdotaccent" unicode="&#x121;" horiz-adv-x="720" 
d="M373 737c36 0 64 -28 64 -65c0 -34 -29 -62 -64 -62s-63 28 -63 63s28 64 63 64zM541 211h-124c-23 -2 -30 -8 -37 -31h-13v144h13c6 -23 16 -31 37 -31h260v-14c-23 -7 -29 -15 -31 -40v-115c2 -23 8 -31 31 -37v-11c-103 -57 -213 -88 -315 -88c-91 0 -164 21 -220 64
c-66 51 -106 132 -106 218c0 89 42 172 115 225c57 43 131 64 219 64c61 0 104 -8 181 -36c41 -13 41 -13 48 -13c6 0 11 2 19 8l12 -6l-65 -139l-12 6v3c0 12 -5 18 -18 27c-45 29 -103 46 -161 46c-124 0 -205 -74 -205 -186c0 -111 79 -178 210 -178c67 0 117 11 162 36
v84z" />
    <glyph glyph-name="lacute" unicode="&#x13a;" horiz-adv-x="574" 
d="M210 99h306c23 2 30 8 37 31h13v-161h-13c-7 23 -14 29 -37 31h-468v13c23 7 29 14 31 37v447c-2 23 -8 29 -31 36v14h193v-14c-23 -6 -29 -13 -31 -36v-398zM283 748v-13c-15 -1 -21 -3 -29 -13l-69 -84c-2 -3 -3 -6 -3 -8c0 -5 4 -8 11 -8h2v-13h-107v13
c15 0 19 2 26 18l33 78c2 5 2 6 2 7c0 6 -5 9 -14 10v13h148z" />
    <glyph glyph-name="lcaron" unicode="&#x13e;" horiz-adv-x="574" 
d="M210 99h306c23 2 30 8 37 31h13v-161h-13c-7 23 -14 29 -37 31h-468v13c23 7 29 14 31 37v447c-2 23 -8 29 -31 36v14h193v-14c-23 -6 -29 -13 -31 -36v-398zM354 352l-16 25c37 20 60 50 64 82c-13 -8 -20 -10 -30 -10c-29 0 -51 24 -51 55c0 34 21 55 55 55
c40 0 64 -29 64 -76c0 -60 -25 -97 -86 -131z" />
    <glyph glyph-name="nacute" unicode="&#x144;" horiz-adv-x="744" 
d="M198 360v-310c2 -23 8 -30 31 -37v-13h-181v13c23 7 29 14 31 37v447c-2 23 -7 29 -31 36v14h210v-14c-15 -3 -22 -9 -22 -19c0 -8 5 -16 16 -27l293 -291v301c-2 23 -8 30 -31 36v14h181v-14c-23 -6 -29 -13 -31 -36v-447c2 -23 8 -30 31 -37v-13h-196v13
c15 3 22 9 22 18s-5 15 -33 43zM506 748v-13c-16 -1 -21 -3 -29 -13l-69 -84c-2 -2 -3 -6 -3 -8c0 -5 4 -8 10 -8h2v-13h-106v13c15 0 19 2 26 18l32 78c1 3 2 6 2 7c0 6 -5 9 -14 10v13h149z" />
    <glyph glyph-name="ncaron" unicode="&#x148;" horiz-adv-x="744" 
d="M198 360v-310c2 -23 8 -30 31 -37v-13h-181v13c23 7 29 14 31 37v447c-2 23 -7 29 -31 36v14h210v-14c-15 -3 -22 -9 -22 -19c0 -8 5 -16 16 -27l293 -291v301c-2 23 -8 30 -31 36v14h181v-14c-23 -6 -29 -13 -31 -36v-447c2 -23 8 -30 31 -37v-13h-196v13
c15 3 22 9 22 18s-5 15 -33 43zM419 748h122v-13c-9 -1 -13 -2 -17 -4c-1 0 -4 -3 -7 -6c-3 -4 -7 -7 -10 -10l-65 -73c-4 -5 -6 -9 -6 -13c0 -5 5 -8 16 -8v-13h-154v13c11 1 15 4 15 9c0 3 -3 8 -8 14l-73 81c-7 8 -11 9 -22 10v13h140v-13c-11 -1 -16 -3 -16 -7
c0 -1 3 -5 8 -12l41 -50l46 52c2 3 4 6 4 8c0 6 -4 8 -14 9v13z" />
    <glyph glyph-name="ohungarumlaut" unicode="&#x151;" horiz-adv-x="713" 
d="M356 559c194 0 321 -115 321 -290c0 -165 -132 -281 -320 -281c-191 0 -321 116 -321 286c0 169 130 285 320 285zM356 456c-108 0 -187 -77 -187 -182c0 -106 79 -183 188 -183c107 0 187 77 187 180c0 109 -77 185 -188 185zM413 748v-13c-15 -1 -20 -3 -28 -13
l-69 -84c-3 -3 -4 -6 -4 -8c0 -5 4 -8 11 -8h2v-13h-102v13c15 0 19 2 26 18l33 78c2 6 2 6 2 7c0 6 -5 9 -14 10v13h143zM597 748v-13c-16 -1 -21 -3 -29 -13l-69 -84c-2 -2 -3 -6 -3 -8c0 -5 4 -8 10 -8h2v-13h-101v13c15 0 18 2 25 18l33 78c1 4 2 6 2 7c0 6 -5 9 -14 10
v13h144z" />
    <glyph glyph-name="racute" unicode="&#x155;" horiz-adv-x="686" 
d="M210 225v-175c2 -23 8 -30 31 -37v-13h-193v14c23 6 29 13 31 36v447c-2 23 -8 29 -31 37v13h358c93 0 134 -8 172 -33c37 -24 59 -70 59 -125c0 -89 -46 -137 -154 -158l104 -145c42 -57 56 -70 83 -73v-13h-229v13c18 5 25 12 25 22c0 8 -5 18 -15 33l-110 157h-131z
M210 324h197c71 0 97 17 97 62c0 46 -24 62 -97 62h-197v-124zM458 748v-13c-15 -1 -20 -3 -28 -13l-69 -84c-3 -3 -4 -6 -4 -8c0 -5 4 -8 11 -8h2v-13h-106v13c15 0 18 2 25 18l33 78c1 4 2 6 2 7c0 6 -5 9 -14 10v13h148z" />
    <glyph glyph-name="sacute" unicode="&#x15b;" horiz-adv-x="616" 
d="M574 498l-66 -128l-12 7v5c0 36 -108 78 -202 78c-80 0 -137 -29 -137 -68c0 -33 27 -44 124 -51l77 -6c73 -6 115 -16 154 -39c45 -27 72 -76 72 -129c0 -111 -103 -179 -269 -179c-88 0 -159 16 -239 52c-5 3 -10 4 -14 4c-7 0 -12 -3 -18 -12l-12 5l56 134l13 -5
c-1 -2 -1 -3 -1 -4c0 -8 4 -16 10 -21c32 -29 125 -54 203 -54c87 0 144 26 144 66c0 20 -13 36 -35 43c-19 7 -36 9 -85 13l-77 7c-83 7 -119 15 -152 36c-41 26 -66 73 -66 127c0 109 99 180 251 180c75 0 131 -14 221 -57c15 -7 22 -9 28 -9s10 2 20 11zM445 748v-13
c-15 -1 -20 -3 -28 -13l-69 -84c-3 -3 -4 -6 -4 -8c0 -5 4 -8 11 -8h2v-13h-107v13c15 0 19 2 26 18l33 78c1 5 2 6 2 7c0 6 -5 9 -14 10v13h148z" />
    <glyph glyph-name="scircumflex" unicode="&#x15d;" horiz-adv-x="616" 
d="M574 498l-66 -128l-12 7v5c0 36 -108 78 -202 78c-80 0 -137 -29 -137 -68c0 -33 27 -44 124 -51l77 -6c73 -6 115 -16 154 -39c45 -27 72 -76 72 -129c0 -111 -103 -179 -269 -179c-88 0 -159 16 -239 52c-5 3 -10 4 -14 4c-7 0 -12 -3 -18 -12l-12 5l56 134l13 -5
c-1 -2 -1 -3 -1 -4c0 -8 4 -16 10 -21c32 -29 125 -54 203 -54c87 0 144 26 144 66c0 20 -13 36 -35 43c-19 7 -36 9 -85 13l-77 7c-83 7 -119 15 -152 36c-41 26 -66 73 -66 127c0 109 99 180 251 180c75 0 131 -14 221 -57c15 -7 22 -9 28 -9s10 2 20 11zM271 608h-122v13
c9 1 13 2 17 4c1 0 4 3 7 6c3 4 6 7 10 10l65 73c4 5 6 9 6 13c0 5 -5 8 -17 8v13h155v-13c-11 -1 -15 -4 -15 -9c0 -3 3 -8 8 -14l73 -81c7 -8 11 -9 22 -10v-13h-140v13c10 1 15 3 15 7c0 3 0 3 -7 12l-42 50l-45 -52c-2 -2 -4 -6 -4 -8c0 -6 4 -8 14 -9v-13z" />
    <glyph glyph-name="scommaaccent" unicode="&#x219;" horiz-adv-x="616" 
d="M574 498l-66 -128l-12 7v5c0 36 -108 78 -202 78c-80 0 -137 -29 -137 -68c0 -33 27 -44 124 -51l77 -6c73 -6 115 -16 154 -39c45 -27 72 -76 72 -129c0 -111 -103 -179 -269 -179c-88 0 -159 16 -239 52c-5 3 -10 4 -14 4c-7 0 -12 -3 -18 -12l-12 5l56 134l13 -5
c-1 -2 -1 -3 -1 -4c0 -8 4 -16 10 -21c32 -29 125 -54 203 -54c87 0 144 26 144 66c0 20 -13 36 -35 43c-19 7 -36 9 -85 13l-77 7c-83 7 -119 15 -152 36c-41 26 -66 73 -66 127c0 109 99 180 251 180c75 0 131 -14 221 -57c15 -7 22 -9 28 -9s10 2 20 11zM274 -253l-16 25
c37 20 60 49 64 82c-13 -9 -19 -11 -30 -11c-28 0 -50 24 -50 55c0 34 21 55 55 55c40 0 64 -29 64 -76c0 -59 -25 -96 -87 -130z" />
    <glyph glyph-name="tcaron" unicode="&#x165;" horiz-adv-x="569" 
d="M350 448v-398c2 -23 8 -30 31 -37v-13h-193v13c23 7 29 14 31 37v398h-161c-23 -2 -30 -8 -37 -32h-13v162h13c6 -23 15 -30 37 -31h453c22 1 31 8 37 31h13v-162h-13c-7 24 -14 30 -37 32h-161zM328 748h122v-13c-9 -1 -13 -2 -17 -4c-1 0 -4 -3 -7 -6
c-3 -4 -6 -7 -10 -10l-65 -73c-4 -5 -6 -9 -6 -13c0 -5 5 -8 17 -8v-13h-155v13c11 1 15 4 15 9c0 3 -3 8 -8 14l-73 81c-7 8 -11 9 -22 10v13h140v-13c-10 -1 -15 -3 -15 -7c0 -3 0 -3 7 -12l42 -50l45 52c2 2 4 6 4 8c0 6 -4 8 -14 9v13z" />
    <glyph glyph-name="uring" unicode="&#x16f;" horiz-adv-x="690" 
d="M652 547v-14c-23 -6 -29 -13 -31 -36v-290c0 -87 -21 -139 -70 -172c-43 -30 -120 -47 -206 -47c-94 0 -174 20 -217 53c-42 34 -60 84 -60 166v290c-2 23 -8 29 -31 36v14h194v-14c-24 -6 -30 -13 -32 -36v-263c0 -61 9 -90 36 -111c26 -21 66 -32 115 -32
c50 0 90 11 116 32s35 49 35 111v263c-2 23 -8 30 -31 36v14h182zM348 772c64 0 112 -40 112 -92c0 -51 -50 -92 -112 -92c-61 0 -112 42 -112 93s49 91 112 91zM348 721c-29 0 -50 -17 -50 -41c0 -23 22 -41 50 -41c27 0 50 18 50 41c0 24 -21 41 -50 41z" />
    <glyph glyph-name="uhungarumlaut" unicode="&#x171;" horiz-adv-x="690" 
d="M652 547v-14c-23 -6 -29 -13 -31 -36v-290c0 -87 -21 -139 -70 -172c-43 -30 -120 -47 -206 -47c-94 0 -174 20 -217 53c-42 34 -60 84 -60 166v290c-2 23 -8 29 -31 36v14h194v-14c-24 -6 -30 -13 -32 -36v-263c0 -61 9 -90 36 -111c26 -21 66 -32 115 -32
c50 0 90 11 116 32s35 49 35 111v263c-2 23 -8 30 -31 36v14h182zM395 748v-13c-16 -1 -21 -3 -29 -13l-69 -84c-2 -2 -3 -6 -3 -8c0 -5 4 -8 10 -8h2v-13h-101v13c15 0 19 2 26 18l32 78c1 3 2 6 2 7c0 6 -5 9 -14 10v13h144zM578 748v-13c-15 -1 -20 -3 -28 -13l-69 -84
c-3 -3 -4 -6 -4 -8c0 -5 4 -8 11 -8h2v-13h-102v13c15 0 19 2 26 18l32 78c1 2 2 6 2 7c0 6 -5 9 -13 10v13h143z" />
    <glyph glyph-name="zacute" unicode="&#x17a;" horiz-adv-x="609" 
d="M249 99h277c23 2 30 8 37 31h13v-161h-14c-6 23 -13 29 -36 31h-489v29l318 419h-264c-23 -2 -30 -8 -37 -32h-13v162h13c6 -23 15 -30 37 -31h480v-24zM432 748v-13c-16 -1 -21 -3 -29 -13l-69 -84c-2 -3 -3 -6 -3 -8c0 -5 4 -8 10 -8h2v-13h-106v13c15 0 19 2 26 18
l33 78c1 5 2 6 2 7c0 6 -5 9 -14 10v13h148z" />
    <glyph glyph-name="zdotaccent" unicode="&#x17c;" horiz-adv-x="609" 
d="M249 99h277c23 2 30 8 37 31h13v-161h-14c-6 23 -13 29 -36 31h-489v29l318 419h-264c-23 -2 -30 -8 -37 -32h-13v162h13c6 -23 15 -30 37 -31h480v-24zM299 737c36 0 64 -28 64 -65c0 -34 -29 -62 -64 -62s-63 28 -63 63s28 64 63 64z" />
    <glyph glyph-name="hbar" unicode="&#x127;" horiz-adv-x="725" 
d="M48 0v13c23 7 30 14 32 37v341h-26c-22 -2 -29 -7 -35 -31h-16v136h16c6 -23 13 -29 35 -31h26v32c-2 23 -8 29 -31 36l-1 14h194v-14c-23 -6 -29 -13 -31 -36v-39h304v39c-2 23 -8 29 -31 36v14h193v-14c-23 -6 -29 -14 -31 -36v-32h26c22 1 29 8 35 31h16v-136h-16
c-6 23 -13 29 -35 31h-26v-341c2 -23 8 -30 31 -37v-13h-193v13c23 7 29 14 31 37v188h-304v-188c2 -23 8 -30 31 -37v-13h-194zM211 398v-71h304v71h-304z" />
    <glyph glyph-name="tcommaaccent" unicode="&#x163;" horiz-adv-x="569" 
d="M350 448v-398c2 -23 8 -30 31 -37v-13h-193v13c23 7 29 14 31 37v398h-161c-23 -2 -30 -8 -37 -32h-13v162h13c6 -23 15 -30 37 -31h453c22 1 31 8 37 31h13v-162h-13c-7 24 -14 30 -37 32h-161zM257 -253l-15 25c36 20 59 49 63 82c-13 -9 -19 -11 -29 -11
c-29 0 -51 24 -51 55c0 34 21 55 55 55c40 0 64 -29 64 -76c0 -59 -24 -96 -87 -130z" />
    <glyph glyph-name="uni021B" unicode="&#x21b;" horiz-adv-x="569" 
d="M350 448v-398c2 -23 8 -30 31 -37v-13h-193v13c23 7 29 14 31 37v398h-161c-23 -2 -30 -8 -37 -32h-13v162h13c6 -23 15 -30 37 -31h453c22 1 31 8 37 31h13v-162h-13c-7 24 -14 30 -37 32h-161zM257 -253l-15 25c36 20 59 49 63 82c-13 -9 -19 -11 -29 -11
c-29 0 -51 24 -51 55c0 34 21 55 55 55c40 0 64 -29 64 -76c0 -59 -24 -96 -87 -130z" />
    <glyph glyph-name="amacron" unicode="&#x101;" horiz-adv-x="694" 
d="M463 137h-251l-29 -59c-7 -15 -10 -26 -10 -34c0 -15 11 -26 31 -31v-13h-201v13c24 4 34 13 49 45l200 404c7 15 11 29 11 40c0 15 -7 23 -28 31v14h213v-14c-18 -6 -27 -18 -27 -33c0 -10 4 -24 12 -39l207 -393c23 -43 30 -49 57 -55v-13h-223v13c20 4 31 14 31 30
c0 9 -6 26 -12 38zM423 214l-89 175l-85 -175h174zM493 733v-127h-13c-9 22 -14 26 -36 27h-202c-22 -2 -26 -5 -36 -27h-13v127h13c9 -21 14 -25 36 -27h202c22 2 27 6 36 27h13z" />
    <glyph glyph-name="ycircumflex" unicode="&#x177;" horiz-adv-x="599" 
d="M365 240v-190c2 -23 8 -30 31 -37v-13h-194v13c23 7 30 14 32 37v190l-162 223c-40 53 -54 64 -83 71v13h246v-14c-22 -6 -31 -14 -31 -29c0 -9 4 -17 23 -43l79 -111l78 111c19 27 23 34 23 43c0 15 -9 23 -32 29v14h234v-13c-29 -7 -42 -18 -82 -71zM258 608h-122v13
c10 1 14 2 17 4c1 0 4 3 7 6c3 4 7 7 10 10l66 73c4 5 6 9 6 13c0 5 -5 8 -17 8v13h154v-13c-11 -1 -14 -4 -14 -9c0 -3 2 -9 7 -14l73 -81c7 -8 11 -9 23 -10v-13h-140v13c10 1 15 3 15 7c0 2 -3 6 -8 12l-41 50l-46 -52c-3 -3 -4 -6 -4 -8c0 -6 4 -8 14 -9v-13z" />
    <glyph glyph-name="emacron" unicode="&#x113;" horiz-adv-x="642" 
d="M210 233v-134h347c23 2 30 8 37 32h13v-162h-13c-7 23 -14 29 -37 31h-509v13c23 7 29 14 31 37v447c-2 23 -8 29 -31 37v13h494c22 1 30 8 37 31h13v-162h-13c-7 24 -14 30 -37 32h-332v-120h206c23 2 30 8 37 31h13v-158h-13c-7 24 -14 30 -37 32h-206zM481 733v-127
h-13c-9 22 -14 26 -36 27h-202c-22 -2 -26 -5 -36 -27h-13v127h13c9 -21 14 -25 36 -27h202c22 2 27 6 36 27h13z" />
    <glyph glyph-name="gcircumflex" unicode="&#x11d;" horiz-adv-x="720" 
d="M330 608h-122v13c9 1 13 2 16 4c2 0 4 3 7 6l10 10l66 73c4 5 6 9 6 13c0 5 -5 8 -17 8v13h154v-13c-10 -1 -14 -4 -14 -9c0 -3 3 -9 7 -14l74 -81c7 -8 10 -9 22 -10v-13h-140v13c10 1 15 3 15 7c0 2 -3 6 -8 12l-41 50l-45 -52c-4 -3 -5 -6 -5 -8c0 -6 4 -8 15 -9v-13z
M541 211h-124c-23 -2 -30 -8 -37 -31h-13v144h13c6 -23 16 -31 37 -31h260v-14c-23 -7 -29 -15 -31 -40v-115c2 -23 8 -31 31 -37v-11c-103 -57 -213 -88 -315 -88c-91 0 -164 21 -220 64c-66 51 -106 132 -106 218c0 89 42 172 115 225c57 43 131 64 219 64
c61 0 104 -8 181 -36c41 -13 41 -13 48 -13c6 0 11 2 19 8l12 -6l-65 -139l-12 6v3c0 12 -5 18 -18 27c-45 29 -103 46 -161 46c-124 0 -205 -74 -205 -186c0 -111 79 -178 210 -178c67 0 117 11 162 36v84z" />
    <glyph glyph-name="ibreve" unicode="&#x12d;" horiz-adv-x="289" 
d="M48 547h193v-14c-23 -6 -29 -13 -31 -36v-447c2 -23 8 -30 31 -37v-13h-193v13c23 7 29 14 31 37v447c-2 23 -8 30 -31 36v14zM-4 735v12h101v-12c-13 0 -15 -2 -15 -9c0 -27 28 -50 63 -50c34 0 62 23 62 50c0 7 -2 9 -14 9v12h100v-12c-10 -1 -13 -3 -13 -11
c-2 -24 -6 -38 -21 -60c-27 -40 -61 -57 -114 -57c-54 0 -88 17 -115 57c-14 22 -19 36 -20 60c-1 8 -4 10 -14 11z" />
    <glyph glyph-name="imacron" unicode="&#x12b;" horiz-adv-x="289" 
d="M49 547h193v-14c-23 -6 -29 -13 -31 -36v-447c2 -23 8 -30 31 -37v-13h-193v13c23 7 29 14 31 37v447c-2 23 -8 30 -31 36v14zM275 733v-127h-13c-9 22 -14 26 -36 27h-162c-22 -2 -26 -5 -36 -27h-13v127h13c9 -21 14 -25 36 -27h162c22 2 27 6 36 27h13z" />
    <glyph glyph-name="kcommaaccent" unicode="&#x137;" horiz-adv-x="685" 
d="M288 250l-78 -64v-136c2 -23 8 -30 31 -37v-13h-193v13c23 7 29 14 31 37v447c-2 23 -7 29 -31 36v14h193v-14c-23 -6 -29 -13 -31 -36v-179l206 164c16 13 23 23 23 32c0 10 -8 16 -29 20v13h246v-13c-25 -4 -31 -8 -92 -63l-185 -147l203 -233l40 -42
c22 -25 31 -31 55 -36v-13h-239v13c19 5 27 10 27 20c0 6 0 6 -27 36zM309 -253l-16 25c36 20 59 49 63 82c-12 -9 -19 -11 -29 -11c-29 0 -51 24 -51 55c0 34 21 55 55 55c40 0 64 -29 64 -76c0 -59 -24 -96 -86 -130z" />
    <glyph glyph-name="lcommaaccent" unicode="&#x13c;" horiz-adv-x="574" 
d="M210 99h306c23 2 30 8 37 31h13v-161h-13c-7 23 -14 29 -37 31h-468v13c23 7 29 14 31 37v447c-2 23 -8 29 -31 36v14h193v-14c-23 -6 -29 -13 -31 -36v-398zM280 -253l-16 25c37 20 60 49 64 82c-13 -9 -19 -11 -30 -11c-28 0 -50 24 -50 55c0 34 21 55 55 55
c40 0 64 -29 64 -76c0 -59 -24 -96 -87 -130z" />
    <glyph glyph-name="ncommaaccent" unicode="&#x146;" horiz-adv-x="744" 
d="M198 360v-310c2 -23 8 -30 31 -37v-13h-181v13c23 7 29 14 31 37v447c-2 23 -7 29 -31 36v14h210v-14c-15 -3 -22 -9 -22 -19c0 -8 5 -16 16 -27l293 -291v301c-2 23 -8 30 -31 36v14h181v-14c-23 -6 -29 -13 -31 -36v-447c2 -23 8 -30 31 -37v-13h-196v13
c15 3 22 9 22 18s-5 15 -33 43zM335 -253l-16 25c36 20 59 49 63 82c-12 -9 -19 -11 -29 -11c-29 0 -51 24 -51 55c0 34 21 55 55 55c40 0 64 -29 64 -76c0 -59 -24 -96 -86 -130z" />
    <glyph glyph-name="omacron" unicode="&#x14d;" horiz-adv-x="713" 
d="M356 559c194 0 321 -115 321 -290c0 -165 -132 -281 -320 -281c-191 0 -321 116 -321 286c0 169 130 285 320 285zM356 456c-108 0 -187 -77 -187 -182c0 -106 79 -183 188 -183c107 0 187 77 187 180c0 109 -77 185 -188 185zM507 733v-127h-13c-9 22 -14 26 -36 27
h-202c-22 -2 -26 -5 -36 -27h-13v127h13c9 -21 14 -25 36 -27h202c22 2 27 6 36 27h13z" />
    <glyph glyph-name="rcommaaccent" unicode="&#x157;" horiz-adv-x="686" 
d="M210 225v-175c2 -23 8 -30 31 -37v-13h-193v14c23 6 29 13 31 36v447c-2 23 -8 29 -31 37v13h358c93 0 134 -8 172 -33c37 -24 59 -70 59 -125c0 -89 -46 -137 -154 -158l104 -145c42 -57 56 -70 83 -73v-13h-229v13c18 5 25 12 25 22c0 8 -5 18 -15 33l-110 157h-131z
M210 324h197c71 0 97 17 97 62c0 46 -24 62 -97 62h-197v-124zM309 -253l-16 25c37 20 60 49 64 82c-13 -9 -20 -11 -30 -11c-29 0 -51 24 -51 55c0 34 21 55 55 55c40 0 64 -29 64 -76c0 -59 -24 -96 -86 -130z" />
    <glyph glyph-name="ubreve" unicode="&#x16d;" horiz-adv-x="690" 
d="M652 547v-14c-23 -6 -29 -13 -31 -36v-290c0 -87 -21 -139 -70 -172c-43 -30 -120 -47 -206 -47c-94 0 -174 20 -217 53c-42 34 -60 84 -60 166v290c-2 23 -8 29 -31 36v14h194v-14c-24 -6 -30 -13 -32 -36v-263c0 -61 9 -90 36 -111c26 -21 66 -32 115 -32
c50 0 90 11 116 32s35 49 35 111v263c-2 23 -8 30 -31 36v14h182zM193 735v12h102v-12c-12 -1 -14 -2 -14 -8c0 -28 30 -51 67 -51s67 23 67 51c0 6 -2 8 -14 8v12h102v-12c-10 -1 -13 -3 -13 -11c-4 -69 -61 -117 -142 -117s-138 48 -141 117c-1 8 -4 10 -14 11z" />
    <glyph glyph-name="umacron" unicode="&#x16b;" horiz-adv-x="690" 
d="M652 547v-14c-23 -6 -29 -13 -31 -36v-290c0 -87 -21 -139 -70 -172c-43 -30 -120 -47 -206 -47c-94 0 -174 20 -217 53c-42 34 -60 84 -60 166v290c-2 23 -8 29 -31 36v14h194v-14c-24 -6 -30 -13 -32 -36v-263c0 -61 9 -90 36 -111c26 -21 66 -32 115 -32
c50 0 90 11 116 32s35 49 35 111v263c-2 23 -8 30 -31 36v14h182zM498 733v-127h-13c-9 22 -14 26 -36 27h-202c-22 -2 -26 -5 -36 -27h-13v127h13c9 -21 14 -25 36 -27h202c22 2 27 6 36 27h13z" />
    <glyph glyph-name="uogonek" unicode="&#x173;" horiz-adv-x="690" 
d="M554 -126l7 -20c-33 -11 -48 -13 -81 -13c-72 0 -113 27 -113 74c0 33 18 55 64 80c-36 -6 -54 -7 -84 -7c-97 0 -176 19 -219 53c-42 34 -60 84 -60 166v290c-2 23 -8 29 -31 36v14h194v-14c-24 -6 -30 -13 -32 -36v-263c0 -61 9 -90 36 -111c26 -21 66 -32 115 -32
c50 0 90 11 116 32s35 49 35 111v263c-2 23 -8 30 -31 36v14h182v-14c-23 -6 -29 -13 -31 -36v-290c-3 -105 -22 -143 -89 -184c-52 -34 -78 -68 -78 -105c0 -29 26 -49 64 -49c8 0 19 2 36 5z" />
    <glyph glyph-name="rcaron" unicode="&#x159;" horiz-adv-x="686" 
d="M210 225v-175c2 -23 8 -30 31 -37v-13h-193v14c23 6 29 13 31 36v447c-2 23 -8 29 -31 37v13h358c93 0 134 -8 172 -33c37 -24 59 -70 59 -125c0 -89 -46 -137 -154 -158l104 -145c42 -57 56 -70 83 -73v-13h-229v13c18 5 25 12 25 22c0 8 -5 18 -15 33l-110 157h-131z
M210 324h197c71 0 97 17 97 62c0 46 -24 62 -97 62h-197v-124zM370 748h122v-13c-10 -1 -14 -2 -17 -4c-1 0 -4 -3 -7 -6c-3 -4 -7 -7 -10 -10l-66 -73c-3 -4 -5 -9 -5 -13c0 -5 5 -8 16 -8v-13h-154v13c11 1 15 4 15 9c0 3 -2 7 -8 14l-73 81c-7 8 -11 9 -23 10v13h140v-13
c-10 -1 -15 -3 -15 -7c0 -2 3 -5 8 -12l41 -50l46 52c3 3 4 6 4 8c0 6 -4 8 -14 9v13z" />
    <glyph glyph-name="scedilla" unicode="&#x15f;" horiz-adv-x="616" 
d="M574 498l-66 -128l-12 7v5c0 36 -108 78 -202 78c-80 0 -137 -29 -137 -68c0 -33 27 -44 124 -51l77 -6c73 -6 115 -16 154 -39c45 -27 72 -76 72 -129c0 -111 -103 -179 -269 -179c-88 0 -159 16 -239 52c-5 3 -10 4 -14 4c-7 0 -12 -3 -18 -12l-12 5l56 134l13 -5
c-1 -2 -1 -3 -1 -4c0 -8 4 -16 10 -21c32 -29 125 -54 203 -54c87 0 144 26 144 66c0 20 -13 36 -35 43c-19 7 -36 9 -85 13l-77 7c-83 7 -119 15 -152 36c-41 26 -66 73 -66 127c0 109 99 180 251 180c75 0 131 -14 221 -57c15 -7 22 -9 28 -9s10 2 20 11zM222 -109l26 48
c8 14 8 14 19 14c82 0 129 -28 129 -77s-46 -81 -118 -81c-36 0 -72 5 -98 14l11 23c20 -6 33 -8 50 -8c42 0 68 16 68 41c0 19 -16 34 -35 34c-14 0 -27 -6 -37 -17z" />
    <glyph glyph-name="gcommaaccent" unicode="&#x123;" horiz-adv-x="720" 
d="M343 -253l-16 25c37 20 60 49 64 82c-13 -9 -20 -11 -30 -11c-29 0 -51 24 -51 55c0 34 21 55 55 55c40 0 64 -29 64 -76c0 -59 -24 -96 -86 -130zM541 211h-124c-23 -2 -30 -8 -37 -31h-13v144h13c6 -23 16 -31 37 -31h260v-14c-23 -7 -29 -15 -31 -40v-115
c2 -23 8 -31 31 -37v-11c-103 -57 -213 -88 -315 -88c-91 0 -164 21 -220 64c-66 51 -106 132 -106 218c0 89 42 172 115 225c57 43 131 64 219 64c61 0 104 -8 181 -36c41 -13 41 -13 48 -13c6 0 11 2 19 8l12 -6l-65 -139l-12 6v3c0 12 -5 18 -18 27
c-45 29 -103 46 -161 46c-124 0 -205 -74 -205 -186c0 -111 79 -178 210 -178c67 0 117 11 162 36v84z" />
    <glyph glyph-name="uni0227" unicode="&#x227;" horiz-adv-x="694" 
d="M463 137h-251l-29 -59c-7 -15 -10 -26 -10 -34c0 -15 11 -26 31 -31v-13h-201v13c24 4 34 13 49 45l200 404c7 15 11 29 11 40c0 15 -7 23 -28 31v14h213v-14c-18 -6 -27 -18 -27 -33c0 -10 4 -24 12 -39l207 -393c23 -43 30 -49 57 -55v-13h-223v13c20 4 31 14 31 30
c0 9 -6 26 -12 38zM423 214l-89 175l-85 -175h174zM341 737c36 0 64 -28 64 -65c0 -34 -29 -62 -64 -62s-63 28 -63 63s28 64 63 64z" />
    <glyph glyph-name="Euro" unicode="&#x20ac;" horiz-adv-x="713" 
d="M88 232h-82l33 82h38c-1 6 -1 10 -1 17c0 8 0 14 1 23h-71l33 82h50c39 155 150 243 308 243c88 0 139 -18 234 -83c32 -22 34 -23 41 -23c6 0 10 3 19 13l13 -9l-89 -139l-13 8v9c0 27 -17 47 -67 77c-40 24 -73 34 -116 34c-86 0 -145 -44 -176 -130h296l-33 -82h-280
c-1 -8 -1 -14 -1 -24v-16h266l-33 -82h-217c29 -87 90 -131 178 -131c46 0 80 11 124 39s59 46 59 72v8l13 9l89 -139l-13 -9c-9 9 -12 12 -18 12c-8 0 -14 -3 -42 -23c-89 -61 -148 -82 -235 -82c-160 0 -270 87 -308 244z" />
    <glyph glyph-name="peseta" unicode="&#x20a7;" horiz-adv-x="1356" 
d="M189 270v-219c2 -22 8 -29 31 -35v-16h-207v16c23 7 29 13 31 35v565c-2 22 -8 29 -31 35v16h302c97 0 148 -12 191 -43c44 -34 71 -92 71 -155c0 -64 -27 -122 -71 -155c-43 -32 -95 -44 -191 -44h-126zM189 380h109c50 0 73 3 93 14c23 13 38 42 38 75
c0 32 -15 61 -38 74c-20 11 -41 14 -93 14h-109v-177zM813 264v-231c1 -12 4 -15 20 -19v-14h-130v14c16 4 18 6 20 19v231h-100c-13 -1 -16 -4 -21 -19h-14v102h14c4 -14 8 -17 21 -18h290c13 1 17 4 21 18h14v-102h-14c-4 15 -8 18 -21 19h-100zM1339 298l-46 -81l-12 6v5
c0 19 -69 43 -126 43c-48 0 -84 -16 -84 -37c0 -16 17 -22 76 -26l49 -4c100 -7 148 -40 148 -102c0 -68 -67 -109 -176 -109c-57 0 -101 9 -154 31c-3 1 -6 2 -7 2c-4 0 -7 -2 -11 -8l-13 6l39 84l13 -4c0 -9 0 -10 3 -13c13 -16 79 -33 130 -33c53 0 88 14 88 36
c0 18 -16 25 -74 29l-49 4c-53 4 -76 9 -98 22c-27 15 -44 44 -44 77c0 67 65 110 164 110c48 0 83 -8 142 -34c10 -4 13 -5 17 -5c3 0 5 1 12 7z" />
    <glyph glyph-name="lira" unicode="&#x20a4;" horiz-adv-x="713" 
d="M116 -38l-47 126c43 21 76 54 88 88h-34c-22 -2 -29 -7 -35 -28h-16v142h16c8 -26 14 -29 62 -28h15c-1 21 -3 41 -9 87h-33c-22 -2 -29 -7 -35 -28h-16v142h16c8 -26 14 -29 58 -28c-2 18 -3 33 -3 46c0 46 20 96 51 126c47 45 125 72 211 72c58 0 113 -12 156 -33
c26 -13 30 -16 74 -49c15 -11 32 -19 41 -19c5 0 8 1 14 5l10 -12l-143 -103l-9 13c7 4 9 8 9 15c0 34 -70 69 -138 69c-84 0 -132 -36 -132 -99c0 -8 0 -8 1 -31h115c22 1 29 7 35 28h16v-142h-16c-6 21 -13 26 -35 28h-106c5 -46 7 -66 8 -87h98c22 1 29 7 35 28h16v-142
h-16c-6 21 -13 26 -35 28h-108c-7 -18 -14 -33 -20 -42l-14 -21c-2 -3 -5 -8 -9 -15c40 12 61 15 91 15c26 0 58 -4 85 -9c26 -6 46 -9 58 -9c31 0 63 20 63 38c0 8 -2 12 -10 19l11 12l140 -108l-9 -12c-8 5 -12 6 -18 6c-9 0 -21 -6 -54 -28c-47 -32 -83 -45 -127 -45
c-23 0 -23 0 -125 19c-17 3 -40 5 -68 5c-65 0 -121 -13 -173 -39z" />
    <glyph glyph-name="franc" unicode="&#x20a3;" horiz-adv-x="904" 
d="M189 292v-241c1 -22 8 -29 31 -35v-16h-207v16c23 6 29 13 31 35v565c-2 22 -8 29 -31 35v16h510c22 2 29 8 35 31h16v-172h-16c-6 23 -13 29 -35 31h-334v-159h218c22 2 29 8 35 31h16v-168h-16c-6 23 -13 29 -35 31h-218zM593 166v-133c1 -12 4 -15 20 -19v-14h-130v14
c15 3 19 7 20 19v330c-1 13 -4 15 -20 19v14h232c61 0 88 -6 112 -26c25 -21 40 -58 40 -99c0 -58 -28 -87 -96 -100l62 -115c15 -25 35 -41 55 -42v-14h-154v14c13 3 14 4 14 8s-3 12 -7 20l-69 124h-79zM593 231h123c41 0 59 14 59 45c0 16 -8 37 -17 45
c-8 7 -20 10 -42 10h-123v-100z" />
    <glyph glyph-name="uni2219" unicode="&#x2219;" horiz-adv-x="307" 
d="M153 327c45 0 80 -35 80 -81c0 -43 -36 -79 -80 -79s-80 36 -80 80s36 80 80 80z" />
    <glyph glyph-name="afii57929" unicode="&#x2bc;" horiz-adv-x="307" 
d="M120 377l-24 31c52 33 74 65 83 116c-19 -4 -26 -5 -35 -5c-43 0 -71 32 -71 81c0 48 29 79 72 79c53 0 88 -46 88 -114c0 -72 -38 -135 -113 -188z" />
    <glyph glyph-name="uni00AD" unicode="&#xad;" horiz-adv-x="222" 
d="M222 357v-168h-16c-6 23 -13 29 -35 31h-120c-22 -2 -29 -8 -35 -31h-16v168h16c6 -23 13 -29 35 -31h120c22 2 29 8 35 31h16z" />
    <glyph glyph-name="uni2011" unicode="&#x2011;" horiz-adv-x="222" 
d="M222 357v-168h-16c-6 23 -13 29 -35 31h-120c-22 -2 -29 -8 -35 -31h-16v168h16c6 -23 13 -29 35 -31h120c22 2 29 8 35 31h16z" />
    <glyph glyph-name="afii00208" unicode="&#x2015;" horiz-adv-x="665" 
d="M665 356v-165h-16c-6 23 -13 29 -35 31h-563c-22 -2 -29 -8 -35 -31h-16v165h16c6 -23 13 -29 35 -31h563c22 2 29 8 35 31h16z" />
    <glyph glyph-name="afii61248" unicode="&#x2105;" horiz-adv-x="383" 
d="M192 421c49 0 88 -39 88 -89c0 -47 -40 -87 -88 -87s-88 40 -88 88c0 49 39 88 88 88z" />
    <glyph glyph-name="uni2101" unicode="&#x2101;" horiz-adv-x="1237" 
d="M322 367h-175l-25 -53c-3 -6 -5 -14 -5 -17c0 -7 6 -12 19 -15v-15h-137v15c17 3 19 6 32 29l144 303c4 7 6 16 6 21c0 9 -4 13 -16 17v15h146v-15c-11 -3 -17 -8 -17 -15c0 -4 2 -10 5 -17l150 -303c15 -28 20 -32 37 -35v-15h-152v15c13 2 19 7 19 15c0 4 -2 9 -5 17z
M294 428l-59 129l-59 -129h118zM979 667v-16c-34 -5 -39 -9 -82 -69l-393 -508c-14 -18 -18 -25 -18 -33c0 -13 10 -21 30 -25v-16h-229v16c34 5 44 14 87 70l385 496c16 21 22 31 22 40c0 13 -12 25 -30 29v16h228zM1219 365l-51 -99l-13 8c1 2 1 5 1 6
c0 23 -77 54 -134 54c-54 0 -89 -18 -89 -47c0 -10 5 -18 16 -23c12 -7 16 -8 68 -12l45 -5c55 -6 85 -15 111 -34c27 -19 44 -53 44 -89c0 -80 -72 -131 -187 -131c-54 0 -103 12 -156 38c-15 7 -15 7 -17 7c-3 0 -6 -2 -12 -7l-13 7l45 102l14 -6c0 -13 1 -15 5 -20
c18 -25 84 -48 136 -48c56 0 95 22 95 54c0 22 -15 29 -78 35l-44 5c-60 7 -76 10 -101 23c-36 18 -57 53 -57 95c0 80 66 129 172 129c52 0 90 -9 154 -36c16 -6 16 -6 19 -6c4 0 8 2 13 7z" />
    <glyph glyph-name="uni2215" unicode="&#x2215;" horiz-adv-x="287" 
d="M421 667v-16c-33 -5 -34 -6 -72 -69l-302 -508c-9 -14 -12 -23 -12 -30c0 -15 14 -26 37 -28v-16h-205v16c33 5 42 14 75 70l298 496c9 16 14 28 14 36c0 16 -16 30 -38 33v16h205z" />
    <glyph glyph-name="uni02C9" unicode="&#x2c9;" 
d="M400 733v-127h-13c-9 22 -14 26 -36 27h-202c-22 -2 -26 -5 -36 -27h-13v127h13c9 -21 14 -25 36 -27h202c22 2 27 6 36 27h13z" />
    <glyph glyph-name="uni2117" unicode="&#x2117;" horiz-adv-x="202" 
d="M36 596h130v-14c-16 -4 -19 -7 -20 -19v-263c1 -13 4 -15 20 -19v-14h-130v14c16 4 19 6 20 19v263c-1 12 -4 15 -20 19v14z" />
    <glyph glyph-name="ebreve" unicode="&#x115;" horiz-adv-x="642" 
d="M210 233v-134h347c23 2 30 8 37 32h13v-162h-13c-7 23 -14 29 -37 31h-509v13c23 7 29 14 31 37v447c-2 23 -8 29 -31 37v13h494c22 1 30 8 37 31h13v-162h-13c-7 24 -14 30 -37 32h-332v-120h206c23 2 30 8 37 31h13v-158h-13c-7 24 -14 30 -37 32h-206zM176 735v12h102
v-12c-12 -1 -14 -2 -14 -8c0 -28 30 -51 67 -51s67 23 67 51c0 6 -2 8 -14 8v12h102v-12c-10 -1 -13 -3 -14 -11c-3 -69 -60 -117 -141 -117s-138 48 -142 117c0 8 -3 10 -13 11z" />
    <glyph glyph-name="iogonek" unicode="&#x12f;" horiz-adv-x="289" 
d="M241 0h-23c-35 -27 -55 -57 -55 -84c0 -31 24 -50 63 -50c9 0 19 2 36 5l8 -21c-34 -10 -48 -12 -81 -12c-73 0 -114 27 -114 74c0 23 11 44 31 59c11 8 19 13 49 29h-107v13c23 7 29 14 31 37v447c-2 23 -7 29 -31 36v14h193v-14c-23 -6 -29 -13 -31 -36v-447
c2 -23 8 -30 31 -37v-13z" />
    <glyph glyph-name="ldot" unicode="&#x140;" horiz-adv-x="574" 
d="M210 99h306c23 2 30 8 37 31h13v-161h-13c-7 23 -14 29 -37 31h-468v13c23 7 29 14 31 37v447c-2 23 -8 29 -31 36v14h193v-14c-23 -6 -29 -13 -31 -36v-398zM432 354c42 0 74 -33 74 -74c0 -40 -33 -73 -72 -73c-41 0 -75 33 -75 74c0 40 33 73 73 73z" />
    <glyph glyph-name="utilde" unicode="&#x169;" horiz-adv-x="690" 
d="M652 547v-14c-23 -6 -29 -13 -31 -36v-290c0 -87 -21 -139 -70 -172c-43 -30 -120 -47 -206 -47c-94 0 -174 20 -217 53c-42 34 -60 84 -60 166v290c-2 23 -8 29 -31 36v14h194v-14c-24 -6 -30 -13 -32 -36v-263c0 -61 9 -90 36 -111c26 -21 66 -32 115 -32
c50 0 90 11 116 32s35 49 35 111v263c-2 23 -8 30 -31 36v14h182zM450 741l71 -65l-8 -10c-13 4 -14 4 -18 4c-5 0 -8 -2 -12 -8c-23 -31 -45 -45 -70 -45c-13 0 -24 2 -41 9l-73 28c-5 1 -14 3 -21 3c-13 0 -29 -13 -29 -24c0 -5 2 -8 8 -15l-9 -7l-73 68l7 8
c8 -3 13 -4 17 -4c8 0 12 2 19 11c18 24 46 39 74 39c11 0 20 -2 31 -6l73 -29c8 -3 18 -5 25 -5c13 0 27 13 27 24c0 5 -2 10 -8 17z" />
    <glyph glyph-name="uni01D4" unicode="&#x1d4;" horiz-adv-x="690" 
d="M652 547v-14c-23 -6 -29 -13 -31 -36v-290c0 -87 -21 -139 -70 -172c-43 -30 -120 -47 -206 -47c-94 0 -174 20 -217 53c-42 34 -60 84 -60 166v290c-2 23 -8 29 -31 36v14h194v-14c-24 -6 -30 -13 -32 -36v-263c0 -61 9 -90 36 -111c26 -21 66 -32 115 -32
c50 0 90 11 116 32s35 49 35 111v263c-2 23 -8 30 -31 36v14h182zM392 748h122v-13c-9 -1 -13 -2 -17 -4c-1 0 -4 -3 -7 -6c-3 -4 -6 -7 -10 -10l-65 -73c-4 -4 -6 -9 -6 -13c0 -5 5 -8 17 -8v-13h-155v13c11 1 15 4 15 9c0 3 -2 8 -8 14l-73 81c-7 8 -11 9 -22 10v13h140
v-13c-11 -1 -16 -3 -16 -7c0 -1 3 -5 8 -12l41 -50l46 52c2 2 4 6 4 8c0 6 -4 8 -14 9v13z" />
    <glyph glyph-name="Ldot" unicode="&#x13f;" horiz-adv-x="708" 
d="M236 110h411c21 1 29 8 35 31h16v-172h-16c-6 23 -13 29 -35 31h-587v16c23 6 29 13 31 35v565c-2 22 -8 29 -31 35v16h207v-16c-23 -6 -29 -13 -31 -35v-506zM518 420c45 0 80 -35 80 -81c0 -43 -36 -79 -80 -79s-80 36 -80 80s36 80 80 80z" />
    <glyph glyph-name="Scommaaccent" unicode="&#x218;" horiz-adv-x="720" 
d="M680 611l-79 -157l-14 8v8c0 11 -8 22 -28 35c-55 39 -130 61 -204 61c-95 0 -156 -33 -156 -85c0 -19 10 -34 30 -45c21 -11 29 -12 116 -21l77 -8c90 -9 142 -25 185 -55c45 -32 72 -88 72 -147c0 -66 -34 -129 -88 -163c-56 -34 -136 -54 -223 -54
c-93 0 -186 24 -277 71c-7 4 -13 6 -17 6c-5 0 -9 -3 -20 -11l-14 7l72 164l15 -7c-1 -3 -1 -6 -1 -6c0 -15 7 -28 21 -41c42 -38 145 -70 224 -70c98 0 167 40 167 97c0 21 -13 39 -36 48c-21 8 -35 11 -100 18l-75 8c-101 10 -129 16 -170 37c-59 29 -93 88 -93 157
c0 132 110 213 287 213c85 0 149 -15 257 -61c27 -10 29 -11 34 -11c8 0 15 4 24 11zM325 -256l-17 24c39 20 63 50 67 82c-13 -8 -20 -10 -31 -10c-30 0 -53 24 -53 55c0 34 22 55 58 55c41 0 67 -29 67 -76c0 -59 -26 -96 -91 -130z" />
    <glyph glyph-name="Eng" unicode="&#x14a;" horiz-adv-x="816" 
d="M36 0v16c23 6 29 13 31 35v565c-2 22 -8 29 -31 35v16h177v-50c56 36 149 62 222 62c82 0 164 -19 217 -51c60 -36 88 -100 88 -203v-342c0 -80 -17 -123 -59 -153c-38 -27 -104 -44 -170 -44c-54 0 -92 7 -171 33c-6 2 -12 3 -15 3c-8 0 -15 -4 -22 -13l-13 4l48 149
l13 -4c0 -14 2 -20 10 -28c22 -21 83 -40 129 -40c70 0 103 31 103 96v298c0 80 -6 105 -30 132c-29 32 -88 50 -161 50c-74 0 -132 -18 -161 -50c-18 -21 -29 -55 -29 -96v-369c1 -22 8 -29 31 -35v-16h-207z" />
    <glyph glyph-name="Tbar" unicode="&#x166;" horiz-adv-x="674" 
d="M410 410h136c22 2 29 8 35 31h16v-159h-16c-6 23 -13 29 -35 31h-136v-235c-1 -48 2 -54 31 -62v-16h-207v16c23 6 29 13 31 35v262h-136c-22 -2 -29 -8 -35 -31h-16v159h16c6 -23 13 -29 35 -31h136v147h-207c-22 -2 -29 -8 -35 -31h-16v172h16c6 -23 12 -29 35 -31h559
c22 2 29 8 35 31h16v-172h-16c-6 23 -13 29 -35 31h-207v-147z" />
    <glyph glyph-name="eng" unicode="&#x14b;" horiz-adv-x="679" 
d="M48 0v13c23 7 29 14 31 37v447c-2 23 -7 29 -31 36v14h162v-57c63 47 129 69 208 69c150 0 224 -71 224 -215v-261c0 -89 -20 -135 -71 -165c-31 -19 -76 -31 -111 -31c-31 0 -67 8 -135 32c-6 2 -12 3 -16 3c-7 0 -14 -4 -21 -13l-14 4l49 149l13 -4c0 -14 2 -20 10 -29
c17 -16 58 -32 86 -32c53 0 79 29 79 89v227c0 61 -9 90 -36 111c-26 21 -66 32 -116 32c-93 0 -149 -39 -149 -104v-302c2 -23 8 -30 31 -37v-13h-193z" />
    <glyph glyph-name="tbar" unicode="&#x167;" horiz-adv-x="569" 
d="M350 333h90c22 1 31 8 37 32h13v-147h-13c-7 24 -14 30 -37 32h-90v-200c2 -23 8 -30 31 -37v-13h-193v13c23 7 29 14 31 37v200h-90c-23 -2 -30 -8 -37 -31l-13 -1v147h13c6 -23 15 -31 37 -32h90v115h-161c-23 -2 -30 -8 -37 -32h-13v162h13c6 -23 15 -30 37 -31h453
c22 1 31 8 37 31h13v-162h-13c-7 24 -14 30 -37 32h-161v-115z" />
    <glyph glyph-name="kgreenlandic" unicode="&#x138;" horiz-adv-x="685" 
d="M288 250l-78 -64v-136c2 -23 8 -30 31 -37v-13h-193v13c23 7 29 14 31 37v447c-2 23 -7 29 -31 36v14h193v-14c-23 -6 -29 -13 -31 -36v-179l206 164c16 13 23 23 23 32c0 10 -8 16 -29 20v13h246v-13c-25 -4 -31 -8 -92 -63l-185 -147l203 -233l40 -42
c22 -25 31 -31 55 -36v-13h-239v13c19 5 27 10 27 20c0 6 0 6 -27 36z" />
    <glyph glyph-name="napostrophe" unicode="&#x149;" horiz-adv-x="977" 
d="M120 377l-24 31c52 33 74 65 83 116c-19 -4 -26 -5 -35 -5c-43 0 -71 32 -71 81c0 48 29 79 72 79c53 0 88 -46 88 -114c0 -72 -38 -135 -113 -188zM431 360v-310c2 -23 8 -30 31 -37v-13h-181v13c23 7 29 14 31 37v447c-2 23 -8 30 -31 36v14h210v-14
c-15 -3 -22 -9 -22 -19c0 -8 5 -16 16 -27l293 -291v301c-2 23 -8 30 -31 36v14h181v-14c-23 -6 -29 -13 -31 -36v-447c2 -23 8 -30 31 -37v-13h-196v13c15 3 22 9 22 18s-5 15 -33 43z" />
    <glyph glyph-name="Wacute" unicode="&#x1e82;" horiz-adv-x="308" 
d="M265 357v-168h-16c-6 23 -13 29 -35 31h-120c-22 -2 -29 -8 -35 -31h-16v168h16c6 -23 13 -29 35 -31h120c22 2 29 8 35 31h16z" />
    <glyph glyph-name="uni01D1" unicode="&#x1d1;" horiz-adv-x="378" 
d="M253 432v-16c-26 -7 -30 -12 -30 -35c0 -11 0 -15 1 -22l36 -301c3 -33 7 -38 32 -42v-16h-205v16c25 4 29 9 32 42l36 301c1 7 1 14 1 22c0 23 -4 28 -31 35v16h128zM189 679c45 0 80 -36 80 -81c0 -43 -36 -79 -80 -79s-80 36 -80 80s36 80 80 80z" />
    <glyph glyph-name="uni01C4" unicode="&#x1c4;" horiz-adv-x="488" 
d="M384 188l84 -123l-13 -9l-4 2c-8 5 -12 6 -16 6c-9 0 -18 -4 -42 -20c-62 -41 -104 -56 -159 -56c-103 0 -174 61 -174 148c0 51 23 94 87 156c44 43 53 61 53 100c0 17 -6 24 -28 29v16h160v-16c-26 -8 -31 -17 -37 -61c-8 -43 -14 -55 -55 -106
c-36 -46 -46 -65 -46 -92c0 -43 30 -71 76 -71c48 0 105 38 105 71c0 5 -1 8 -4 17zM244 679c44 0 80 -36 80 -80s-36 -80 -80 -80c-45 0 -80 36 -80 81c0 43 36 79 80 79z" />
    <glyph glyph-name="uni01C5" unicode="&#x1c5;" horiz-adv-x="759" 
d="M726 667v-16c-34 -5 -39 -9 -83 -69l-393 -508c-14 -19 -18 -25 -18 -33c0 -13 10 -21 30 -25v-16h-229v16c34 5 44 14 87 70l385 496c16 21 22 31 22 40c0 13 -11 25 -30 29v16h229z" />
    <glyph glyph-name="uni01C6" unicode="&#x1c6;" horiz-adv-x="333" 
d="M272 687l54 -38c-94 -93 -129 -179 -129 -316c0 -136 35 -222 129 -315l-54 -38c-126 77 -206 214 -206 353c0 140 80 277 206 354z" />
    <glyph glyph-name="uni01C7" unicode="&#x1c7;" horiz-adv-x="333" 
d="M8 649l54 38c126 -77 206 -214 206 -354c0 -139 -80 -276 -206 -353l-54 38c94 93 129 179 129 315c0 137 -35 223 -129 316z" />
    <glyph glyph-name="uni01C8" unicode="&#x1c8;" horiz-adv-x="333" 
d="M66 687h210c23 1 30 8 37 31h13v-130h-13c-7 23 -14 29 -37 31h-72v-571h66c27 0 36 7 43 31h13v-130h-13c-6 23 -15 30 -37 31h-210v12c23 7 29 13 31 34v614c-2 21 -8 28 -31 35v12z" />
    <glyph glyph-name="uni01C9" unicode="&#x1c9;" horiz-adv-x="333" 
d="M268 687v-12c-23 -6 -29 -14 -31 -35v-614c2 -21 8 -28 31 -34v-12h-210c-22 -1 -31 -8 -37 -31h-13v130h13c7 -24 16 -31 43 -31h66v571h-72c-23 -2 -30 -8 -37 -31h-13v130h13c7 -23 14 -30 37 -31h210z" />
    <glyph glyph-name="uni01CA" unicode="&#x1ca;" horiz-adv-x="576" 
d="M249 499l78 -8c145 -16 202 -56 202 -142c0 -48 -21 -88 -58 -108c46 -32 58 -52 58 -100c0 -55 -31 -103 -82 -127c-37 -18 -82 -26 -141 -26c-84 0 -144 17 -218 61c-6 3 -11 5 -14 5c-5 0 -9 -2 -18 -9l-9 5l71 122l9 -6c-3 -7 -4 -10 -4 -14c0 -11 9 -21 31 -35
c37 -23 87 -35 151 -35c75 0 123 22 123 58c0 28 -32 43 -106 51l-80 8c-113 12 -166 52 -166 124c0 51 18 79 68 109c-49 25 -68 53 -68 101c0 91 75 146 201 146c57 0 106 -9 177 -34c8 -3 17 -5 22 -5s7 2 16 10l10 -4l-56 -126l-9 4c2 8 2 10 2 13c0 8 -10 16 -31 25
c-40 17 -71 23 -127 23c-67 0 -108 -17 -108 -44c0 -23 24 -36 76 -42zM249 290l118 -17c46 23 60 39 60 70c0 32 -22 46 -83 53l-107 13c-43 -20 -63 -44 -63 -73c0 -27 17 -37 75 -46z" />
    <glyph glyph-name="uni01CB" unicode="&#x1cb;" horiz-adv-x="539" 
d="M313 458h129c22 2 29 8 35 31h16v-154h-16c-6 23 -13 29 -35 31h-129l20 -315c1 -22 7 -29 31 -35v-16h-188v16c24 7 29 13 31 35l20 315h-129c-22 -2 -29 -8 -35 -31h-16v154h16c7 -26 15 -32 48 -31h116l-20 158c-2 22 -8 29 -31 35v16h188v-16c-11 -2 -19 -6 -24 -12
c-6 0 -13 -45 -27 -181z" />
    <glyph glyph-name="uni01CC" unicode="&#x1cc;" horiz-adv-x="539" 
d="M312 484h130c22 2 29 8 35 31h16v-154h-16c-6 23 -13 29 -35 31h-130v-118h130c22 2 29 8 35 31h16v-154h-16c-6 23 -13 29 -35 31h-130l20 -131c2 -22 8 -29 32 -35v-16h-188v16c23 6 30 13 31 35l20 131h-129c-22 -2 -29 -8 -35 -31h-16v154h16c6 -23 13 -29 35 -31
h129v118h-129c-22 -2 -29 -8 -35 -31h-16v154h16c6 -23 13 -29 35 -31h129l-20 132c-1 21 -8 29 -31 35v16h188v-16c-12 -3 -20 -7 -25 -12c-5 -3 -9 -22 -27 -155z" />
    <glyph glyph-name="uni0200" unicode="&#x200;" horiz-adv-x="503" 
d="M121 700l16 -9c-1 -6 -2 -11 -2 -15c0 -24 23 -47 90 -90c-6 97 -14 120 -47 129v18h148v-18c-33 -9 -42 -33 -47 -129c66 42 90 66 90 90c0 3 -1 9 -3 15l16 9l74 -128l-16 -9c-12 11 -20 15 -30 15c-21 0 -47 -10 -105 -38c46 -25 85 -39 104 -39c11 0 19 4 31 15
l16 -9l-74 -128l-16 9c2 6 3 12 3 15c0 23 -25 48 -90 90c5 -96 14 -120 47 -129v-18h-148v18c33 9 41 32 47 129c-65 -42 -90 -67 -90 -90c0 -4 1 -9 2 -15l-16 -9l-74 128l16 9c12 -11 20 -15 31 -15c20 0 58 14 104 39c-57 28 -84 38 -104 38c-11 0 -19 -4 -31 -15l-16 9
z" />
    <glyph glyph-name="uni0201" unicode="&#x201;" horiz-adv-x="333" 
d="M327 718v-135h-13c-7 25 -15 31 -42 31h-41c-16 0 -34 -10 -43 -25c-9 -16 -10 -23 -10 -115v-70c0 -30 -9 -46 -40 -70c31 -24 40 -41 40 -71v-70c0 -97 1 -103 13 -119c9 -12 26 -21 40 -21h41c27 0 35 6 42 31h13v-135h-13c-7 25 -15 31 -42 31h-114
c-44 0 -88 38 -88 75v149c0 69 -4 83 -30 84h-30c-16 -1 -21 -7 -26 -31h-12v153h12c5 -24 10 -30 26 -31h30c26 1 30 15 30 84v149c-1 36 44 75 88 75h114c27 0 35 6 42 31h13z" />
    <glyph glyph-name="uni00A0" unicode="&#xa0;" horiz-adv-x="250" 
 />
    <glyph glyph-name="uni2218" unicode="&#x2218;" 
d="M252 480c75 0 136 -63 136 -140c0 -78 -61 -140 -137 -140s-138 62 -138 140s61 140 139 140zM252 432c-52 0 -92 -41 -92 -92s41 -92 91 -92c49 0 90 41 90 92c0 50 -41 92 -89 92z" />
    <glyph glyph-name="lozenge" unicode="&#x25ca;" horiz-adv-x="667" 
d="M334 693l259 -360l-259 -359l-260 359zM334 604l-197 -271l197 -270l197 270z" />
    <glyph glyph-name="Delta" unicode="&#x2206;" horiz-adv-x="645" 
d="M8 0l244 667h139l246 -667h-629zM180 117h282l-139 408z" />
    <glyph glyph-name="notequal" unicode="&#x2260;" horiz-adv-x="767" 
d="M405 495l45 96c2 4 4 12 4 17c0 8 -5 15 -18 26l6 13l143 -67l-6 -13c-7 2 -11 2 -16 2c-11 0 -20 -6 -26 -18l-26 -56h94c20 2 27 8 33 31h14v-158h-14c-6 23 -13 29 -33 31h-139l-61 -131h200c20 2 27 8 33 31h14v-158h-14c-6 23 -13 29 -33 31h-244l-45 -96
c-2 -4 -4 -13 -4 -17c0 -8 5 -15 18 -26l-6 -13l-143 67l6 13c7 -2 11 -2 16 -2c11 0 21 7 26 18l26 56h-94c-20 -2 -27 -8 -33 -31h-14v158h14c6 -23 13 -29 33 -31h139l61 131h-200c-20 -2 -27 -8 -33 -31h-14v158h14c6 -23 13 -29 33 -31h244z" />
    <glyph glyph-name="radical" unicode="&#x221a;" horiz-adv-x="667" 
d="M667 827v-111h-172l-188 -716h-156l-64 262h-87v111h164l30 -111c5 -20 13 -68 23 -142h7c26 149 34 182 71 324l102 383h270z" />
    <glyph glyph-name="integral" unicode="&#x222b;" 
d="M54 -240l23 127c19 -8 28 -10 41 -10c26 0 47 13 54 32c6 15 6 15 6 107v443c0 112 2 143 10 175c19 72 86 116 176 116c26 0 35 -1 82 -10l-23 -127c-18 7 -29 10 -43 10c-23 0 -41 -10 -49 -26c-8 -15 -9 -26 -9 -70v-523c0 -128 -7 -158 -46 -198
c-35 -38 -86 -55 -161 -55c-20 0 -29 1 -50 7c-6 1 -6 1 -11 2z" />
    <glyph glyph-name="similar" unicode="&#x223c;" 
d="M78 247l-71 46c42 105 81 140 152 140c23 0 53 -7 103 -26c58 -21 66 -23 87 -23c32 0 48 11 71 50l74 -42c-30 -62 -46 -86 -74 -106c-26 -18 -56 -28 -85 -28c-21 0 -41 6 -103 28c-55 20 -64 22 -80 22c-17 0 -33 -6 -45 -17c-9 -8 -13 -14 -29 -44z" />
    <glyph glyph-name="approxequal" unicode="&#x2248;" 
d="M79 348l-70 49c39 93 84 134 147 134c26 0 49 -7 107 -33c57 -26 67 -29 87 -29c28 0 48 15 72 55l70 -48c-41 -96 -84 -135 -146 -135c-24 0 -40 5 -102 32c-63 27 -73 30 -93 30c-28 0 -47 -15 -72 -55zM79 137l-70 49c40 93 84 133 147 133c26 0 50 -7 107 -32
s67 -28 87 -28c28 0 48 14 72 54l70 -49c-41 -94 -84 -134 -146 -134c-23 0 -42 6 -102 31c-61 26 -73 30 -94 30c-26 0 -46 -15 -71 -54z" />
    <glyph glyph-name="lessequal" unicode="&#x2264;" 
d="M466 638v-132l-279 -93l279 -92v-132l-433 165v119zM466 161v-124h-433v124h433z" />
    <glyph glyph-name="greaterequal" unicode="&#x2265;" 
d="M33 638l433 -165v-119l-433 -165v132l279 92l-279 93v132zM33 161h433v-124h-433v124z" />
    <glyph glyph-name="infinity" unicode="&#x221e;" horiz-adv-x="667" 
d="M336 278c-56 -69 -100 -95 -163 -95c-91 0 -155 65 -155 158c0 91 64 156 155 156c60 0 109 -30 159 -95c48 65 100 95 162 95c91 0 155 -65 155 -157s-64 -157 -155 -157c-60 0 -108 29 -158 95zM380 340c35 -53 64 -74 101 -74c41 0 72 31 72 74c0 41 -31 73 -72 73
c-37 0 -66 -21 -101 -73zM287 339c-34 53 -64 74 -102 74c-42 0 -71 -30 -71 -73s30 -73 72 -73c38 0 64 19 101 72z" />
    <glyph glyph-name="product" unicode="&#x220f;" horiz-adv-x="667" 
d="M20 750h627v-108h-72v-784h72v-108h-259v108h66v784h-242v-784h66v-108h-258v108h73v784h-73v108z" />
    <glyph glyph-name="summation" unicode="&#x2211;" horiz-adv-x="667" 
d="M618 750v-251h-121l-15 127h-298l244 -360l-243 -393h306l9 132h127v-255h-593v142l235 374l-235 342v142h584z" />
    <glyph glyph-name="afii61289" unicode="&#x2113;" 
d="M262 266l-2 -9c-23 -119 -27 -142 -27 -173c0 -21 5 -30 16 -30c12 0 27 18 41 48c7 16 12 21 22 21c11 0 18 -8 18 -21c0 -58 -56 -117 -111 -117c-54 0 -78 44 -78 140c0 18 0 29 1 55l-6 -6c-2 -3 -5 -6 -8 -9c-7 -8 -14 -12 -19 -12c-10 0 -19 13 -19 26
c0 10 3 16 14 28c24 25 30 33 46 53c23 125 47 212 80 292c36 84 77 125 129 125c47 0 78 -37 78 -94c0 -53 -26 -126 -68 -191c-20 -30 -43 -58 -107 -126zM277 358c62 71 101 153 101 215c0 25 -7 40 -18 40c-10 0 -23 -16 -31 -39c-13 -40 -40 -149 -52 -216z" />
    <glyph glyph-name="partialdiff" unicode="&#x2202;" 
d="M65 560l16 104c127 -15 207 -46 276 -105c82 -72 124 -175 124 -301c0 -165 -92 -269 -237 -269c-69 0 -126 25 -168 74c-36 42 -57 101 -57 157c0 121 90 212 210 212c32 0 61 -7 80 -20c2 -1 14 -10 31 -23l10 -8c-2 5 -4 10 -5 12c-29 64 -56 90 -129 126
c-52 23 -90 34 -151 41zM254 332c-64 0 -113 -52 -113 -118s49 -118 111 -118c60 0 107 52 107 120c0 66 -45 116 -105 116z" />
    <glyph glyph-name="underscoredbl" unicode="&#x2017;" 
d="M0 -49h500v-77h-500v77zM0 -166h500v-77h-500v77z" />
    <glyph glyph-name="uni203E" unicode="&#x203e;" 
d="M0 893h500v-117h-500v117z" />
    <glyph glyph-name="emptyset" unicode="&#x2205;" horiz-adv-x="618" 
d="M496 655l-53 -105c69 -48 109 -122 109 -203c0 -135 -108 -243 -243 -243c-30 0 -54 4 -84 15l-53 -106l-49 25l53 106c-69 47 -109 121 -109 203c0 134 108 242 243 242c29 0 54 -4 85 -15l53 106zM417 499l-166 -330c21 -7 37 -9 58 -9c104 0 187 83 187 187
c0 60 -28 115 -79 152zM202 194l167 330c-22 7 -37 9 -59 9c-104 0 -187 -83 -187 -186c0 -61 27 -114 79 -153z" />
    <glyph glyph-name="uni2126" unicode="&#x2126;" horiz-adv-x="667" 
d="M28 0v117h146c-101 61 -149 141 -149 250c0 177 135 316 307 316c176 0 310 -137 310 -316c0 -110 -47 -189 -149 -250h146v-117h-268v108c87 46 135 130 135 236c0 126 -74 221 -171 221c-101 0 -174 -94 -174 -222c0 -108 46 -188 135 -235v-108h-268z" />
    <glyph glyph-name="pi" unicode="&#x3c0;" horiz-adv-x="604" 
d="M83 0v363h-70v117h577v-117h-68v-363h-130v363h-179v-363h-130z" />
    </font>
</defs>
</svg>
